<svg xmlns="http://www.w3.org/2000/svg" viewBox="0 0 19.83 20"><defs><style>.cls-1{fill:#717171;}</style></defs><title>20x20-candado-abierto</title><g id="Capa_2" data-name="Capa 2"><g id="Iconos_IBK" data-name="Iconos IBK"><path class="cls-1" d="M8.52,13.93l0,1.82a.58.58,0,0,0,.58.57h0a.58.58,0,0,0,.57-.59l0-1.82a1.43,1.43,0,0,0,.86-1.3,1.47,1.47,0,0,0-2.93,0A1.43,1.43,0,0,0,8.52,13.93Z"/><path class="cls-1" d="M19.83,4.47C19.83,2.25,18.35,0,15,0h0a4.37,4.37,0,0,0-4.74,4.47V6.75a.32.32,0,0,0,0,.14H2A1.92,1.92,0,0,0,0,8.75v9.39A1.92,1.92,0,0,0,2,20H16.14a1.92,1.92,0,0,0,2-1.86V8.75a1.78,1.78,0,0,0-.59-1.32,2,2,0,0,0-1.38-.54h-5.2a.32.32,0,0,0,0-.14V4.47A3.74,3.74,0,0,1,15,.67h0a3.74,3.74,0,0,1,4.1,3.8v1a.34.34,0,0,0,.67,0Zm-3.7,3.06a1.34,1.34,0,0,1,.94.37,1.14,1.14,0,0,1,.38.85v9.39a1.27,1.27,0,0,1-1.32,1.21H2A1.27,1.27,0,0,1,.65,18.14V8.75A1.28,1.28,0,0,1,2,7.53Z"/></g></g></svg>