<svg xmlns="http://www.w3.org/2000/svg" xmlns:xlink="http://www.w3.org/1999/xlink" viewBox="0 0 158 158"><defs><style>.cls-1,.cls-8,.cls-93,.cls-94,.cls-95,.cls-97{fill:none;}.cls-2{isolation:isolate;}.cls-3{fill:#45abe0;}.cls-4{fill:#1aa39f;}.cls-5{clip-path:url(#clip-path);}.cls-6{fill:#262e61;}.cls-7,.cls-96{fill:#fff;}.cls-8,.cls-94,.cls-97{stroke:#fff;}.cls-8{stroke-linecap:round;stroke-width:0.72px;}.cls-8,.cls-93,.cls-94,.cls-95,.cls-97{stroke-miterlimit:10;}.cls-9{mix-blend-mode:multiply;}.cls-10{clip-path:url(#clip-path-2);}.cls-11{clip-path:url(#clip-path-3);}.cls-12{fill:#009b3a;}.cls-13{fill:#009a3b;}.cls-14{fill:#00993c;}.cls-15{fill:#00983d;}.cls-16{fill:#00973e;}.cls-17{fill:#00973f;}.cls-18{fill:#019640;}.cls-19{fill:#019541;}.cls-20{fill:#019442;}.cls-21{fill:#019343;}.cls-22{fill:#019244;}.cls-23{fill:#019145;}.cls-24{fill:#019046;}.cls-25{fill:#019047;}.cls-26{fill:#018f48;}.cls-27{fill:#018e49;}.cls-28{fill:#028d4a;}.cls-29{fill:#028c4b;}.cls-30{fill:#028b4c;}.cls-31{fill:#028a4d;}.cls-32{fill:#02894e;}.cls-33{fill:#02894f;}.cls-34{fill:#028850;}.cls-35{fill:#028751;}.cls-36{fill:#028652;}.cls-37{fill:#028553;}.cls-38{fill:#028454;}.cls-39{fill:#038355;}.cls-40{fill:#038256;}.cls-41{fill:#038257;}.cls-42{fill:#038158;}.cls-43{fill:#038059;}.cls-44{fill:#037f5a;}.cls-45{fill:#037e5b;}.cls-46{fill:#037d5c;}.cls-47{fill:#037c5e;}.cls-48{fill:#037b5f;}.cls-49{fill:#047a60;}.cls-50{fill:#047a61;}.cls-51{fill:#047962;}.cls-52{fill:#047863;}.cls-53{fill:#047764;}.cls-54{fill:#047665;}.cls-55{fill:#047566;}.cls-56{fill:#047467;}.cls-57{fill:#047368;}.cls-58{fill:#047369;}.cls-59{fill:#04726a;}.cls-60{fill:#05716b;}.cls-61{fill:#05706c;}.cls-62{fill:#056f6d;}.cls-63{fill:#056e6e;}.cls-64{fill:#056d6f;}.cls-65{fill:#056c70;}.cls-66{fill:#056c71;}.cls-67{fill:#056b72;}.cls-68{fill:#056a73;}.cls-69{fill:#056974;}.cls-70{fill:#056875;}.cls-71{fill:#066776;}.cls-72{fill:#066677;}.cls-73{fill:#066578;}.cls-74{fill:#066579;}.cls-75{fill:#06647a;}.cls-76{fill:#06637b;}.cls-77{fill:#06627c;}.cls-78{fill:#06617d;}.cls-79{fill:#06607e;}.cls-80{fill:#065f7f;}.cls-81{fill:#075e80;}.cls-82{fill:#075e81;}.cls-83{fill:#075d82;}.cls-84{fill:#075c83;}.cls-85{fill:#075b84;}.cls-86{fill:#075a85;}.cls-87{opacity:0.5;}.cls-88{clip-path:url(#clip-path-5);}.cls-89{clip-path:url(#clip-path-6);}.cls-90{fill:#04afa9;}.cls-91{fill:#d3d7d4;}.cls-92{fill:#6d6d6d;}.cls-93{stroke:#919191;}.cls-93,.cls-94,.cls-95{stroke-width:0.43px;}.cls-95{stroke:#04afa9;}.cls-96{fill-rule:evenodd;}.cls-97{stroke-width:2.27px;}.cls-98{fill:#121a40;}.cls-99{fill:#3d4a9c;}</style><clipPath id="clip-path"><path class="cls-1" d="M0,79A79,79,0,1,0,79,0,79,79,0,0,0,0,79"/></clipPath><clipPath id="clip-path-2"><rect class="cls-1" x="33.71" y="100.21" width="31.53" height="6.89"/></clipPath><clipPath id="clip-path-3"><path class="cls-1" d="M62,103.44H33.71v3.66H62a3.24,3.24,0,0,0,3.24-3.24v-3.65A3.23,3.23,0,0,1,62,103.44"/></clipPath><clipPath id="clip-path-5"><rect class="cls-1" x="42.07" y="97.28" width="15.46" height="3.27"/></clipPath><clipPath id="clip-path-6"><path class="cls-1" d="M56.76,97.28H42.83a.77.77,0,0,0-.76.77v1.74a.77.77,0,0,0,.76.77H56.76a.78.78,0,0,0,.77-.77V98.05a.78.78,0,0,0-.77-.77"/></clipPath></defs><title>Mesa de trabajo 21 copia 2</title><g class="cls-2"><g id="Capa_1" data-name="Capa 1"><path class="cls-3" d="M158,79A79,79,0,1,1,79,0a79,79,0,0,1,79,79"/><rect class="cls-4" x="18.77" y="59.24" width="89.55" height="58.85"/><g class="cls-5"><rect class="cls-6" x="-6.63" y="127.67" width="183.36" height="35.93"/></g><polygon class="cls-7" points="116.87 37.93 112.7 43.97 108.54 37.93 112.7 31.9 116.87 37.93"/><polygon class="cls-7" points="132.1 102.99 127.94 109.01 123.79 102.99 127.94 96.97 132.1 102.99"/><polygon class="cls-7" points="36.86 37.93 32.7 43.97 28.54 37.93 32.7 31.9 36.86 37.93"/><path class="cls-8" d="M139.77,66.49,136.29,70m0-3.47L139.77,70M75.57,23.07,72.1,26.54m0-3.47,3.47,3.47M11.34,60.17,7.86,63.64m0-3.47,3.48,3.47"/><g class="cls-9"><g class="cls-10"><g class="cls-11"><g class="cls-10"><rect class="cls-12" x="33.71" y="100.21" width="0.42" height="6.89"/><rect class="cls-13" x="34.13" y="100.21" width="0.42" height="6.89"/><rect class="cls-14" x="34.55" y="100.21" width="0.42" height="6.89"/><rect class="cls-15" x="34.97" y="100.21" width="0.42" height="6.89"/><rect class="cls-16" x="35.39" y="100.21" width="0.42" height="6.89"/><rect class="cls-17" x="35.81" y="100.21" width="0.42" height="6.89"/><rect class="cls-18" x="36.23" y="100.21" width="0.42" height="6.89"/><rect class="cls-19" x="36.66" y="100.21" width="0.42" height="6.89"/><rect class="cls-20" x="37.08" y="100.21" width="0.42" height="6.89"/><rect class="cls-21" x="37.5" y="100.21" width="0.42" height="6.89"/><rect class="cls-22" x="37.92" y="100.21" width="0.42" height="6.89"/><rect class="cls-23" x="38.34" y="100.21" width="0.42" height="6.89"/><rect class="cls-24" x="38.76" y="100.21" width="0.42" height="6.89"/><rect class="cls-25" x="39.18" y="100.21" width="0.42" height="6.89"/><rect class="cls-26" x="39.6" y="100.21" width="0.42" height="6.89"/><rect class="cls-27" x="40.02" y="100.21" width="0.42" height="6.89"/><rect class="cls-28" x="40.44" y="100.21" width="0.42" height="6.89"/><rect class="cls-29" x="40.86" y="100.21" width="0.42" height="6.89"/><rect class="cls-30" x="41.28" y="100.21" width="0.42" height="6.89"/><rect class="cls-31" x="41.7" y="100.21" width="0.42" height="6.89"/><rect class="cls-32" x="42.12" y="100.21" width="0.42" height="6.89"/><rect class="cls-33" x="42.54" y="100.21" width="0.42" height="6.89"/><rect class="cls-34" x="42.96" y="100.21" width="0.42" height="6.89"/><rect class="cls-35" x="43.38" y="100.21" width="0.42" height="6.89"/><rect class="cls-36" x="43.8" y="100.21" width="0.42" height="6.89"/><rect class="cls-37" x="44.22" y="100.21" width="0.42" height="6.89"/><rect class="cls-38" x="44.64" y="100.21" width="0.42" height="6.89"/><rect class="cls-39" x="45.06" y="100.21" width="0.42" height="6.89"/><rect class="cls-40" x="45.48" y="100.21" width="0.42" height="6.89"/><rect class="cls-41" x="45.9" y="100.21" width="0.42" height="6.89"/><rect class="cls-42" x="46.32" y="100.21" width="0.42" height="6.89"/><rect class="cls-43" x="46.74" y="100.21" width="0.42" height="6.89"/><rect class="cls-44" x="47.16" y="100.21" width="0.42" height="6.89"/><rect class="cls-45" x="47.58" y="100.21" width="0.42" height="6.89"/><rect class="cls-46" x="48" y="100.21" width="0.42" height="6.89"/><rect class="cls-47" x="48.42" y="100.21" width="0.42" height="6.89"/><rect class="cls-48" x="48.84" y="100.21" width="0.42" height="6.89"/><rect class="cls-49" x="49.27" y="100.21" width="0.42" height="6.89"/><rect class="cls-50" x="49.69" y="100.21" width="0.42" height="6.89"/><rect class="cls-51" x="50.11" y="100.21" width="0.42" height="6.89"/><rect class="cls-52" x="50.53" y="100.21" width="0.42" height="6.89"/><rect class="cls-53" x="50.95" y="100.21" width="0.42" height="6.89"/><rect class="cls-54" x="51.37" y="100.21" width="0.42" height="6.89"/><rect class="cls-55" x="51.79" y="100.21" width="0.42" height="6.89"/><rect class="cls-56" x="52.21" y="100.21" width="0.42" height="6.89"/><rect class="cls-57" x="52.63" y="100.21" width="0.42" height="6.89"/><rect class="cls-58" x="53.05" y="100.21" width="0.42" height="6.89"/><rect class="cls-59" x="53.47" y="100.21" width="0.42" height="6.89"/><rect class="cls-60" x="53.89" y="100.21" width="0.42" height="6.89"/><rect class="cls-61" x="54.31" y="100.21" width="0.42" height="6.89"/><rect class="cls-62" x="54.73" y="100.21" width="0.42" height="6.89"/><rect class="cls-63" x="55.15" y="100.21" width="0.42" height="6.89"/><rect class="cls-64" x="55.57" y="100.21" width="0.42" height="6.89"/><rect class="cls-65" x="55.99" y="100.21" width="0.42" height="6.89"/><rect class="cls-66" x="56.41" y="100.21" width="0.42" height="6.89"/><rect class="cls-67" x="56.83" y="100.21" width="0.42" height="6.89"/><rect class="cls-68" x="57.25" y="100.21" width="0.42" height="6.89"/><rect class="cls-69" x="57.67" y="100.21" width="0.42" height="6.89"/><rect class="cls-70" x="58.09" y="100.21" width="0.42" height="6.89"/><rect class="cls-71" x="58.51" y="100.21" width="0.42" height="6.89"/><rect class="cls-72" x="58.93" y="100.21" width="0.42" height="6.89"/><rect class="cls-73" x="59.35" y="100.21" width="0.42" height="6.89"/><rect class="cls-74" x="59.77" y="100.21" width="0.42" height="6.89"/><rect class="cls-75" x="60.19" y="100.21" width="0.42" height="6.89"/><rect class="cls-76" x="60.61" y="100.21" width="0.42" height="6.89"/><rect class="cls-77" x="61.03" y="100.21" width="0.42" height="6.89"/><rect class="cls-78" x="61.45" y="100.21" width="0.42" height="6.89"/><rect class="cls-79" x="61.88" y="100.21" width="0.42" height="6.89"/><rect class="cls-80" x="62.3" y="100.21" width="0.42" height="6.89"/><rect class="cls-81" x="62.72" y="100.21" width="0.42" height="6.89"/><rect class="cls-82" x="63.14" y="100.21" width="0.42" height="6.89"/><rect class="cls-83" x="63.56" y="100.21" width="0.42" height="6.89"/><rect class="cls-84" x="63.98" y="100.21" width="0.42" height="6.89"/><rect class="cls-85" x="64.4" y="100.21" width="0.42" height="6.89"/><rect class="cls-86" x="64.82" y="100.21" width="0.42" height="6.89"/></g></g></g></g><rect class="cls-7" x="43.65" y="104.67" width="0.05" height="1.07"/><rect class="cls-7" x="55.8" y="104.67" width="0.05" height="1.07"/><path class="cls-7" d="M65.24,77.14H37a3.23,3.23,0,0,0-3.24,3.23v23.07H62a3.24,3.24,0,0,0,3.24-3.23Z"/><g class="cls-87"><g class="cls-88"><g class="cls-89"><g class="cls-88"><rect class="cls-12" x="42.07" y="97.28" width="0.21" height="3.27"/><rect class="cls-13" x="42.27" y="97.28" width="0.21" height="3.27"/><rect class="cls-14" x="42.48" y="97.28" width="0.21" height="3.27"/><rect class="cls-15" x="42.68" y="97.28" width="0.21" height="3.27"/><rect class="cls-16" x="42.89" y="97.28" width="0.21" height="3.27"/><rect class="cls-17" x="43.1" y="97.28" width="0.21" height="3.27"/><rect class="cls-18" x="43.3" y="97.28" width="0.21" height="3.27"/><rect class="cls-19" x="43.51" y="97.28" width="0.21" height="3.27"/><rect class="cls-20" x="43.71" y="97.28" width="0.21" height="3.27"/><rect class="cls-21" x="43.92" y="97.28" width="0.21" height="3.27"/><rect class="cls-22" x="44.13" y="97.28" width="0.21" height="3.27"/><rect class="cls-23" x="44.33" y="97.28" width="0.21" height="3.27"/><rect class="cls-24" x="44.54" y="97.28" width="0.21" height="3.27"/><rect class="cls-25" x="44.75" y="97.28" width="0.21" height="3.27"/><rect class="cls-26" x="44.95" y="97.28" width="0.21" height="3.27"/><rect class="cls-27" x="45.16" y="97.28" width="0.21" height="3.27"/><rect class="cls-28" x="45.36" y="97.28" width="0.21" height="3.27"/><rect class="cls-29" x="45.57" y="97.28" width="0.21" height="3.27"/><rect class="cls-30" x="45.78" y="97.28" width="0.21" height="3.27"/><rect class="cls-31" x="45.98" y="97.28" width="0.21" height="3.27"/><rect class="cls-32" x="46.19" y="97.28" width="0.21" height="3.27"/><rect class="cls-33" x="46.39" y="97.28" width="0.21" height="3.27"/><rect class="cls-34" x="46.6" y="97.28" width="0.21" height="3.27"/><rect class="cls-35" x="46.81" y="97.28" width="0.21" height="3.27"/><rect class="cls-36" x="47.01" y="97.28" width="0.21" height="3.27"/><rect class="cls-37" x="47.22" y="97.28" width="0.21" height="3.27"/><rect class="cls-38" x="47.43" y="97.28" width="0.21" height="3.27"/><rect class="cls-39" x="47.63" y="97.28" width="0.21" height="3.27"/><rect class="cls-40" x="47.84" y="97.28" width="0.21" height="3.27"/><rect class="cls-41" x="48.04" y="97.28" width="0.21" height="3.27"/><rect class="cls-42" x="48.25" y="97.28" width="0.21" height="3.27"/><rect class="cls-43" x="48.46" y="97.28" width="0.21" height="3.27"/><rect class="cls-44" x="48.66" y="97.28" width="0.21" height="3.27"/><rect class="cls-45" x="48.87" y="97.28" width="0.21" height="3.27"/><rect class="cls-46" x="49.07" y="97.28" width="0.21" height="3.27"/><rect class="cls-47" x="49.28" y="97.28" width="0.21" height="3.27"/><rect class="cls-48" x="49.49" y="97.28" width="0.21" height="3.27"/><rect class="cls-49" x="49.69" y="97.28" width="0.21" height="3.27"/><rect class="cls-50" x="49.9" y="97.28" width="0.21" height="3.27"/><rect class="cls-51" x="50.11" y="97.28" width="0.21" height="3.27"/><rect class="cls-52" x="50.31" y="97.28" width="0.21" height="3.27"/><rect class="cls-53" x="50.52" y="97.28" width="0.21" height="3.27"/><rect class="cls-54" x="50.72" y="97.28" width="0.21" height="3.27"/><rect class="cls-55" x="50.93" y="97.28" width="0.21" height="3.27"/><rect class="cls-56" x="51.14" y="97.28" width="0.21" height="3.27"/><rect class="cls-57" x="51.34" y="97.28" width="0.21" height="3.27"/><rect class="cls-58" x="51.55" y="97.28" width="0.21" height="3.27"/><rect class="cls-59" x="51.75" y="97.28" width="0.21" height="3.27"/><rect class="cls-60" x="51.96" y="97.28" width="0.21" height="3.27"/><rect class="cls-61" x="52.17" y="97.28" width="0.21" height="3.27"/><rect class="cls-62" x="52.37" y="97.28" width="0.21" height="3.27"/><rect class="cls-63" x="52.58" y="97.28" width="0.21" height="3.27"/><rect class="cls-64" x="52.79" y="97.28" width="0.21" height="3.27"/><rect class="cls-65" x="52.99" y="97.28" width="0.21" height="3.27"/><rect class="cls-66" x="53.2" y="97.28" width="0.21" height="3.27"/><rect class="cls-67" x="53.4" y="97.28" width="0.21" height="3.27"/><rect class="cls-68" x="53.61" y="97.28" width="0.21" height="3.27"/><rect class="cls-69" x="53.82" y="97.28" width="0.21" height="3.27"/><rect class="cls-70" x="54.02" y="97.28" width="0.21" height="3.27"/><rect class="cls-71" x="54.23" y="97.28" width="0.21" height="3.27"/><rect class="cls-72" x="54.44" y="97.28" width="0.21" height="3.27"/><rect class="cls-73" x="54.64" y="97.28" width="0.21" height="3.27"/><rect class="cls-74" x="54.85" y="97.28" width="0.21" height="3.27"/><rect class="cls-75" x="55.05" y="97.28" width="0.21" height="3.27"/><rect class="cls-76" x="55.26" y="97.28" width="0.21" height="3.27"/><rect class="cls-77" x="55.47" y="97.28" width="0.21" height="3.27"/><rect class="cls-78" x="55.67" y="97.28" width="0.21" height="3.27"/><rect class="cls-79" x="55.88" y="97.28" width="0.21" height="3.27"/><rect class="cls-80" x="56.08" y="97.28" width="0.21" height="3.27"/><rect class="cls-81" x="56.29" y="97.28" width="0.21" height="3.27"/><rect class="cls-82" x="56.5" y="97.28" width="0.21" height="3.27"/><rect class="cls-83" x="56.7" y="97.28" width="0.21" height="3.27"/><rect class="cls-84" x="56.91" y="97.28" width="0.21" height="3.27"/><rect class="cls-85" x="57.12" y="97.28" width="0.21" height="3.27"/><rect class="cls-86" x="57.32" y="97.28" width="0.21" height="3.27"/></g></g></g></g><rect class="cls-90" x="36.32" y="84.01" width="26.48" height="0.06"/><rect class="cls-91" x="36.32" y="93.47" width="26.48" height="0.06"/><rect class="cls-91" x="46.36" y="88.66" width="16.44" height="0.06"/><rect class="cls-91" x="36.34" y="88.66" width="7.84" height="0.06"/><polygon class="cls-92" points="43.93 87.65 43.58 87.3 43.64 87.24 43.93 87.53 44.22 87.24 44.28 87.3 43.93 87.65"/><path class="cls-90" d="M62.46,82H61.3a.17.17,0,0,0-.17.17v1.16a.18.18,0,0,0,.17.17h1.16a.17.17,0,0,0,.17-.17V82.16a.16.16,0,0,0-.17-.17"/><line class="cls-93" x1="36.87" y1="82.99" x2="51.58" y2="82.99"/><line class="cls-93" x1="36.87" y1="92.45" x2="51.58" y2="92.45"/><line class="cls-93" x1="46.32" y1="87.19" x2="54.73" y2="87.19"/><line class="cls-94" x1="34.76" y1="105.06" x2="42.12" y2="105.06"/><line class="cls-94" x1="56.83" y1="105.06" x2="62.09" y2="105.06"/><line class="cls-94" x1="45.27" y1="105.06" x2="54.73" y2="105.06"/><line class="cls-95" x1="36.87" y1="87.19" x2="42.12" y2="87.19"/><path class="cls-96" d="M76.24,69.56a.63.63,0,0,0-.63.63v4.12h4.12a.64.64,0,0,0,.63-.64V69.56Zm3,3.43-2.53.45V70.89l2.53-.46Z"/><line class="cls-97" x1="82.24" y1="72.08" x2="102.45" y2="72.08"/><path class="cls-98" d="M27.93,60.06h74.93a3.81,3.81,0,0,1,3.81,3.81v53.35H24.12V63.87a3.81,3.81,0,0,1,3.81-3.81m78.74-6.35H24.1a6.35,6.35,0,0,0-6.35,6.35v63.5H113V60.06a6.35,6.35,0,0,0-6.35-6.35"/><path class="cls-7" d="M102,128.39H22.92a6.08,6.08,0,0,1-6.08-6.08h91.23a6.08,6.08,0,0,1-6.08,6.08"/><path class="cls-99" d="M134.59,128.52H50.52a6.18,6.18,0,0,1-6-6.35H140.6a6.18,6.18,0,0,1-6,6.35"/></g></g></svg>