<svg id="Capa_1" data-name="Capa 1" xmlns="http://www.w3.org/2000/svg" xmlns:xlink="http://www.w3.org/1999/xlink" viewBox="0 0 158 158"><defs><style>.cls-1,.cls-5{fill:#fff;}.cls-1{stroke:#000;}.cls-1,.cls-11,.cls-12,.cls-6{stroke-miterlimit:10;}.cls-2{mask:url(#mask);}.cls-3{fill:#45abe0;}.cls-11,.cls-12,.cls-4,.cls-6{fill:none;}.cls-6{stroke:#fff;stroke-linecap:round;stroke-width:0.72px;}.cls-7{fill:#dbdbdb;}.cls-8{fill:#3d4a9c;}.cls-9{fill:#fabf66;}.cls-10{fill:#262e61;}.cls-11{stroke:#777;}.cls-12{stroke:#45abe0;}.cls-13{fill:#ffd691;}</style><mask id="mask" x="-0.5" y="-0.9" width="159" height="183.3" maskUnits="userSpaceOnUse"><path class="cls-1" d="M150.17,112.84A79,79,0,1,1,113.24,7.43a79,79,0,0,1,36.93,105.41"/></mask></defs><title>Mesa de trabajo 21 copia</title><g class="cls-2"><path class="cls-3" d="M150.17,112.84A79,79,0,1,1,113.24,7.43a79,79,0,0,1,36.93,105.41"/><path class="cls-4" d="M7.83,44.36A79,79,0,1,0,113.24,7.43,79,79,0,0,0,7.83,44.36"/><polygon class="cls-5" points="128.86 42.51 122.52 46.15 121.37 38.93 127.71 35.29 128.86 42.51"/><polygon class="cls-5" points="124.97 124.45 118.62 128.07 117.48 120.85 123.84 117.23 124.97 124.45"/><polygon class="cls-5" points="25.51 92.84 19.16 96.46 18.02 89.23 24.38 85.61 25.51 92.84"/><path class="cls-6" d="M135.44,83.53l-4.62,1.62m1.5-3.12,1.62,4.62M79.41,10.5l-4.62,1.62M76.29,9l1.62,4.62M24.42,49.09,19.8,50.71m1.5-3.12,1.62,4.62"/><rect class="cls-5" x="50.06" y="32.6" width="56.34" height="84.54"/><rect class="cls-7" x="50.17" y="32.78" width="56.55" height="13.45"/><path class="cls-8" d="M82.9,127.59a4.7,4.7,0,1,1-4.69-4.7,4.69,4.69,0,0,1,4.69,4.7"/><path class="cls-9" d="M85.36,181l8.35,1.43c6.33.45,17.32-5.38,17.86-14.62l1.08-20.29-53.24,2.39,1.09,7.85A27.07,27.07,0,0,0,85.36,181"/><path class="cls-9" d="M65.6,145.56h0a5.89,5.89,0,0,0,6,5.75l15.5-.92a6.07,6.07,0,0,0-.7-12.1l-15.51.92a5.9,5.9,0,0,0-5.33,6.35"/><path class="cls-9" d="M106.7,159.14h0a5.88,5.88,0,0,0,6-5.83l-.36-15.53a6.07,6.07,0,0,0-12.11.28l.36,15.53a5.89,5.89,0,0,0,6.16,5.55"/><path class="cls-10" d="M101.73,23.23l-46.95,0a9.39,9.39,0,0,0-9.4,9.38l0,93.93a9.39,9.39,0,0,0,9.39,9.39l47,0a9.39,9.39,0,0,0,9.39-9.38l0-93.93A9.38,9.38,0,0,0,101.73,23.23Zm4.65,93.93-56.34,0,0-84.54,56.34,0Z"/><path class="cls-9" d="M96.16,158.87h0a5.88,5.88,0,0,0,6-5.83l-.36-15.53a6.07,6.07,0,0,0-12.11.28L90,153.32a5.89,5.89,0,0,0,6.16,5.55"/><path class="cls-9" d="M84.38,157.81h0a5.89,5.89,0,0,0,6-5.83L90,136.45a6.07,6.07,0,0,0-12.11.28l.36,15.53a5.89,5.89,0,0,0,6.16,5.55"/><circle class="cls-5" cx="78.44" cy="37.78" r="3.62"/><line class="cls-11" x1="73.96" y1="43.81" x2="82.92" y2="43.81"/><rect class="cls-7" x="54.3" y="50.71" width="34.48" height="17.24" rx="5.52" ry="5.52"/><rect class="cls-7" x="54.65" y="70.36" width="34.48" height="17.24" rx="5.52" ry="5.52"/><rect class="cls-7" x="54.65" y="92.43" width="34.48" height="17.24" rx="5.52" ry="5.52"/><line class="cls-11" x1="59.48" y1="53.81" x2="82.23" y2="53.81"/><line class="cls-11" x1="59.48" y1="58.29" x2="82.23" y2="58.29"/><line class="cls-11" x1="59.48" y1="63.12" x2="71.2" y2="63.12"/><line class="cls-12" x1="72.58" y1="63.12" x2="82.23" y2="63.12"/><line class="cls-11" x1="59.48" y1="73.81" x2="82.23" y2="73.81"/><line class="cls-11" x1="59.48" y1="78.29" x2="82.23" y2="78.29"/><line class="cls-11" x1="59.48" y1="83.12" x2="71.2" y2="83.12"/><line class="cls-12" x1="72.58" y1="83.12" x2="82.23" y2="83.12"/><line class="cls-11" x1="59.48" y1="95.88" x2="82.23" y2="95.88"/><line class="cls-11" x1="59.48" y1="100.36" x2="82.23" y2="100.36"/><line class="cls-11" x1="59.48" y1="105.19" x2="71.2" y2="105.19"/><line class="cls-12" x1="72.58" y1="105.19" x2="82.23" y2="105.19"/><path class="cls-9" d="M65.13,151.31l13.16-.24-.82-45.78a6.58,6.58,0,0,0-13.16.23Z"/><path class="cls-13" d="M74.93,107.67a4.48,4.48,0,1,1-2.09-6,4.48,4.48,0,0,1,2.09,6"/><path class="cls-9" d="M66.2,169a5.32,5.32,0,0,1-4.78-3c-3.47-7-10.54-19.53-14.78-23a5.32,5.32,0,1,1,6.79-8.19C60.79,140.85,70,159.21,71,161.29a5.33,5.33,0,0,1-2.43,7.12A5.27,5.27,0,0,1,66.2,169Z"/><path class="cls-13" d="M52.2,144.77c-1.7,1.06-4.14.22-5.45-1.88s-1-4.67.73-5.73,4.15-.21,5.45,1.89,1,4.67-.73,5.72"/></g></svg>