<svg id="Capa_1" data-name="Capa 1" xmlns="http://www.w3.org/2000/svg" viewBox="0 0 158 158"><defs><style>.cls-1{fill:#45abe0;}.cls-2{fill:#fff;}.cls-3,.cls-6{fill:none;stroke-miterlimit:10;}.cls-3{stroke:#fff;stroke-linecap:round;stroke-width:0.72px;}.cls-4{fill:#00953a;}.cls-5{fill:#dbdbdb;}.cls-6{stroke:#b7b7b7;}</style></defs><title>Mesa de trabajo 21</title><path class="cls-1" d="M158,79A79,79,0,1,1,79,0a79,79,0,0,1,79,79"/><polygon class="cls-2" points="110.86 21.01 106.71 27.03 102.55 21.01 106.71 14.99 110.86 21.01"/><polygon class="cls-2" points="134.28 107.53 130.13 113.55 125.97 107.53 130.13 101.51 134.28 107.53"/><polygon class="cls-2" points="32.65 48.85 28.5 54.87 24.35 48.85 28.5 42.83 32.65 48.85"/><path class="cls-3" d="M74.21,138.33l-3.46,3.47m0-3.47,3.46,3.47M43.32,27l-3.46,3.46m0-3.46,3.46,3.46M144.08,75.66l-3.47,3.47m0-3.47,3.47,3.47"/><path class="cls-4" d="M125.5,71.39a28.21,28.21,0,0,0-5.14-22.48h0a28.19,28.19,0,0,0-20.5-11.53l0,0L33,86.89c-8.61,6.37-10,19.27-3,28.68h0c7,9.4,19.69,11.89,28.3,5.52l67.51-49.94"/><path class="cls-2" d="M120.72,70.85A23,23,0,0,0,117,51.4h0a23,23,0,0,0-18-9.31v0L37.13,87.88a18.05,18.05,0,0,0-3.76,25.18h0a18,18,0,0,0,25.17,3.76L121,70.63"/><circle class="cls-4" cx="47.12" cy="102.88" r="10.21"/><rect class="cls-5" x="61.91" y="67.27" width="50.57" height="11.93" rx="1.26" ry="1.26" transform="translate(-26.46 66.22) rotate(-36.49)"/><ellipse class="cls-4" cx="119.56" cy="48.54" rx="2.96" ry="3.8" transform="translate(-5.43 80.62) rotate(-36.49)"/><ellipse class="cls-6" cx="126.55" cy="52.3" rx="3.38" ry="8.87" transform="translate(-6.29 85.51) rotate(-36.49)"/><path class="cls-4" d="M119.56,45.12a3.91,3.91,0,0,1,2.88,2.52c.27.81-.79,1.65-.79.66s-1.37-1.95-2-2C117.67,46.14,119.56,45.12,119.56,45.12Z"/></svg>