<svg xmlns="http://www.w3.org/2000/svg" viewBox="0 0 275.05 80.03"><defs><style>.cls-1{fill:#00af5c;}.cls-2{fill:#009b52;}.cls-3{fill:#00c67f;}.cls-4{opacity:0.63;}</style></defs><title>Banner_TC_Basica</title><g id="Capa_2" data-name="Capa 2"><g id="Capa_1-2" data-name="Capa 1"><rect class="cls-1" y="0.03" width="275" height="80" rx="5"/><path class="cls-2" d="M248.64,51.16,198.3,62a3.16,3.16,0,0,1-3.75-2.44v0l-5.95-28.63A3.21,3.21,0,0,1,191,27l50.34-10.8a3.16,3.16,0,0,1,3.75,2.44v0l5.95,28.63A3.21,3.21,0,0,1,248.64,51.16Z"/><path class="cls-3" d="M205.16,41.38l-5.68,1.23a1.42,1.42,0,0,1-1.67-1.11h0l-.95-4.59A1.44,1.44,0,0,1,198,35.19L203.63,34a1.41,1.41,0,0,1,1.67,1.1h0l.95,4.59A1.43,1.43,0,0,1,205.16,41.38Z"/><ellipse class="cls-3" cx="200.49" cy="48.05" rx="0.7" ry="0.71" transform="translate(-5.62 43.13) rotate(-12.11)"/><ellipse class="cls-3" cx="202.65" cy="47.58" rx="0.7" ry="0.71" transform="translate(-5.47 43.57) rotate(-12.11)"/><ellipse class="cls-3" cx="204.82" cy="47.12" rx="0.7" ry="0.71" transform="translate(-5.33 44.01) rotate(-12.11)"/><ellipse class="cls-3" cx="206.98" cy="46.66" rx="0.7" ry="0.71" transform="translate(-5.18 44.46) rotate(-12.11)"/><ellipse class="cls-3" cx="210.76" cy="45.85" rx="0.7" ry="0.71" transform="translate(-4.93 45.23) rotate(-12.11)"/><ellipse class="cls-3" cx="212.92" cy="45.39" rx="0.7" ry="0.71" transform="translate(-4.78 45.68) rotate(-12.11)"/><ellipse class="cls-3" cx="215.09" cy="44.92" rx="0.7" ry="0.71" transform="translate(-4.64 46.12) rotate(-12.11)"/><ellipse class="cls-3" cx="217.24" cy="44.45" rx="0.7" ry="0.71" transform="translate(-4.49 46.56) rotate(-12.11)"/><ellipse class="cls-3" cx="221.03" cy="43.64" rx="0.7" ry="0.71" transform="translate(-4.24 47.34) rotate(-12.11)"/><ellipse class="cls-3" cx="223.19" cy="43.18" rx="0.7" ry="0.71" transform="translate(-4.09 47.78) rotate(-12.11)"/><ellipse class="cls-3" cx="225.36" cy="42.72" rx="0.7" ry="0.71" transform="translate(-3.95 48.22) rotate(-12.11)"/><ellipse class="cls-3" cx="227.52" cy="42.25" rx="0.7" ry="0.71" transform="translate(-3.8 48.67) rotate(-12.11)"/><ellipse class="cls-3" cx="231.3" cy="41.44" rx="0.7" ry="0.71" transform="translate(-3.55 49.44) rotate(-12.11)"/><path class="cls-3" d="M233.32,40.28a.72.72,0,1,1-.54.85A.72.72,0,0,1,233.32,40.28Z"/><ellipse class="cls-3" cx="235.63" cy="40.51" rx="0.7" ry="0.71" transform="translate(-3.25 50.33) rotate(-12.11)"/><ellipse class="cls-3" cx="238.87" cy="39.96" rx="0.71" ry="0.72" transform="translate(-3.07 50.97) rotate(-12.1)"/><path class="cls-3" d="M191.61,45.74l3,13.78A3.25,3.25,0,0,0,198.44,62l2.92-.63s-2.76.41-3.19-1.58l-2.84-13.13a1.69,1.69,0,0,0-2-1.3Z"/><path class="cls-2" d="M187.72,69,156.21,52.59a2.22,2.22,0,0,0-3,1l-9.42,17.84,0,0a2.19,2.19,0,0,0,.93,2.94L155.59,80h28.79l4.25-8,0,0A2.19,2.19,0,0,0,187.72,69Z"/><path class="cls-3" d="M157.43,66.43l-3.56-1.84a1,1,0,0,1-.4-1.32h0L155,60.4a1,1,0,0,1,1.33-.43l3.56,1.85a1,1,0,0,1,.41,1.32h0L158.76,66A1,1,0,0,1,157.43,66.43Z"/><ellipse class="cls-3" cx="152.02" cy="67.93" rx="0.49" ry="0.49" transform="translate(21.64 171.49) rotate(-62.54)"/><ellipse class="cls-3" cx="153.37" cy="68.63" rx="0.49" ry="0.49" transform="translate(21.75 173.06) rotate(-62.54)"/><ellipse class="cls-3" cx="154.73" cy="69.34" rx="0.49" ry="0.49" transform="translate(21.85 174.65) rotate(-62.54)"/><ellipse class="cls-3" cx="156.08" cy="70.04" rx="0.49" ry="0.49" transform="translate(21.95 176.23) rotate(-62.54)"/><ellipse class="cls-3" cx="158.44" cy="71.27" rx="0.49" ry="0.49" transform="translate(22.14 178.99) rotate(-62.54)"/><ellipse class="cls-3" cx="159.8" cy="71.97" rx="0.49" ry="0.49" transform="translate(22.24 180.57) rotate(-62.54)"/><ellipse class="cls-3" cx="161.15" cy="72.68" rx="0.49" ry="0.49" transform="translate(22.35 182.16) rotate(-62.54)"/><ellipse class="cls-3" cx="162.51" cy="73.38" rx="0.49" ry="0.49" transform="translate(22.46 183.73) rotate(-62.54)"/><ellipse class="cls-3" cx="164.88" cy="74.61" rx="0.49" ry="0.49" transform="translate(22.64 186.5) rotate(-62.54)"/><ellipse class="cls-3" cx="166.23" cy="75.31" rx="0.49" ry="0.49" transform="translate(22.74 188.08) rotate(-62.54)"/><ellipse class="cls-3" cx="167.58" cy="76.02" rx="0.49" ry="0.49" transform="translate(22.85 189.66) rotate(-62.54)"/><path class="cls-3" d="M148.31,62.8l-4.48,8.63a2.24,2.24,0,0,0,1,3l1.83,1s-1.65-1-1-2.25l4.26-8.22a1.16,1.16,0,0,0-.5-1.57Z"/><g class="cls-4"><path class="cls-2" d="M173.11,0a2.18,2.18,0,0,0,1,1.09l31.51,16.38a2.2,2.2,0,0,0,3-1L217.29,0Z"/><path class="cls-3" d="M173.1,0a2.19,2.19,0,0,0,1.05,1.18l1.83.94s-1.53-.93-1-2.12Z"/><ellipse class="cls-3" cx="194.24" cy="1.34" rx="0.49" ry="0.49" transform="translate(103.47 173.07) rotate(-62.54)"/><ellipse class="cls-3" cx="195.58" cy="2.04" rx="0.49" ry="0.49" transform="translate(103.58 174.64) rotate(-62.54)"/><ellipse class="cls-3" cx="196.94" cy="2.75" rx="0.49" ry="0.49" transform="translate(103.68 176.23) rotate(-62.54)"/><ellipse class="cls-3" cx="198.3" cy="3.45" rx="0.49" ry="0.49" transform="translate(103.79 177.81) rotate(-62.54)"/><ellipse class="cls-3" cx="200.66" cy="4.68" rx="0.49" ry="0.49" transform="translate(103.97 180.57) rotate(-62.54)"/><path class="cls-3" d="M202.24,5a.49.49,0,0,1,.21.66.49.49,0,0,1-.66.21.49.49,0,0,1,.45-.87Z"/><ellipse class="cls-3" cx="203.37" cy="6.09" rx="0.49" ry="0.49" transform="translate(104.18 183.74) rotate(-62.54)"/><ellipse class="cls-3" cx="205.33" cy="7.22" rx="0.49" ry="0.49" transform="translate(104.22 186.07) rotate(-62.53)"/></g><path class="cls-2" d="M274.22,61v0a2,2,0,0,0-2.4-1.55L239.69,66.5a2.06,2.06,0,0,0-1.54,2.44L240.51,80h29.54a5,5,0,0,0,5-5V64.92Z"/><path class="cls-3" d="M248.77,75.62l-3.62.8a.9.9,0,0,1-1.07-.7h0l-.62-2.93a.92.92,0,0,1,.7-1.09l3.62-.8a.9.9,0,0,1,1.07.7h0l.62,2.93A.92.92,0,0,1,248.77,75.62Z"/><ellipse class="cls-3" cx="261.67" cy="76.4" rx="0.45" ry="0.46" transform="translate(-10.3 57.98) rotate(-12.4)"/><ellipse class="cls-3" cx="263.06" cy="76.1" rx="0.45" ry="0.46" transform="translate(-10.2 58.27) rotate(-12.4)"/><ellipse class="cls-3" cx="265.47" cy="75.57" rx="0.45" ry="0.46" transform="translate(-10.04 58.78) rotate(-12.4)"/><path class="cls-3" d="M266.75,74.82a.46.46,0,0,1,.54.35.45.45,0,1,1-.88.19A.46.46,0,0,1,266.75,74.82Z"/><ellipse class="cls-3" cx="268.23" cy="74.96" rx="0.45" ry="0.46" transform="translate(-9.84 59.36) rotate(-12.4)"/><ellipse class="cls-3" cx="270.29" cy="74.6" rx="0.45" ry="0.46" transform="translate(-9.71 59.76) rotate(-12.4)"/><path class="cls-2" d="M270.05,0H254.39l-2.51,6.36v0A2,2,0,0,0,253,9l22,8.5V5A5,5,0,0,0,270.05,0Z"/><ellipse class="cls-3" cx="271.58" cy="7.17" rx="0.46" ry="0.45" transform="translate(167.11 257.96) rotate(-68.9)"/><ellipse class="cls-3" cx="272.9" cy="7.68" rx="0.46" ry="0.45" transform="matrix(0.36, -0.93, 0.93, 0.36, 167.47, 259.51)"/><ellipse class="cls-3" cx="274.22" cy="8.19" rx="0.46" ry="0.45" transform="translate(167.84 261.07) rotate(-68.9)"/><path class="cls-3" d="M256.71,0h-2.35l-2.47,6.41a2.07,2.07,0,0,0,1.19,2.67l1.78.69s-1.62-.75-1.15-2Z"/></g></g></svg>