<svg xmlns="http://www.w3.org/2000/svg" viewBox="0 0 275 80.04"><defs><style>.cls-1{fill:#0172e0;}.cls-2{fill:#0056d0;}.cls-3{fill:#0078e5;}.cls-4{opacity:0.63;}</style></defs><title>Banner_TC_Blue</title><g id="Capa_2" data-name="Capa 2"><g id="Capa_1-2" data-name="Capa 1"><rect class="cls-1" width="275" height="80" rx="5"/><path class="cls-2" d="M248.59,51.16,198.25,62a3.16,3.16,0,0,1-3.75-2.44v0l-6-28.63A3.21,3.21,0,0,1,191,27l50.34-10.8a3.18,3.18,0,0,1,3.76,2.44v0L251,47.35A3.2,3.2,0,0,1,248.59,51.16Z"/><path class="cls-3" d="M205.11,41.38l-5.68,1.23a1.42,1.42,0,0,1-1.67-1.11h0l-.94-4.59a1.44,1.44,0,0,1,1.09-1.71L203.58,34a1.42,1.42,0,0,1,1.67,1.1h0l.95,4.59A1.43,1.43,0,0,1,205.11,41.38Z"/><ellipse class="cls-3" cx="200.44" cy="48.05" rx="0.7" ry="0.71" transform="translate(-5.62 43.12) rotate(-12.11)"/><ellipse class="cls-3" cx="202.6" cy="47.58" rx="0.7" ry="0.71" transform="translate(-5.47 43.56) rotate(-12.11)"/><ellipse class="cls-3" cx="204.77" cy="47.12" rx="0.7" ry="0.71" transform="translate(-5.33 44) rotate(-12.11)"/><ellipse class="cls-3" cx="206.92" cy="46.66" rx="0.7" ry="0.71" transform="translate(-5.18 44.44) rotate(-12.11)"/><ellipse class="cls-3" cx="210.71" cy="45.85" rx="0.7" ry="0.71" transform="translate(-4.93 45.22) rotate(-12.11)"/><ellipse class="cls-3" cx="212.87" cy="45.39" rx="0.7" ry="0.71" transform="translate(-4.78 45.66) rotate(-12.11)"/><ellipse class="cls-3" cx="215.04" cy="44.92" rx="0.7" ry="0.71" transform="translate(-4.64 46.11) rotate(-12.11)"/><ellipse class="cls-3" cx="217.19" cy="44.45" rx="0.7" ry="0.71" transform="translate(-4.49 46.55) rotate(-12.11)"/><ellipse class="cls-3" cx="220.98" cy="43.64" rx="0.7" ry="0.71" transform="translate(-4.24 47.33) rotate(-12.11)"/><ellipse class="cls-3" cx="223.14" cy="43.18" rx="0.7" ry="0.71" transform="translate(-4.09 47.77) rotate(-12.11)"/><ellipse class="cls-3" cx="225.3" cy="42.72" rx="0.7" ry="0.71" transform="translate(-3.95 48.21) rotate(-12.11)"/><ellipse class="cls-3" cx="227.47" cy="42.25" rx="0.7" ry="0.71" transform="translate(-3.8 48.66) rotate(-12.11)"/><ellipse class="cls-3" cx="231.25" cy="41.44" rx="0.7" ry="0.71" transform="translate(-3.55 49.43) rotate(-12.11)"/><path class="cls-3" d="M233.27,40.28a.71.71,0,1,1-.54.85A.7.7,0,0,1,233.27,40.28Z"/><ellipse class="cls-3" cx="235.58" cy="40.51" rx="0.7" ry="0.71" transform="translate(-3.26 50.32) rotate(-12.11)"/><ellipse class="cls-3" cx="238.81" cy="39.96" rx="0.71" ry="0.72" transform="translate(-3.07 50.96) rotate(-12.1)"/><path class="cls-3" d="M191.56,45.74l3,13.78A3.24,3.24,0,0,0,198.38,62l2.93-.63s-2.77.41-3.2-1.58l-2.83-13.13a1.7,1.7,0,0,0-2-1.3Z"/><path class="cls-2" d="M187.67,69,156.16,52.59a2.21,2.21,0,0,0-3,1l-9.42,17.84,0,0a2.18,2.18,0,0,0,.93,2.94L155.54,80h28.79l4.25-8,0,0A2.2,2.2,0,0,0,187.67,69Z"/><path class="cls-3" d="M157.38,66.43l-3.56-1.84a1,1,0,0,1-.41-1.32h0l1.51-2.86a1,1,0,0,1,1.33-.43l3.56,1.85a1,1,0,0,1,.4,1.32h0L158.71,66A1,1,0,0,1,157.38,66.43Z"/><ellipse class="cls-3" cx="151.97" cy="67.93" rx="0.49" ry="0.49" transform="translate(21.61 171.44) rotate(-62.54)"/><ellipse class="cls-3" cx="153.31" cy="68.63" rx="0.49" ry="0.49" transform="matrix(0.46, -0.89, 0.89, 0.46, 21.72, 173.02)"/><ellipse class="cls-3" cx="154.67" cy="69.34" rx="0.49" ry="0.49" transform="translate(21.82 174.61) rotate(-62.54)"/><ellipse class="cls-3" cx="156.02" cy="70.04" rx="0.49" ry="0.49" transform="translate(21.93 176.18) rotate(-62.54)"/><ellipse class="cls-3" cx="158.39" cy="71.27" rx="0.49" ry="0.49" transform="translate(22.11 178.95) rotate(-62.54)"/><ellipse class="cls-3" cx="159.75" cy="71.97" rx="0.49" ry="0.49" transform="translate(22.21 180.53) rotate(-62.54)"/><ellipse class="cls-3" cx="161.1" cy="72.68" rx="0.49" ry="0.49" transform="translate(22.32 182.11) rotate(-62.54)"/><ellipse class="cls-3" cx="162.45" cy="73.38" rx="0.49" ry="0.49" transform="translate(22.43 183.69) rotate(-62.54)"/><ellipse class="cls-3" cx="164.82" cy="74.61" rx="0.49" ry="0.49" transform="translate(22.61 186.46) rotate(-62.54)"/><ellipse class="cls-3" cx="166.17" cy="75.31" rx="0.49" ry="0.49" transform="translate(22.71 188.03) rotate(-62.54)"/><ellipse class="cls-3" cx="167.53" cy="76.02" rx="0.49" ry="0.49" transform="matrix(0.46, -0.89, 0.89, 0.46, 22.82, 189.61)"/><ellipse class="cls-3" cx="168.89" cy="76.72" rx="0.49" ry="0.49" transform="translate(22.93 191.2) rotate(-62.54)"/><ellipse class="cls-3" cx="171.25" cy="77.95" rx="0.49" ry="0.49" transform="translate(23.11 193.96) rotate(-62.54)"/><path class="cls-3" d="M172.83,78.22a.49.49,0,1,1-.66.22A.5.5,0,0,1,172.83,78.22Z"/><ellipse class="cls-3" cx="173.96" cy="79.36" rx="0.49" ry="0.49" transform="translate(23.32 197.12) rotate(-62.54)"/><path class="cls-3" d="M148.25,62.8l-4.47,8.63a2.24,2.24,0,0,0,1,3l1.83,1s-1.65-1-1-2.25l4.27-8.22a1.17,1.17,0,0,0-.5-1.57Z"/><g class="cls-4"><path class="cls-2" d="M173.05,0a2.22,2.22,0,0,0,1,1.09l31.52,16.38a2.21,2.21,0,0,0,3-1L217.24,0Z"/><path class="cls-3" d="M173.05,0a2.22,2.22,0,0,0,1,1.18l1.84.94S174.4,1.19,174.88,0Z"/><ellipse class="cls-3" cx="194.18" cy="1.34" rx="0.49" ry="0.49" transform="translate(103.45 173.02) rotate(-62.54)"/><ellipse class="cls-3" cx="195.53" cy="2.04" rx="0.49" ry="0.49" transform="translate(103.55 174.6) rotate(-62.54)"/><ellipse class="cls-3" cx="196.89" cy="2.75" rx="0.49" ry="0.49" transform="translate(103.65 176.18) rotate(-62.54)"/><ellipse class="cls-3" cx="198.24" cy="3.45" rx="0.49" ry="0.49" transform="translate(103.76 177.76) rotate(-62.54)"/><ellipse class="cls-3" cx="200.61" cy="4.68" rx="0.49" ry="0.49" transform="translate(103.94 180.53) rotate(-62.54)"/><path class="cls-3" d="M202.19,5a.48.48,0,0,1,.2.66.48.48,0,0,1-.65.21.49.49,0,0,1,.45-.87Z"/><ellipse class="cls-3" cx="203.32" cy="6.09" rx="0.49" ry="0.49" transform="translate(104.16 183.69) rotate(-62.54)"/><ellipse class="cls-3" cx="205.28" cy="7.22" rx="0.49" ry="0.49" transform="translate(104.19 186.03) rotate(-62.53)"/></g><path class="cls-2" d="M274.17,61v0a2,2,0,0,0-2.4-1.55L239.64,66.5a2.06,2.06,0,0,0-1.54,2.44L240.46,80H270a5,5,0,0,0,5-5V64.92Z"/><path class="cls-3" d="M248.72,75.62l-3.62.8a.92.92,0,0,1-1.08-.7h0l-.62-2.93a.91.91,0,0,1,.69-1.09l3.63-.8a.9.9,0,0,1,1.07.7h0l.62,2.93A.92.92,0,0,1,248.72,75.62Z"/><path class="cls-3" d="M245.66,79.44a.47.47,0,0,0-.34.55h.87a.5.5,0,0,0,0-.21A.47.47,0,0,0,245.66,79.44Z"/><ellipse class="cls-3" cx="247.13" cy="79.59" rx="0.45" ry="0.46" transform="translate(-11.33 54.93) rotate(-12.4)"/><ellipse class="cls-3" cx="248.52" cy="79.28" rx="0.45" ry="0.46" transform="translate(-11.23 55.22) rotate(-12.4)"/><ellipse class="cls-3" cx="249.9" cy="78.98" rx="0.45" ry="0.46" transform="translate(-11.13 55.51) rotate(-12.4)"/><ellipse class="cls-3" cx="252.31" cy="78.45" rx="0.45" ry="0.46" transform="translate(-10.96 56.02) rotate(-12.4)"/><ellipse class="cls-3" cx="253.69" cy="78.15" rx="0.45" ry="0.46" transform="translate(-10.86 56.31) rotate(-12.4)"/><ellipse class="cls-3" cx="255.07" cy="77.85" rx="0.45" ry="0.46" transform="translate(-10.77 56.6) rotate(-12.4)"/><ellipse class="cls-3" cx="256.45" cy="77.54" rx="0.45" ry="0.46" transform="translate(-10.67 56.89) rotate(-12.4)"/><ellipse class="cls-3" cx="258.87" cy="77.01" rx="0.45" ry="0.46" transform="matrix(0.98, -0.21, 0.21, 0.98, -10.5, 57.39)"/><ellipse class="cls-3" cx="260.24" cy="76.71" rx="0.45" ry="0.46" transform="translate(-10.4 57.68) rotate(-12.4)"/><ellipse class="cls-3" cx="261.62" cy="76.4" rx="0.45" ry="0.46" transform="translate(-10.3 57.97) rotate(-12.4)"/><ellipse class="cls-3" cx="263" cy="76.1" rx="0.45" ry="0.46" transform="translate(-10.21 58.26) rotate(-12.4)"/><ellipse class="cls-3" cx="265.42" cy="75.57" rx="0.45" ry="0.46" transform="translate(-10.04 58.77) rotate(-12.4)"/><path class="cls-3" d="M266.7,74.82a.47.47,0,0,1,.54.35.45.45,0,0,1-.34.54.44.44,0,0,1-.54-.35A.45.45,0,0,1,266.7,74.82Z"/><ellipse class="cls-3" cx="268.18" cy="74.96" rx="0.45" ry="0.46" transform="translate(-9.84 59.35) rotate(-12.4)"/><ellipse class="cls-3" cx="270.24" cy="74.6" rx="0.45" ry="0.46" transform="translate(-9.71 59.75) rotate(-12.4)"/><path class="cls-3" d="M242.46,79a1.08,1.08,0,0,0-1.29-.82l-1.09.24.34,1.55h2.26Z"/><path class="cls-2" d="M270,0H254.34l-2.51,6.36v0A2,2,0,0,0,253,9l22,8.5V5A5,5,0,0,0,270,0Z"/><ellipse class="cls-3" cx="260.33" cy="2.85" rx="0.46" ry="0.45" transform="translate(163.94 244.69) rotate(-68.9)"/><ellipse class="cls-3" cx="261.65" cy="3.36" rx="0.46" ry="0.45" transform="translate(164.31 246.25) rotate(-68.9)"/><ellipse class="cls-3" cx="262.96" cy="3.87" rx="0.46" ry="0.45" transform="translate(164.67 247.8) rotate(-68.9)"/><ellipse class="cls-3" cx="265.27" cy="4.76" rx="0.46" ry="0.45" transform="translate(165.32 250.52) rotate(-68.9)"/><ellipse class="cls-3" cx="266.59" cy="5.27" rx="0.46" ry="0.45" transform="translate(165.69 252.08) rotate(-68.9)"/><ellipse class="cls-3" cx="267.91" cy="5.78" rx="0.46" ry="0.45" transform="translate(166.05 253.63) rotate(-68.9)"/><ellipse class="cls-3" cx="269.22" cy="6.28" rx="0.46" ry="0.45" transform="translate(166.43 255.18) rotate(-68.9)"/><ellipse class="cls-3" cx="271.53" cy="7.17" rx="0.46" ry="0.45" transform="translate(167.07 257.91) rotate(-68.9)"/><ellipse class="cls-3" cx="272.84" cy="7.68" rx="0.46" ry="0.45" transform="translate(167.44 259.46) rotate(-68.9)"/><ellipse class="cls-3" cx="274.16" cy="8.19" rx="0.46" ry="0.45" transform="translate(167.81 261.02) rotate(-68.9)"/><path class="cls-3" d="M256.66,0H254.3l-2.46,6.41A2.07,2.07,0,0,0,253,9.08l1.78.69s-1.62-.75-1.15-2Z"/></g></g></svg>