<svg id="Capa_1" data-name="Capa 1" xmlns="http://www.w3.org/2000/svg" xmlns:xlink="http://www.w3.org/1999/xlink" viewBox="0 0 110 110"><defs><style>.cls-1{fill:none;}.cls-2{clip-path:url(#clip-path);}.cls-3{fill:#ffcc5e;}.cls-4{fill:#ff9e21;}.cls-5{fill:#ecbd69;}.cls-6{opacity:0.64;}</style><clipPath id="clip-path"><circle class="cls-1" cx="55" cy="55" r="55"/></clipPath></defs><title>TeOfrecemos_TCGold</title><g class="cls-2"><circle class="cls-3" cx="55" cy="55" r="55"/><path class="cls-4" d="M105.46,99.92,41.35,115.54a4.06,4.06,0,0,1-4.9-3v0L27.8,76a4.11,4.11,0,0,1,3-5L94.89,55.44a4.05,4.05,0,0,1,4.89,3l0,0L108.43,95A4.11,4.11,0,0,1,105.46,99.92Z"/><path class="cls-5" d="M49.4,88.94l-7.23,1.77A1.82,1.82,0,0,1,40,89.35h0l-1.37-5.85a1.85,1.85,0,0,1,1.33-2.23l7.24-1.77a1.82,1.82,0,0,1,2.18,1.36h0l1.38,5.85A1.85,1.85,0,0,1,49.4,88.94Z"/><ellipse class="cls-5" cx="43.66" cy="97.64" rx="0.9" ry="0.91" transform="translate(-21.88 13.12) rotate(-13.7)"/><ellipse class="cls-5" cx="46.4" cy="96.97" rx="0.9" ry="0.91" transform="translate(-21.64 13.75) rotate(-13.7)"/><ellipse class="cls-5" cx="49.17" cy="96.3" rx="0.9" ry="0.91" transform="translate(-21.41 14.38) rotate(-13.7)"/><ellipse class="cls-5" cx="51.92" cy="95.63" rx="0.9" ry="0.91" transform="translate(-21.17 15.02) rotate(-13.7)"/><ellipse class="cls-5" cx="56.74" cy="94.46" rx="0.9" ry="0.91" transform="translate(-20.76 16.12) rotate(-13.7)"/><ellipse class="cls-5" cx="59.49" cy="93.79" rx="0.9" ry="0.91" transform="translate(-20.52 16.76) rotate(-13.7)"/><ellipse class="cls-5" cx="62.25" cy="93.12" rx="0.9" ry="0.91" transform="translate(-20.28 17.39) rotate(-13.7)"/><ellipse class="cls-5" cx="64.99" cy="92.44" rx="0.9" ry="0.91" transform="translate(-20.04 18.02) rotate(-13.7)"/><ellipse class="cls-5" cx="69.82" cy="91.26" rx="0.9" ry="0.91" transform="translate(-19.63 19.13) rotate(-13.7)"/><ellipse class="cls-5" cx="72.57" cy="90.6" rx="0.9" ry="0.91" transform="translate(-19.39 19.76) rotate(-13.7)"/><ellipse class="cls-5" cx="75.33" cy="89.93" rx="0.9" ry="0.91" transform="translate(-19.15 20.4) rotate(-13.7)"/><ellipse class="cls-5" cx="78.08" cy="89.25" rx="0.9" ry="0.91" transform="translate(-18.91 21.03) rotate(-13.7)"/><ellipse class="cls-5" cx="82.9" cy="88.08" rx="0.9" ry="0.91" transform="translate(-18.5 22.14) rotate(-13.7)"/><path class="cls-5" d="M85.44,86.52a.91.91,0,0,1,1.09.68.9.9,0,1,1-1.75.43A.92.92,0,0,1,85.44,86.52Z"/><ellipse class="cls-5" cx="88.41" cy="86.73" rx="0.9" ry="0.91" transform="translate(-18.02 23.41) rotate(-13.7)"/><ellipse class="cls-5" cx="92.54" cy="85.92" rx="0.91" ry="0.92" transform="translate(-17.71 24.35) rotate(-13.69)"/><path class="cls-5" d="M32.2,95l4.3,17.55a4.15,4.15,0,0,0,5,3l3.73-.91s-3.53.63-4.15-1.91L37,96.06a2.17,2.17,0,0,0-2.62-1.59Z"/><path class="cls-4" d="M39.67,61.58,7.08,59.24a2,2,0,0,1-1.86-2.15v0l1.45-18.5a2,2,0,0,1,2.15-1.89L41.42,39a2,2,0,0,1,1.86,2.15v0l-1.45,18.5A2,2,0,0,1,39.67,61.58Z"/><path class="cls-5" d="M14.9,47.92l-3.67-.26a.9.9,0,0,1-.83-1h0l.24-3a.92.92,0,0,1,1-.85l3.67.27a.9.9,0,0,1,.83,1h0l-.24,3A.92.92,0,0,1,14.9,47.92Z"/><ellipse class="cls-5" cx="10.88" cy="51.15" rx="0.45" ry="0.45" transform="matrix(0.07, -1, 1, 0.07, -40.92, 58.33)"/><ellipse class="cls-5" cx="12.27" cy="51.25" rx="0.45" ry="0.45" transform="translate(-39.72 59.82) rotate(-85.89)"/><ellipse class="cls-5" cx="13.68" cy="51.35" rx="0.45" ry="0.45" transform="translate(-38.52 61.32) rotate(-85.89)"/><ellipse class="cls-5" cx="15.08" cy="51.45" rx="0.45" ry="0.45" transform="translate(-37.33 62.8) rotate(-85.89)"/><ellipse class="cls-5" cx="17.52" cy="51.63" rx="0.45" ry="0.45" transform="translate(-35.23 65.41) rotate(-85.89)"/><ellipse class="cls-5" cx="18.93" cy="51.73" rx="0.45" ry="0.45" transform="translate(-34.03 66.9) rotate(-85.89)"/><ellipse class="cls-5" cx="20.33" cy="51.83" rx="0.45" ry="0.45" transform="translate(-32.83 68.4) rotate(-85.89)"/><ellipse class="cls-5" cx="21.72" cy="51.93" rx="0.45" ry="0.45" transform="translate(-31.63 69.88) rotate(-85.89)"/><ellipse class="cls-5" cx="24.18" cy="52.11" rx="0.45" ry="0.45" transform="translate(-29.53 72.49) rotate(-85.89)"/><ellipse class="cls-5" cx="25.57" cy="52.21" rx="0.45" ry="0.45" transform="translate(-28.33 73.98) rotate(-85.89)"/><ellipse class="cls-5" cx="26.98" cy="52.31" rx="0.45" ry="0.45" transform="matrix(0.07, -1, 1, 0.07, -27.13, 75.47)"/><ellipse class="cls-5" cx="28.38" cy="52.41" rx="0.45" ry="0.45" transform="translate(-25.92 76.96) rotate(-85.89)"/><ellipse class="cls-5" cx="30.83" cy="52.59" rx="0.45" ry="0.45" transform="translate(-23.83 79.57) rotate(-85.89)"/><path class="cls-5" d="M32.26,52.24a.44.44,0,0,1,.41.48.44.44,0,0,1-.47.42.45.45,0,1,1,.06-.9Z"/><ellipse class="cls-5" cx="33.63" cy="52.79" rx="0.45" ry="0.45" transform="translate(-21.43 82.55) rotate(-85.89)"/><ellipse class="cls-5" cx="35.7" cy="53.03" rx="0.45" ry="0.45" transform="translate(-19.75 84.83) rotate(-85.89)"/><path class="cls-5" d="M5.87,48.17,5.24,57.1a2.07,2.07,0,0,0,1.91,2.2L9,59.43s-1.76-.24-1.66-1.53L8,49.4a1.08,1.08,0,0,0-1-1.15Z"/><g class="cls-6"><path class="cls-4" d="M47.56,21.12,28.29,26.51a1.23,1.23,0,0,1-1.51-.85v0l-3-11a1.26,1.26,0,0,1,.85-1.54L43.9,7.76a1.22,1.22,0,0,1,1.51.85v0l3,11A1.25,1.25,0,0,1,47.56,21.12Z"/><path class="cls-5" d="M30.46,18.37,28.29,19a.56.56,0,0,1-.68-.39h0l-.47-1.76a.55.55,0,0,1,.38-.69l2.17-.61a.56.56,0,0,1,.68.39h0l.47,1.76A.55.55,0,0,1,30.46,18.37Z"/><circle class="cls-5" cx="28.81" cy="21.06" r="0.27" transform="translate(-4.61 8.54) rotate(-15.63)"/><circle class="cls-5" cx="29.64" cy="20.83" r="0.27" transform="translate(-4.52 8.75) rotate(-15.63)"/><circle class="cls-5" cx="30.47" cy="20.6" r="0.27" transform="matrix(0.96, -0.27, 0.27, 0.96, -4.42, 8.97)"/><circle class="cls-5" cx="31.29" cy="20.37" r="0.27" transform="translate(-4.33 9.18) rotate(-15.63)"/><circle class="cls-5" cx="32.74" cy="19.97" r="0.27" transform="translate(-4.17 9.56) rotate(-15.63)"/><circle class="cls-5" cx="33.57" cy="19.74" r="0.27" transform="matrix(0.96, -0.27, 0.27, 0.96, -4.08, 9.77)"/><circle class="cls-5" cx="34.4" cy="19.51" r="0.27" transform="translate(-3.98 9.99) rotate(-15.63)"/><circle class="cls-5" cx="35.22" cy="19.27" r="0.27" transform="matrix(0.96, -0.27, 0.27, 0.96, -3.89, 10.2)"/><circle class="cls-5" cx="36.67" cy="18.87" r="0.27" transform="matrix(0.96, -0.27, 0.27, 0.96, -3.73, 10.58)"/><circle class="cls-5" cx="37.5" cy="18.64" r="0.27" transform="translate(-3.63 10.79) rotate(-15.63)"/><circle class="cls-5" cx="38.33" cy="18.4" r="0.27" transform="translate(-3.54 11.01) rotate(-15.63)"/><circle class="cls-5" cx="39.15" cy="18.17" r="0.27" transform="translate(-3.45 11.22) rotate(-15.63)"/><circle class="cls-5" cx="40.6" cy="17.77" r="0.27" transform="translate(-3.29 11.6) rotate(-15.63)"/><path class="cls-5" d="M41.36,17.27a.27.27,0,0,1,.14.53.26.26,0,0,1-.33-.19A.27.27,0,0,1,41.36,17.27Z"/><circle class="cls-5" cx="42.26" cy="17.3" r="0.27" transform="translate(-3.1 12.02) rotate(-15.63)"/><circle class="cls-5" cx="43.5" cy="17.01" r="0.27" transform="translate(-2.98 12.34) rotate(-15.62)"/><path class="cls-5" d="M25.31,20.38l1.48,5.28a1.26,1.26,0,0,0,1.56.87l1.12-.32s-1.07.23-1.28-.53l-1.41-5A.65.65,0,0,0,26,20.2Z"/></g><g class="cls-6"><path class="cls-4" d="M91.55,48.11,64.47,39.75a1.74,1.74,0,0,1-1.14-2.18v0L68.18,22.2A1.77,1.77,0,0,1,70.37,21l27.08,8.37a1.74,1.74,0,0,1,1.15,2.17v0L93.74,46.94A1.76,1.76,0,0,1,91.55,48.11Z"/><path class="cls-5" d="M73.3,31.72l-3-.94a.78.78,0,0,1-.51-1h0l.78-2.46a.79.79,0,0,1,1-.52l3,.94a.78.78,0,0,1,.51,1h0l-.78,2.46A.8.8,0,0,1,73.3,31.72Z"/><ellipse class="cls-5" cx="69.27" cy="33.66" rx="0.39" ry="0.39" transform="translate(16.67 89.92) rotate(-72.85)"/><ellipse class="cls-5" cx="70.43" cy="34.02" rx="0.39" ry="0.39" transform="translate(17.15 91.28) rotate(-72.85)"/><ellipse class="cls-5" cx="71.6" cy="34.38" rx="0.39" ry="0.39" transform="translate(17.63 92.65) rotate(-72.85)"/><ellipse class="cls-5" cx="72.76" cy="34.74" rx="0.39" ry="0.39" transform="translate(18.1 94.02) rotate(-72.85)"/><ellipse class="cls-5" cx="74.79" cy="35.37" rx="0.39" ry="0.39" transform="translate(18.94 96.4) rotate(-72.85)"/><ellipse class="cls-5" cx="75.96" cy="35.73" rx="0.39" ry="0.39" transform="matrix(0.29, -0.96, 0.96, 0.29, 19.41, 97.77)"/><ellipse class="cls-5" cx="77.12" cy="36.09" rx="0.39" ry="0.39" transform="translate(19.89 99.14) rotate(-72.85)"/><ellipse class="cls-5" cx="78.28" cy="36.44" rx="0.39" ry="0.39" transform="translate(20.37 100.49) rotate(-72.85)"/><ellipse class="cls-5" cx="80.32" cy="37.07" rx="0.39" ry="0.39" transform="translate(21.21 102.89) rotate(-72.85)"/><ellipse class="cls-5" cx="81.48" cy="37.43" rx="0.39" ry="0.39" transform="translate(21.68 104.25) rotate(-72.85)"/><ellipse class="cls-5" cx="82.64" cy="37.79" rx="0.39" ry="0.39" transform="translate(22.16 105.61) rotate(-72.85)"/><ellipse class="cls-5" cx="83.81" cy="38.15" rx="0.39" ry="0.39" transform="translate(22.64 106.98) rotate(-72.85)"/><ellipse class="cls-5" cx="85.84" cy="38.78" rx="0.39" ry="0.39" transform="translate(23.47 109.37) rotate(-72.85)"/><path class="cls-5" d="M87.12,38.77a.39.39,0,0,1,.26.49.4.4,0,0,1-.49.26.39.39,0,0,1-.25-.49A.38.38,0,0,1,87.12,38.77Z"/><ellipse class="cls-5" cx="88.17" cy="39.5" rx="0.39" ry="0.39" transform="translate(24.43 112.1) rotate(-72.85)"/><ellipse class="cls-5" cx="89.87" cy="40.11" rx="0.39" ry="0.39" transform="matrix(0.3, -0.96, 0.96, 0.3, 25.04, 114.14)"/><path class="cls-5" d="M65.62,30.17l-2.28,7.41a1.78,1.78,0,0,0,1.18,2.23l1.58.49s-1.44-.55-1.11-1.62l2.17-7.07a.93.93,0,0,0-.61-1.16Z"/></g></g></svg>