<svg xmlns="http://www.w3.org/2000/svg" xmlns:xlink="http://www.w3.org/1999/xlink" viewBox="0 0 110 110"><defs><style>.cls-1{fill:none;}.cls-2{clip-path:url(#clip-path);}.cls-3{fill:#e9f0f6;}.cls-4{fill:#253b80;}.cls-5{fill:#179bd7;}.cls-6{fill:#222d65;}</style><clipPath id="clip-path"><circle class="cls-1" cx="55" cy="55" r="55"/></clipPath></defs><title>TeOfrecemos_PayPal</title><g id="Capa_3" data-name="Capa 3"><g class="cls-2"><circle class="cls-3" cx="55" cy="55" r="55"/><path class="cls-4" d="M32.75,76.22H28.19a.62.62,0,0,0-.62.53L25.73,88.43a.38.38,0,0,0,.37.44h2.18a.63.63,0,0,0,.62-.54l.5-3.15a.63.63,0,0,1,.62-.53h1.44c3,0,4.74-1.45,5.19-4.33a3.52,3.52,0,0,0-.58-2.94A4.24,4.24,0,0,0,32.75,76.22Zm.52,4.26c-.25,1.64-1.49,1.64-2.7,1.64h-.69l.48-3.05a.38.38,0,0,1,.38-.32h.31c.83,0,1.6,0,2,.46A1.52,1.52,0,0,1,33.27,80.48Z"/><path class="cls-4" d="M46.36,80.43H44.18a.38.38,0,0,0-.37.32l-.1.61-.15-.22A3.1,3.1,0,0,0,41,80.23a5,5,0,0,0-4.87,4.38A4.12,4.12,0,0,0,36.92,88a3.41,3.41,0,0,0,2.75,1.11,4.18,4.18,0,0,0,3-1.25l-.1.61a.39.39,0,0,0,.38.44h2a.64.64,0,0,0,.63-.54l1.18-7.46A.38.38,0,0,0,46.36,80.43Zm-3,4.25a2.43,2.43,0,0,1-2.46,2.08,1.81,1.81,0,0,1-1.46-.59,1.83,1.83,0,0,1-.34-1.53,2.43,2.43,0,0,1,2.44-2.1,1.82,1.82,0,0,1,1.45.59A1.86,1.86,0,0,1,43.32,84.68Z"/><path class="cls-4" d="M58,80.43H55.79a.63.63,0,0,0-.53.28l-3,4.45L51,80.88a.63.63,0,0,0-.61-.45H48.2a.38.38,0,0,0-.36.5L50.25,88,48,91.22a.38.38,0,0,0,.31.6h2.19a.63.63,0,0,0,.52-.27L58.29,81A.38.38,0,0,0,58,80.43Z"/><path class="cls-5" d="M65.24,76.22H60.68a.62.62,0,0,0-.62.53L58.21,88.43a.39.39,0,0,0,.38.44h2.34a.44.44,0,0,0,.43-.37l.52-3.32a.64.64,0,0,1,.63-.53H64c3,0,4.73-1.45,5.19-4.33a3.52,3.52,0,0,0-.59-2.94A4.2,4.2,0,0,0,65.24,76.22Zm.52,4.26c-.25,1.64-1.5,1.64-2.7,1.64h-.69l.48-3.05a.38.38,0,0,1,.38-.32h.31c.82,0,1.6,0,2,.46A1.52,1.52,0,0,1,65.76,80.48Z"/><path class="cls-5" d="M78.85,80.43H76.67a.37.37,0,0,0-.37.32l-.1.61-.15-.22a3.11,3.11,0,0,0-2.58-.91,5,5,0,0,0-4.87,4.38A4.12,4.12,0,0,0,69.41,88a3.41,3.41,0,0,0,2.75,1.11,4.18,4.18,0,0,0,3-1.25l-.1.61a.38.38,0,0,0,.38.44h2a.64.64,0,0,0,.63-.54l1.18-7.46A.39.39,0,0,0,78.85,80.43Zm-3,4.25a2.43,2.43,0,0,1-2.46,2.08,1.85,1.85,0,0,1-1.47-.59,1.87,1.87,0,0,1-.34-1.53A2.44,2.44,0,0,1,74,82.54a1.82,1.82,0,0,1,1.45.59A1.9,1.9,0,0,1,75.81,84.68Z"/><path class="cls-5" d="M81.42,76.54,79.55,88.43a.38.38,0,0,0,.38.44h1.88a.63.63,0,0,0,.62-.54l1.84-11.67a.38.38,0,0,0-.37-.44H81.8A.38.38,0,0,0,81.42,76.54Z"/><path class="cls-4" d="M45.35,69.12l.91-5.8-2,0H34.51l6.75-42.83a.55.55,0,0,1,.55-.47H58.2c5.44,0,9.2,1.13,11.16,3.37a7.68,7.68,0,0,1,1.79,3.35,12.24,12.24,0,0,1,0,4.62l0,.13v1.18l.92.52a6.43,6.43,0,0,1,1.86,1.42A6.73,6.73,0,0,1,75.43,38a14.2,14.2,0,0,1-.22,4.91,17.19,17.19,0,0,1-2,5.56A11.3,11.3,0,0,1,70,51.92a12.76,12.76,0,0,1-4.29,1.93,21.11,21.11,0,0,1-5.37.63H59.07a3.82,3.82,0,0,0-3.79,3.23l-.1.53L53.57,68.47l-.07.37a.32.32,0,0,1-.11.22.23.23,0,0,1-.16.06Z"/><path class="cls-5" d="M72.93,31.58h0c-.05.31-.11.63-.17,1-2.16,11.09-9.56,14.93-19,14.93H49a2.34,2.34,0,0,0-2.31,2h0L44.18,65.06l-.7,4.43a1.24,1.24,0,0,0,1.22,1.42h8.53a2,2,0,0,0,2-1.73l.09-.43,1.6-10.19.11-.56a2,2,0,0,1,2-1.74h1.28c8.26,0,14.73-3.35,16.62-13.06.79-4.06.38-7.44-1.71-9.82A7.93,7.93,0,0,0,72.93,31.58Z"/><path class="cls-6" d="M70.67,30.67l-1-.26-1.09-.2a26.51,26.51,0,0,0-4.23-.31H51.48a2,2,0,0,0-.89.2,2.06,2.06,0,0,0-1.14,1.53L46.72,48.94l-.08.51a2.34,2.34,0,0,1,2.31-2h4.81c9.44,0,16.84-3.84,19-14.93.06-.33.12-.65.17-1a11.46,11.46,0,0,0-1.78-.75Z"/><path class="cls-4" d="M49.45,31.63a2.06,2.06,0,0,1,1.14-1.53,2,2,0,0,1,.89-.2H64.33a26.51,26.51,0,0,1,4.23.31l1.09.2q.52.12,1,.27l.48.15a11.46,11.46,0,0,1,1.78.75c.64-4.11,0-6.9-2.22-9.43-2.45-2.78-6.86-4-12.51-4H41.81a2.34,2.34,0,0,0-2.31,2L32.67,63.43a1.41,1.41,0,0,0,1.39,1.63H44.18l2.54-16.12Z"/></g></g></svg>