<?xml version="1.0" encoding="utf-8"?>
<!-- Generator: Adobe Illustrator 22.1.0, SVG Export Plug-In . SVG Version: 6.00 Build 0)  -->
<svg version="1.1" id="Capa_1" xmlns="http://www.w3.org/2000/svg" xmlns:xlink="http://www.w3.org/1999/xlink" x="0px" y="0px"
	 viewBox="0 0 110 110" style="enable-background:new 0 0 110 110;" xml:space="preserve">
<style type="text/css">
	.st0{clip-path:url(#SVGID_2_);}
	.st1{fill:#00D6E9;}
	.st2{fill:#00CCD9;}
	.st3{fill:#B2EEF9;}
	.st4{opacity:0.66;}
	.st5{opacity:0.42;}
</style>
<title>TeOfrecemos_AmpliacioCredito</title>
<g>
	<defs>
		<circle id="SVGID_1_" cx="55" cy="55" r="55"/>
	</defs>
	<clipPath id="SVGID_2_">
		<use xlink:href="#SVGID_1_"  style="overflow:visible;"/>
	</clipPath>
	<g class="st0">
		<circle class="st1" cx="55" cy="55" r="55"/>
		<path class="st2" d="M58.9,59.5c-0.9-0.1-1.7,0-2.5,0.3L0.7,76.6c-3.5,1.1-5.5,4.8-4.5,8.3L5.3,115c1.1,3.5,4.8,5.5,8.4,4.5
			l55.7-16.8c3.6-1.1,5.6-4.8,4.5-8.4l-9-30c-0.5-1.6-1.6-3-3-3.9"/>
		<path class="st3" d="M46.3,80.7c0.6-0.6,1.6-0.5,2.2,0.1c0.5,0.6,0.5,1.5,0,2.1c-1.2,1.3-2.5,2.5-3.9,3.6
			c-0.2,0.1-0.4,0.2-0.6,0.3c-0.6,0.2-1.2-0.1-1.6-0.5c-0.5-0.7-0.4-1.6,0.2-2.2C43.8,83.1,45.1,81.9,46.3,80.7z"/>
		<path class="st3" d="M56.6,69.4c0.7,0.4,0.9,1.3,0.6,2c-0.9,1.6-1.9,3-2.8,4.5c-0.2,0.3-0.5,0.5-0.8,0.6c-0.5,0.1-1,0-1.4-0.2
			c-0.7-0.5-0.9-1.4-0.4-2.1c0.9-1.4,1.9-2.8,2.7-4.2C54.9,69.2,55.8,68.9,56.6,69.4L56.6,69.4z"/>
		<path class="st3" d="M37.2,89.7c0.5,0.7,0.4,1.6-0.3,2.1c0,0,0,0,0,0c-1.5,0.9-3.1,1.7-4.7,2.4H32c-0.7,0.2-1.5-0.1-1.8-0.8
			c-0.3-0.8,0-1.6,0.8-2c1.6-0.7,3.1-1.4,4.6-2.3C36.1,89,36.8,89.2,37.2,89.7z"/>
		<path class="st3" d="M24.4,95.4c0.3,0.8,0,1.7-0.8,2l0,0l-4.8,1.5c-0.8,0.1-1.6-0.6-1.6-1.4c0-0.6,0.3-1.1,0.8-1.4l4.8-1.4
			C23.5,94.4,24.1,94.8,24.4,95.4z"/>
		<path class="st3" d="M72.3,49.5c0.3,0.7,0.1,1.6-0.6,2l-0.2,0.1c-0.7,0.2-1.5-0.1-1.8-0.8l-2.4-5.1L66,49.3c-0.1,0.5-0.5,0.9-1,1
			c-0.3,0.1-0.6,0.1-0.9,0l-0.1,0c-0.8-0.3-1.1-1.1-0.9-1.9l0,0l1.2-3.8L59.2,47c-0.8,0.3-1.7-0.1-2-0.9c-0.3-0.7,0-1.5,0.7-1.9l0,0
			l8.4-3.9c0.8-0.3,1.6,0,2,0.8L72.3,49.5z"/>
		<path class="st3" d="M9.9,101.6L2,104l-0.9-3L9,98.7c0.8-0.2,1.6,0.2,1.9,1l0,0C11.1,100.5,10.7,101.3,9.9,101.6L9.9,101.6z"/>
		<path class="st3" d="M57.8,62.1l2-5.1c0.3-0.8,1.2-1.1,2-0.8l0.3,0.1c0.8,0.3,1.1,1.2,0.8,2l-2,5.1c-0.3,0.8-1.2,1.1-2,0.8
			l-0.3-0.1C57.9,63.8,57.5,62.9,57.8,62.1z"/>
		<rect x="2.4" y="96.8" transform="matrix(0.9575 -0.2885 0.2885 0.9575 -27.1724 15.2591)" class="st3" width="71.6" height="6"/>
		<path class="st3" d="M16,90.9l-2.6-8.8c-0.3-0.8-1.1-1.2-1.9-1l0,0l-8.8,2.6c-0.8,0.3-1.2,1.1-1,1.9l0,0l2.6,8.8
			c0.3,0.8,1.1,1.2,1.9,1l8.8-2.6C15.7,92.5,16.2,91.7,16,90.9z"/>
		<g class="st4">
			<path class="st2" d="M31.1,28.7c-0.4,0.1-0.8,0.2-1.1,0.4L7.3,42.7c-1.4,0.9-1.9,2.7-1.1,4.2l7.3,12.3c0.9,1.4,2.8,1.9,4.2,1
				l22.7-13.5c1.4-0.9,1.9-2.7,1.1-4.2l-7.3-12.2c-0.4-0.7-1-1.2-1.8-1.4"/>
			<path class="st3" d="M27.9,39.5c0.2-0.3,0.7-0.4,1-0.2c0,0,0,0,0,0c0.3,0.2,0.4,0.6,0.2,0.9c-0.4,0.7-0.9,1.4-1.3,2
				c-0.1,0.1-0.1,0.1-0.2,0.2c-0.2,0.1-0.5,0.1-0.8-0.1c-0.3-0.2-0.4-0.7-0.1-1C27.1,40.7,27.5,40,27.9,39.5L27.9,39.5z"/>
			<path class="st3" d="M31.2,33.3c0.4,0.1,0.6,0.5,0.5,0.8c-0.2,0.8-0.5,1.5-0.8,2.3c0,0.1-0.1,0.3-0.3,0.3c-0.2,0.1-0.4,0.1-0.6,0
				c-0.4-0.1-0.5-0.5-0.4-0.9c0.3-0.7,0.5-1.5,0.7-2.2C30.4,33.4,30.8,33.2,31.2,33.3C31.1,33.2,31.1,33.2,31.2,33.3L31.2,33.3z"/>
			<path class="st3" d="M24.9,44.4c0.3,0.2,0.4,0.6,0.2,0.9c0,0,0,0-0.1,0.1c-0.6,0.6-1.2,1.1-1.8,1.6h-0.1
				c-0.3,0.2-0.7,0.1-0.9-0.1c-0.2-0.3-0.2-0.7,0.1-1c0.6-0.5,1.2-1,1.8-1.5C24.3,44.2,24.7,44.2,24.9,44.4z"/>
			<path class="st3" d="M19.9,48.3c0.2,0.3,0.2,0.7-0.1,1c0,0,0,0,0,0l0,0l-2,1.2c-0.4,0.2-0.8,0-0.9-0.3c-0.1-0.3,0-0.7,0.2-0.8
				l2-1.2C19.3,48,19.7,48.1,19.9,48.3z"/>
			<path class="st3" d="M35.9,22.8c0.2,0.3,0.2,0.7-0.1,1l-0.1,0c-0.3,0.2-0.7,0.1-0.9-0.1l-1.6-2l-0.2,1.8c0,0.2-0.1,0.4-0.3,0.5
				c-0.1,0.1-0.3,0.1-0.4,0.1l0,0c-0.4,0-0.6-0.4-0.6-0.7c0,0,0,0,0,0l0,0l0.1-1.8l-2,1.6c-0.3,0.2-0.8,0.2-1-0.1s-0.2-0.8,0.1-1
				l0,0l0,0l3.3-2.7c0.3-0.2,0.7-0.2,1,0.1L35.9,22.8z"/>
			<path class="st3" d="M14.1,52.7L11,54.6l-0.7-1.2l3.2-1.9c0.3-0.2,0.7-0.1,0.9,0.2c0,0,0,0,0,0l0,0c0.2,0.3,0.1,0.7-0.2,1
				C14.2,52.7,14.2,52.7,14.1,52.7L14.1,52.7z"/>
			<path class="st3" d="M30.9,30l0.3-2.5c0.1-0.4,0.4-0.6,0.8-0.6l0.1,0c0.4,0.1,0.6,0.4,0.6,0.8l-0.3,2.5c-0.1,0.4-0.4,0.6-0.8,0.6
				l-0.1,0C31.1,30.7,30.9,30.3,30.9,30z"/>
			
				<rect x="10.1" y="47.4" transform="matrix(0.8582 -0.5134 0.5134 0.8582 -21.2872 20.4867)" class="st3" width="32.6" height="2.8"/>
			<path class="st3" d="M15.6,47.3l-2.1-3.6c-0.2-0.3-0.6-0.4-0.9-0.2c0,0,0,0,0,0l0,0L9,45.6c-0.3,0.2-0.5,0.6-0.3,1c0,0,0,0,0,0
				l0,0l2.1,3.6c0.2,0.3,0.6,0.5,1,0.3c0,0,0,0,0,0l3.6-2.1C15.8,48.1,15.9,47.6,15.6,47.3z"/>
		</g>
		<g class="st5">
			<path class="st2" d="M98.6,60.1c-0.2,0-0.5,0.1-0.7,0.3L83,69.3c-0.9,0.6-1.3,1.8-0.7,2.7l4.8,8c0.6,0.9,1.8,1.3,2.7,0.7
				l14.9-8.9c0.9-0.6,1.3-1.8,0.7-2.7l-4.8-8c-0.3-0.4-0.7-0.8-1.2-0.9"/>
			<path class="st3" d="M96.5,67.2c0.1-0.2,0.4-0.3,0.6-0.1c0,0,0,0,0,0c0.2,0.1,0.2,0.4,0.2,0.6c-0.3,0.5-0.6,0.9-0.9,1.3
				c0,0-0.1,0.1-0.1,0.1c-0.2,0.1-0.3,0.1-0.5,0c-0.2-0.2-0.2-0.4-0.1-0.6C96,68.1,96.2,67.7,96.5,67.2L96.5,67.2z"/>
			<path class="st3" d="M98.6,63.2c0.2,0.1,0.4,0.3,0.3,0.5c-0.1,0.5-0.3,1-0.5,1.5c0,0.1-0.1,0.2-0.2,0.2c-0.1,0.1-0.3,0.1-0.4,0
				c-0.2-0.1-0.4-0.3-0.3-0.6c0.2-0.5,0.3-1,0.5-1.4C98.1,63.2,98.4,63.1,98.6,63.2C98.6,63.1,98.6,63.1,98.6,63.2L98.6,63.2z"/>
			<path class="st3" d="M94.5,70.4c0.2,0.2,0.2,0.4,0.1,0.6c-0.4,0.4-0.8,0.7-1.2,1l0,0c-0.2,0.1-0.4,0.1-0.6-0.1
				c-0.1-0.2-0.1-0.5,0.1-0.6c0.4-0.3,0.8-0.6,1.2-1C94.2,70.3,94.4,70.3,94.5,70.4z"/>
			<path class="st3" d="M91.2,73c0.2,0.2,0.1,0.5-0.1,0.6c0,0,0,0,0,0l0,0l-1.3,0.8c-0.2,0.1-0.5,0-0.6-0.2c-0.1-0.2,0-0.4,0.1-0.6
				l1.3-0.8C90.9,72.8,91.1,72.8,91.2,73z"/>
			<path class="st3" d="M101.8,56.2c0.2,0.2,0.2,0.5,0,0.6l0,0c-0.2,0.1-0.4,0.1-0.6-0.1l-1.2-1.3l-0.1,1.2c0,0.1-0.1,0.3-0.2,0.3
				c-0.1,0.1-0.2,0.1-0.3,0.1l0,0c-0.2,0-0.4-0.2-0.4-0.5c0,0,0,0,0,0l0,0l0.1-1.2l-1.3,1.1c-0.2,0.2-0.5,0.2-0.7,0s-0.2-0.5,0-0.7
				c0,0,0.1-0.1,0.1-0.1l0,0l2.1-1.8c0.2-0.1,0.5-0.1,0.6,0.1L101.8,56.2z"/>
			<path class="st3" d="M87.5,75.8l-2.1,1.2l-0.5-0.8l2.1-1.2c0.2-0.1,0.5-0.1,0.6,0.1c0,0,0,0,0,0l0,0
				C87.8,75.4,87.7,75.7,87.5,75.8L87.5,75.8z"/>
			<path class="st3" d="M98.5,61l0.2-1.6c0-0.2,0.3-0.4,0.5-0.4l0.1,0c0.2,0,0.4,0.3,0.4,0.5l-0.2,1.6c0,0.2-0.3,0.4-0.5,0.4l-0.1,0
				C98.6,61.4,98.4,61.2,98.5,61z"/>
			
				<rect x="84.9" y="72.4" transform="matrix(0.8582 -0.5134 0.5134 0.8582 -24.0658 59.4373)" class="st3" width="21.3" height="1.8"/>
			<path class="st3" d="M88.5,72.3L87.1,70c-0.1-0.2-0.4-0.3-0.6-0.2l0,0l-2.4,1.4c-0.2,0.1-0.3,0.4-0.2,0.6c0,0,0,0,0,0l0,0
				l1.4,2.3c0.1,0.2,0.4,0.3,0.6,0.2c0,0,0,0,0,0l2.3-1.4C88.5,72.8,88.6,72.5,88.5,72.3z"/>
		</g>
	</g>
</g>
</svg>
