<svg id="Capa_1" data-name="Capa 1" xmlns="http://www.w3.org/2000/svg" xmlns:xlink="http://www.w3.org/1999/xlink" viewBox="0 0 110 110"><defs><style>.cls-1{fill:none;}.cls-2{clip-path:url(#clip-path);}.cls-3{fill:#55ca80;}.cls-4{opacity:0.57;}.cls-5{fill:#6ad48a;}.cls-6{fill:#8de6a4;}.cls-7{fill:#4de8ae;}.cls-8{opacity:0.58;}.cls-9{fill:#2db866;}.cls-10{fill:#3bc073;}</style><clipPath id="clip-path"><circle class="cls-1" cx="55" cy="55" r="55"/></clipPath></defs><title>TeOfrecemos_Extracash</title><g class="cls-2"><circle class="cls-3" cx="55" cy="55" r="55"/><circle class="cls-1" cx="55" cy="55" r="55"/><g class="cls-4"><path class="cls-5" d="M49.79,6.17l-.26,9.61,18.86.5.25-9.62Zm1.28,1.25,6.73.17a3.85,3.85,0,0,0-.19,7.18l-6.73-.17ZM67.1,15l-6.73-.18a3.84,3.84,0,0,0,.19-7.18l6.73.17Z"/><path class="cls-6" d="M57.61,14.77a3.85,3.85,0,0,1,.19-7.18l-6.73-.17-.19,7.18Z"/><path class="cls-6" d="M62.94,11.32a3.87,3.87,0,0,1-2.57,3.53L67.1,15l.19-7.19-6.73-.17A3.84,3.84,0,0,1,62.94,11.32Z"/><path class="cls-7" d="M56.9,12a.34.34,0,0,1,.07-.18.53.53,0,0,1,.13-.13s.07,0,.08,0a1.18,1.18,0,0,0,.4.32,1.19,1.19,0,0,0,.53.14.86.86,0,0,0,.43-.09.34.34,0,0,0,.12-.42.22.22,0,0,0-.07-.09.3.3,0,0,0-.14-.07l-.15-.06-.19-.05-.09,0a2.07,2.07,0,0,1-.37-.11,1.29,1.29,0,0,1-.32-.18.63.63,0,0,1-.23-.28.87.87,0,0,1-.08-.4.89.89,0,0,1,.35-.7,1.41,1.41,0,0,1,.9-.24,1.7,1.7,0,0,1,.83.19c.19.13.29.26.29.41a.42.42,0,0,1-.08.2.55.55,0,0,1-.14.13l-.08,0a1,1,0,0,0-.36-.29,1,1,0,0,0-.47-.12.61.61,0,0,0-.4.09.29.29,0,0,0-.15.27.22.22,0,0,0,0,.08.11.11,0,0,0,0,.07l0,0,.07,0,.08,0,.09,0,.1,0,.12,0,.12,0a1.84,1.84,0,0,1,.77.35.72.72,0,0,1,.27.63.88.88,0,0,1-.35.73,1.52,1.52,0,0,1-1,.24,1.73,1.73,0,0,1-.89-.22A.57.57,0,0,1,56.9,12Z"/><path class="cls-7" d="M59.49,13.39a.71.71,0,0,1,0-.2L60.8,9.51s.05,0,.15,0,.35.1.35.28a.85.85,0,0,1,0,.21L60,13.66s-.05,0-.15,0S59.49,13.57,59.49,13.39Z"/></g><path class="cls-5" d="M25.37,55.32l-8.23,49,96.13,16.14,8.23-49Zm5.68,7.33,34.32,5.77A19.87,19.87,0,0,0,59.21,105l-34.3-5.77Zm76.53,50.5-34.3-5.77a19.87,19.87,0,0,0,6.14-36.6l34.32,5.76Z"/><path class="cls-6" d="M59.21,105a19.87,19.87,0,0,1,6.16-36.6L31.05,62.65l-6.14,36.6Z"/><path class="cls-6" d="M88.94,91.19a19.88,19.88,0,0,1-15.66,16.19l34.3,5.77,6.16-36.61L79.42,70.78A19.86,19.86,0,0,1,88.94,91.19Z"/><path class="cls-7" d="M57.56,90.37a1.61,1.61,0,0,1,.48-.88,2.6,2.6,0,0,1,.77-.59c.26-.12.4-.16.45-.12a5.85,5.85,0,0,0,1.79,1.91,6.16,6.16,0,0,0,2.6,1.09,4.09,4.09,0,0,0,2.27-.15,1.68,1.68,0,0,0,1-1.32,1.45,1.45,0,0,0-.06-.72,2,2,0,0,0-.31-.54,2.52,2.52,0,0,0-.64-.46,7.58,7.58,0,0,0-.76-.38l-.93-.38-.44-.19A14.58,14.58,0,0,1,62,86.79a8.12,8.12,0,0,1-1.48-1.12,3.52,3.52,0,0,1-1-1.62,4.71,4.71,0,0,1-.09-2.1,4.44,4.44,0,0,1,2.3-3.32,7.2,7.2,0,0,1,4.78-.6,8.49,8.49,0,0,1,4.07,1.6,2.53,2.53,0,0,1,1.19,2.29,1.74,1.74,0,0,1-.52,1,3.25,3.25,0,0,1-.82.6c-.26.12-.41.16-.44.12a5.64,5.64,0,0,0-1.64-1.74,5.45,5.45,0,0,0-2.29-1,3.57,3.57,0,0,0-2.14.17,1.64,1.64,0,0,0-1,1.28,1.94,1.94,0,0,0,0,.41,1.64,1.64,0,0,0,.1.38,2.32,2.32,0,0,0,.19.31,1.15,1.15,0,0,0,.32.27l.37.23a2.94,2.94,0,0,0,.47.23l.5.21.58.23.6.25a10,10,0,0,1,3.68,2.33,3.89,3.89,0,0,1,.93,3.46,4.54,4.54,0,0,1-2.34,3.46,7.88,7.88,0,0,1-5.09.52,8.77,8.77,0,0,1-4.41-1.76A2.79,2.79,0,0,1,57.56,90.37Z"/><path class="cls-7" d="M69.83,99.3a4,4,0,0,1,.36-1l9.13-17.9c0-.08.27-.08.77,0,1.2.2,1.73.77,1.58,1.7a4.29,4.29,0,0,1-.38,1L72.2,101c0,.07-.31.07-.78,0C70.2,100.8,69.67,100.23,69.83,99.3Z"/><g class="cls-8"><path class="cls-9" d="M67.08,31.68,62.6,46l28,8.78,4.48-14.27Zm1.39,2.42,10,3.13a6,6,0,0,0-3.35,10.66l-10-3.14ZM89.19,52.31l-10-3.14a6,6,0,0,0,3.34-10.65l10,3.13Z"/><path class="cls-10" d="M75.11,47.89a6,6,0,0,1,3.35-10.66l-10-3.13L65.12,44.75Z"/><path class="cls-10" d="M84.54,45a6,6,0,0,1-5.33,4.18l10,3.14,3.35-10.66-10-3.13A6,6,0,0,1,84.54,45Z"/><path class="cls-10" d="M75.22,43.45a.51.51,0,0,1,.18-.24,1,1,0,0,1,.26-.15c.08,0,.12,0,.13,0A2,2,0,0,0,77,44.12a1.1,1.1,0,0,0,.68.05.48.48,0,0,0,.35-.35.42.42,0,0,0,0-.22.67.67,0,0,0-.07-.17.59.59,0,0,0-.18-.16l-.2-.15L77.31,43a.4.4,0,0,0-.12-.07l-.51-.33a2.52,2.52,0,0,1-.4-.4,1.11,1.11,0,0,1-.23-.52,1.38,1.38,0,0,1,.06-.63,1.34,1.34,0,0,1,.83-.9,2.16,2.16,0,0,1,1.44,0,2.54,2.54,0,0,1,1.15.65.76.76,0,0,1,.26.73.48.48,0,0,1-.19.26.87.87,0,0,1-.27.14c-.08,0-.13,0-.14,0a1.76,1.76,0,0,0-.41-.58,1.59,1.59,0,0,0-.65-.38,1,1,0,0,0-.64,0,.49.49,0,0,0-.34.34.5.5,0,0,0,0,.12.49.49,0,0,0,0,.12l0,.1a.38.38,0,0,0,.09.09l.1.09.13.08.14.09.16.09.17.1A3,3,0,0,1,79,43a1.17,1.17,0,0,1,.14,1.07,1.4,1.4,0,0,1-.84.93,2.35,2.35,0,0,1-1.54,0,2.63,2.63,0,0,1-1.24-.71A.87.87,0,0,1,75.22,43.45Z"/><path class="cls-10" d="M78.51,46.62a1.15,1.15,0,0,1,.15-.29l3.46-4.95s.09,0,.23,0c.35.11.48.3.4.57a1.32,1.32,0,0,1-.15.28l-3.45,5s-.1,0-.24,0C78.56,47.08,78.43,46.89,78.51,46.62Z"/></g><g class="cls-4"><path class="cls-5" d="M2.65,30.92l7.75,20L48.61,38.59l-7.75-20ZM6.3,32.59,20,28.2a8,8,0,0,0-2.12,9.07,9.24,9.24,0,0,0,7.9,5.85L12.09,47.5ZM45,36.93,31.32,41.32a8,8,0,0,0,2.11-9.07,9.2,9.2,0,0,0-7.9-5.85L39.17,22Z"/><path class="cls-6" d="M25.73,43.12a9.24,9.24,0,0,1-7.9-5.85A8,8,0,0,1,20,28.2L6.3,32.59,12.09,47.5Z"/><path class="cls-6" d="M33.43,32.25a8,8,0,0,1-2.11,9.07L45,36.93,39.17,22,25.53,26.4A9.2,9.2,0,0,1,33.43,32.25Z"/><path class="cls-7" d="M21.93,37.93a.67.67,0,0,1,0-.42.84.84,0,0,1,.15-.37c.06-.09.11-.14.13-.13a2.72,2.72,0,0,0,1.07.38,2.42,2.42,0,0,0,1.17-.1,1.53,1.53,0,0,0,.79-.48.74.74,0,0,0-.11-1,.71.71,0,0,0-.23-.14.87.87,0,0,0-.33,0,2,2,0,0,0-.35,0l-.43,0-.19,0a6.46,6.46,0,0,1-.85,0,3.9,3.9,0,0,1-.78-.14,1.66,1.66,0,0,1-.71-.42,2,2,0,0,1-.49-.77,1.8,1.8,0,0,1,.1-1.68,2.65,2.65,0,0,1,1.59-1.14,3.54,3.54,0,0,1,1.82-.18,1.19,1.19,0,0,1,.93.63.8.8,0,0,1,0,.46,1.23,1.23,0,0,1-.17.38c-.06.1-.11.14-.13.13a2.61,2.61,0,0,0-1-.34,2.27,2.27,0,0,0-1,.08,1.35,1.35,0,0,0-.73.47.67.67,0,0,0-.07.66.61.61,0,0,0,.09.16.43.43,0,0,0,.11.12.7.7,0,0,0,.14.08.29.29,0,0,0,.17,0l.19,0H23l.22,0,.26,0,.28,0a4.37,4.37,0,0,1,1.83.18,1.81,1.81,0,0,1,1.09,1.12,1.85,1.85,0,0,1-.09,1.75,3,3,0,0,1-1.71,1.16,3.54,3.54,0,0,1-2,.18A1.28,1.28,0,0,1,21.93,37.93Z"/><path class="cls-7" d="M28.31,38.94a1.76,1.76,0,0,1-.09-.45L27.6,30s.08-.09.27-.15c.48-.16.79,0,.94.33a1.59,1.59,0,0,1,.09.46l.63,8.46s-.09.08-.28.14C28.77,39.43,28.45,39.32,28.31,38.94Z"/></g></g></svg>