<svg xmlns="http://www.w3.org/2000/svg" viewBox="0 0 110 110"><defs><style>.cls-1{fill:#121a40;}.cls-2{fill:#212963;}.cls-3{fill:#3d61b0;}.cls-4{fill:#5794de;}</style></defs><title>TeOfrecemos_SeguroTarjetas</title><g id="Capa_3" data-name="Capa 3"><circle class="cls-1" cx="55" cy="55" r="55"/><path class="cls-2" d="M55,110A54.69,54.69,0,0,0,88.87,98.31a7,7,0,0,0-.11-1.1l-6-32.09a7.43,7.43,0,0,0-8.68-5.93L13.73,70.53a7.44,7.44,0,0,0-5.94,8.68l1.08,5.73A55,55,0,0,0,55,110Z"/><path class="cls-3" d="M33.83,105.77,88.22,95.36,87,89.07,24.81,101A55.21,55.21,0,0,0,33.83,105.77Z"/><path class="cls-3" d="M28,87.45l-1.8-9.57a1.61,1.61,0,0,0-1.89-1.3h0l-9.57,1.8a1.63,1.63,0,0,0-1.3,1.9h0l1.79,9.57a1.62,1.62,0,0,0,1.9,1.26l9.58-1.79A1.63,1.63,0,0,0,28,87.45Z"/><path class="cls-4" d="M95.13,82.62a2.53,2.53,0,0,0-1.19-1.69,2.87,2.87,0,0,0-2-.39l-3.36.63L88,78.08c-.71-3.75-4-5.85-8-5.11s-6.35,3.93-5.65,7.67L75,83.73l-2.7.51a2.69,2.69,0,0,0-2.18,3.09l2.44,13a2.69,2.69,0,0,0,3.19,2.07h0L86,100.4a55.17,55.17,0,0,0,10.64-9.54Zm-19.27.94-.58-3.09c-.52-2.72.79-5.81,4.81-6.58s6.4,1.65,6.91,4.37l.58,3.1Z"/><path class="cls-2" d="M83.14,87.83a2,2,0,0,0-1.62,2.36,2,2,0,0,0,1.57,1.55l.47,2.51a.81.81,0,0,0,1,.63h0a.8.8,0,0,0,.63-.95h0l-.47-2.52a2,2,0,0,0,.82-2A2,2,0,0,0,83.14,87.83Z"/><rect class="cls-2" x="66.85" y="25.55" width="24.77" height="15.43" rx="2.41" ry="2.41" transform="translate(-5.58 19.44) rotate(-13.52)"/><rect class="cls-3" x="67.71" y="35.82" width="24.71" height="2.08" transform="translate(-6.45 20.01) rotate(-13.7)"/><path class="cls-3" d="M72.65,33.35l-.74-3.07a.52.52,0,0,0-.64-.39h0l-3.07.74a.52.52,0,0,0-.39.63h0l.74,3.07a.52.52,0,0,0,.63.38L72.26,34A.53.53,0,0,0,72.65,33.35Z"/><path class="cls-4" d="M93.93,30.17a.89.89,0,0,0-.66-.1l-1.07.26-.24-1a2.26,2.26,0,0,0-4.38,1.05l.24,1-.87.21a.87.87,0,0,0-.65,1l1,4.16a.87.87,0,0,0,1.06.62h0l6.3-1.52a.88.88,0,0,0,.68-1l-1-4.16A.81.81,0,0,0,93.93,30.17Zm-2.05.24-3.77.9-.24-1a1.94,1.94,0,0,1,3.77-.91Z"/><path class="cls-2" d="M90.54,32.58a.64.64,0,0,0,0,1.27l.19.81a.27.27,0,0,0,.32.19h0a.26.26,0,0,0,.19-.32h0l-.19-.81a.65.65,0,0,0-.56-1.14Z"/><rect class="cls-2" x="38.89" y="8.75" width="18.31" height="11.41" rx="1.79" ry="1.79" transform="translate(3.81 -9.22) rotate(11.42)"/><rect class="cls-3" x="46.71" y="7.99" width="1.54" height="18.27" transform="translate(21.43 60.36) rotate(-78.77)"/><path class="cls-3" d="M43.6,12.46l.46-2.29a.38.38,0,0,0-.3-.46h0l-2.29-.46a.4.4,0,0,0-.47.3h0l-.46,2.29a.39.39,0,0,0,.31.45l2.29.46A.39.39,0,0,0,43.6,12.46Z"/><path class="cls-4" d="M58.86,17a.68.68,0,0,0-.41-.27l-.8-.16.15-.74a1.67,1.67,0,0,0-3.26-.66l-.15.74-.65-.13a.64.64,0,0,0-.76.49l-.63,3.11a.64.64,0,0,0,.52.74h0l4.7,1a.64.64,0,0,0,.77-.48l.63-3.1A.62.62,0,0,0,58.86,17Zm-1.45-.48-2.81-.56.15-.74a1.44,1.44,0,0,1,2.81.56Z"/><path class="cls-2" d="M55.84,17.52a.49.49,0,0,0-.57.38.47.47,0,0,0,.2.49l-.12.6a.2.2,0,0,0,.16.23h0a.19.19,0,0,0,.22-.16h0l.13-.6a.48.48,0,0,0,.36-.38A.49.49,0,0,0,55.84,17.52Z"/><rect class="cls-2" x="8.83" y="33.67" width="33.83" height="21.08" rx="3.3" ry="3.3" transform="translate(9.94 -4.45) rotate(12.22)"/><rect class="cls-3" x="23.21" y="32.24" width="2.84" height="33.75" transform="matrix(0.21, -0.98, 0.98, 0.21, -28.53, 62.96)"/><path class="cls-3" d="M17.59,40.4l.91-4.22a.72.72,0,0,0-.55-.86h0l-4.22-.91a.73.73,0,0,0-.86.55h0L12,39.19a.73.73,0,0,0,.56.84l4.23.92A.72.72,0,0,0,17.59,40.4Z"/><path class="cls-4" d="M45.67,49.1a1.32,1.32,0,0,0-.76-.5l-1.48-.32.3-1.37a2.85,2.85,0,0,0-2.38-3.46,2.86,2.86,0,0,0-3.63,2.16L37.43,47l-1.2-.26a1.19,1.19,0,0,0-1.42.89l-1.24,5.71a1.2,1.2,0,0,0,1,1.4h0l8.65,1.87a1.19,1.19,0,0,0,1.44-.87L45.86,50A1.12,1.12,0,0,0,45.67,49.1ZM43,48.18l-5.17-1.12.29-1.36a2.44,2.44,0,0,1,3.11-1.86,2.43,2.43,0,0,1,2.07,3Z"/><path class="cls-2" d="M40.06,50.07a.9.9,0,0,0-1.07.68.87.87,0,0,0,.38.9l-.24,1.11a.36.36,0,0,0,.28.43h0a.37.37,0,0,0,.42-.29h0l.24-1.11a.89.89,0,0,0,.69-.68A.9.9,0,0,0,40.06,50.07Z"/></g></svg>