<svg id="Capa_1" data-name="Capa 1" xmlns="http://www.w3.org/2000/svg" xmlns:xlink="http://www.w3.org/1999/xlink" viewBox="0 0 110 110"><defs><style>.cls-1{fill:none;}.cls-2{clip-path:url(#clip-path);}.cls-3{fill:#9292ff;}.cls-4{fill:#7e6bfa;}.cls-5{fill:#c2a6fb;}.cls-6{opacity:0.46;}.cls-7{opacity:0.54;}</style><clipPath id="clip-path"><circle class="cls-1" cx="55" cy="55" r="55"/></clipPath></defs><title>TeOfrecemos_CuentasAhorro</title><g class="cls-2"><circle class="cls-3" cx="55" cy="55" r="55"/><path class="cls-4" d="M58,17A13.85,13.85,0,1,0,46.09,32.57h0A13.86,13.86,0,0,0,58,17Z"/><path class="cls-5" d="M56.2,17.19A12.08,12.08,0,1,1,42.57,6.88,12.08,12.08,0,0,1,56.2,17.19Zm-1,.14a11.08,11.08,0,1,0-9.47,12.51A11.08,11.08,0,0,0,55.23,17.33Z"/><path class="cls-4" d="M58,17A13.85,13.85,0,1,0,46.09,32.57h0A13.86,13.86,0,0,0,58,17Z"/><path class="cls-5" d="M56.2,17.19A12.08,12.08,0,1,1,42.57,6.88,12.08,12.08,0,0,1,56.2,17.19Zm-1,.14a11.08,11.08,0,1,0-9.47,12.51A11.08,11.08,0,0,0,55.23,17.33Z"/><path class="cls-5" d="M39.5,22.2a4.76,4.76,0,0,0,2.56.2,4.15,4.15,0,0,0,2.52-1.09,2.41,2.41,0,0,0,.64-2.14,2.08,2.08,0,0,0-1-1.62,5.32,5.32,0,0,0-2.25-.61l-.35,0-.33,0-.29,0a1.26,1.26,0,0,1-.28-.05l-.23-.06a1,1,0,0,1-.21-.09.86.86,0,0,1-.14-.13.62.62,0,0,1-.11-.17.78.78,0,0,1,0-.22.87.87,0,0,1,.29-.8,1.88,1.88,0,0,1,1.06-.43,3.12,3.12,0,0,1,2.44.75.36.36,0,0,0,.2-.13,1.54,1.54,0,0,0,.33-.44.94.94,0,0,0,.12-.57c-.06-.41-.39-.73-1-1a4.69,4.69,0,0,0-2.35-.16,3.87,3.87,0,0,0-2.38,1.07,2.59,2.59,0,0,0-.25,3.13,1.88,1.88,0,0,0,.78.67,3.82,3.82,0,0,0,.93.33,7.65,7.65,0,0,0,1.07.15l.26,0,.54.05a3.54,3.54,0,0,1,.45.08,1.11,1.11,0,0,1,.4.13.88.88,0,0,1,.25.22.93.93,0,0,1,.14.36.9.9,0,0,1-.3.83,2.14,2.14,0,0,1-1.14.44,3.32,3.32,0,0,1-1.5-.14A3.07,3.07,0,0,1,39.11,20a.44.44,0,0,0-.21.14,1.45,1.45,0,0,0-.3.43.86.86,0,0,0-.11.52A1.49,1.49,0,0,0,39.5,22.2Z"/><path class="cls-5" d="M47.27,24.34c.26,0,.39-.08.4-.12L49.45,13.6a1.87,1.87,0,0,0,0-.58c-.07-.5-.43-.7-1.08-.61-.27,0-.4.08-.39.13L46.2,23.16a1.82,1.82,0,0,0,0,.57C46.25,24.23,46.62,24.43,47.27,24.34Z"/><g class="cls-6"><path class="cls-4" d="M31.78,45.88a5.77,5.77,0,1,0-5,6.5h0A5.77,5.77,0,0,0,31.78,45.88Z"/><path class="cls-5" d="M31.05,46a5,5,0,1,1-5.68-4.3A5.05,5.05,0,0,1,31.05,46Zm-.41.06a4.62,4.62,0,1,0-3.95,5.22A4.62,4.62,0,0,0,30.64,46Z"/><path class="cls-4" d="M31.78,45.88a5.77,5.77,0,1,0-5,6.5h0A5.77,5.77,0,0,0,31.78,45.88Z"/><path class="cls-5" d="M31.05,46a5,5,0,1,1-5.68-4.3A5.05,5.05,0,0,1,31.05,46Zm-.41.06a4.62,4.62,0,1,0-3.95,5.22A4.62,4.62,0,0,0,30.64,46Z"/><path class="cls-5" d="M24.09,48.05a1.92,1.92,0,0,0,1.06.08,1.78,1.78,0,0,0,1.05-.45,1,1,0,0,0,.27-.89.85.85,0,0,0-.43-.68,2.19,2.19,0,0,0-.94-.25H25l-.14,0h-.13l-.11,0-.1,0-.08,0-.06-.05-.05-.07a.28.28,0,0,1,0-.09.36.36,0,0,1,.12-.34.81.81,0,0,1,.44-.18,1.29,1.29,0,0,1,1,.31.14.14,0,0,0,.09,0,.75.75,0,0,0,.13-.18.42.42,0,0,0,.05-.24c0-.17-.16-.31-.41-.41a1.91,1.91,0,0,0-1-.07,1.62,1.62,0,0,0-1,.45,1,1,0,0,0-.27.86,1,1,0,0,0,.17.44.79.79,0,0,0,.32.28,1.64,1.64,0,0,0,.39.14,3.47,3.47,0,0,0,.45.06h.1l.23,0,.19,0a.41.41,0,0,1,.17,0l.1.09a.47.47,0,0,1,.06.15.39.39,0,0,1-.13.35.91.91,0,0,1-.47.18,1.35,1.35,0,0,1-.63-.06,1.28,1.28,0,0,1-.51-.28.22.22,0,0,0-.09.06.57.57,0,0,0-.12.18.4.4,0,0,0-.05.22A.63.63,0,0,0,24.09,48.05Z"/><path class="cls-5" d="M27.33,48.94c.1,0,.16,0,.16,0l.74-4.42a1,1,0,0,0,0-.25c0-.2-.18-.29-.45-.25s-.17,0-.17.05l-.75,4.43a1,1,0,0,0,0,.24C26.9,48.9,27.05,49,27.33,48.94Z"/></g><g class="cls-6"><path class="cls-4" d="M87.9,32.72a11.25,11.25,0,1,0-9.64,12.65h0A11.25,11.25,0,0,0,87.9,32.72Z"/><path class="cls-5" d="M86.48,32.89a9.82,9.82,0,1,1-11.07-8.38A9.82,9.82,0,0,1,86.48,32.89Zm-.8.11A9,9,0,1,0,78,43.15,9,9,0,0,0,85.68,33Z"/><path class="cls-4" d="M87.9,32.72a11.25,11.25,0,1,0-9.64,12.65h0A11.25,11.25,0,0,0,87.9,32.72Z"/><path class="cls-5" d="M86.48,32.89a9.82,9.82,0,1,1-11.07-8.38A9.82,9.82,0,0,1,86.48,32.89Zm-.8.11A9,9,0,1,0,78,43.15,9,9,0,0,0,85.68,33Z"/><path class="cls-5" d="M72.91,37a3.88,3.88,0,0,0,2.08.16A3.49,3.49,0,0,0,77,36.23a2,2,0,0,0,.52-1.74,1.7,1.7,0,0,0-.84-1.32,4.45,4.45,0,0,0-1.83-.49l-.28,0-.27,0-.24,0a.78.78,0,0,1-.22,0l-.19,0a.36.36,0,0,1-.17-.07l-.11-.1a.55.55,0,0,1-.09-.14.57.57,0,0,1,0-.18.72.72,0,0,1,.23-.65,1.55,1.55,0,0,1,.87-.35,2.28,2.28,0,0,1,1.07.1,2.41,2.41,0,0,1,.91.51.31.31,0,0,0,.17-.11,1.38,1.38,0,0,0,.26-.36.71.71,0,0,0,.09-.45c0-.34-.31-.6-.79-.8a3.64,3.64,0,0,0-1.91-.13,3.07,3.07,0,0,0-1.93.87,1.93,1.93,0,0,0-.52,1.68,2.09,2.09,0,0,0,.32.86,1.51,1.51,0,0,0,.63.54,3.36,3.36,0,0,0,.75.27,6.42,6.42,0,0,0,.88.12l.21,0,.43,0c.13,0,.25,0,.37.06a1,1,0,0,1,.33.11.86.86,0,0,1,.2.18.61.61,0,0,1,.11.29.73.73,0,0,1-.24.68,1.83,1.83,0,0,1-.92.35,2.7,2.7,0,0,1-1.23-.11,2.76,2.76,0,0,1-1-.55.31.31,0,0,0-.17.11,1.21,1.21,0,0,0-.24.35.8.8,0,0,0-.09.43A1.22,1.22,0,0,0,72.91,37Z"/><path class="cls-5" d="M79.22,38.69c.21,0,.32-.06.32-.1L81,30a1.86,1.86,0,0,0,0-.47c-.06-.41-.35-.58-.88-.5-.22,0-.33.06-.32.1l-1.47,8.63a1.83,1.83,0,0,0,0,.47C78.39,38.6,78.69,38.76,79.22,38.69Z"/></g><circle class="cls-1" cx="55" cy="55" r="55"/><g class="cls-7"><path class="cls-4" d="M-4.15,63.89a12.4,12.4,0,0,1,1.81-3.08A15.06,15.06,0,0,1,4.52,56a16.09,16.09,0,0,1,3.63-.84h0c.51-.06,1-.09,1.56-.11H9.9l2.8-2.52a.4.4,0,0,1,.26-.1.37.37,0,0,1,.35.38v2.55l.42.08A14.29,14.29,0,0,1,22,60.53h0c1.52,1.71,4.3,2,4.85,2a.45.45,0,0,1,.28.44l-.35,4.92-.06.11c-.24.15-1,.61-2.6,1.44l-.25.15-.07.36a12.18,12.18,0,0,1-3.09,5.28l-.11.11-1.42,5a.34.34,0,0,1-.31.25l-2.77.33a.59.59,0,0,1-.51-.42l-.23-1.91-.72.3a15.16,15.16,0,0,1-3.5.85H11a16,16,0,0,1-5-.19l-1-.19.28,2.35a.53.53,0,0,1-.34.5l-2.71.31A.3.3,0,0,1,2,82.37L-1.41,76l-.07-.07a10.66,10.66,0,0,1-2.67-12Z"/><circle class="cls-5" cx="18.55" cy="62.63" r="1.33"/><path class="cls-5" d="M2.93,59.72h0a.59.59,0,0,0-.05.84.6.6,0,0,0,.85,0c1.52-1.39,4.69-1.77,4.69-1.77a.6.6,0,0,0,.52-.67.59.59,0,0,0-.66-.52c-.15,0-3.55.43-5.36,2.07Z"/></g><path class="cls-4" d="M114.8,85.27a26.56,26.56,0,0,1-6.41,17.09l-.14.19-6.35,16.3a.78.78,0,0,1-.76.47h-6.6a1.3,1.3,0,0,1-1-1.11l0-5.72-2.25.71a37.71,37.71,0,0,1-12,1.83l-.11,0A35.54,35.54,0,0,1,70.58,114l-1.82-.5,0,4.65a1.43,1.43,0,0,1-1.11,1.15l-6.75,0a.86.86,0,0,1-.81-.52l-4.79-11.65-.29-.23A29.45,29.45,0,0,1,46.09,95l-.27-.86-.64-.3c-4.14-1.55-6-2.43-6.65-2.73l-.18-.25-2.2-11.73A1.06,1.06,0,0,1,36.69,78c1.33-.24,7.94-1.62,11.12-6.16h0A34.49,34.49,0,0,1,66.22,57.3l1-.32-.74-6.12a.88.88,0,0,1,.75-1,.83.83,0,0,1,.66.17l7.42,5.28.46,0c1.25-.12,2.52-.18,3.77-.18h0a41.76,41.76,0,0,1,9,1,36.45,36.45,0,0,1,17.8,9.73,30,30,0,0,1,5.22,6.9A26.55,26.55,0,0,1,114.8,85.27Z"/><circle class="cls-5" cx="56.56" cy="75.94" r="3.22"/><path class="cls-5" d="M93.37,64.63c-4.82-3.46-13.1-3.52-13.47-3.52a1.44,1.44,0,0,0-1.45,1.44A1.45,1.45,0,0,0,79.89,64s7.73,0,11.77,3a1.45,1.45,0,0,0,1.69-2.35h0Z"/></g></svg>