<svg xmlns="http://www.w3.org/2000/svg" viewBox="0 0 110 110"><defs><style>.cls-1{fill:#3d4a9c;}.cls-2{fill:#5794de;}.cls-3{fill:#427acc;}.cls-4{fill:#3d61b0;}</style></defs><title>TeOfrecemos_TarjetaVirtual</title><g id="Capa_3" data-name="Capa 3"><circle class="cls-1" cx="55" cy="55" r="55"/><path class="cls-2" d="M98.11,58.54v-.06a4,4,0,0,0-4.89-2.87l-63,16.56a4.06,4.06,0,0,0-2.85,5l7.42,29a55,55,0,0,0,69-25.63Z"/><circle class="cls-3" cx="36.83" cy="95.37" r="1.24"/><circle class="cls-3" cx="39.86" cy="94.58" r="1.24"/><circle class="cls-3" cx="42.89" cy="93.78" r="1.24"/><circle class="cls-3" cx="45.92" cy="92.99" r="1.24"/><circle class="cls-3" cx="50.13" cy="91.89" r="1.24"/><circle class="cls-3" cx="53.16" cy="91.09" r="1.24"/><circle class="cls-3" cx="56.19" cy="90.3" r="1.24"/><circle class="cls-3" cx="59.22" cy="89.5" r="1.24"/><circle class="cls-3" cx="63.43" cy="88.4" r="1.24"/><circle class="cls-3" cx="66.46" cy="87.6" r="1.24"/><circle class="cls-3" cx="69.49" cy="86.81" r="1.24"/><circle class="cls-3" cx="72.53" cy="86.02" r="1.24"/><circle class="cls-3" cx="76.73" cy="84.91" r="1.24"/><circle class="cls-3" cx="79.76" cy="84.12" r="1.24"/><circle class="cls-3" cx="82.79" cy="83.32" r="1.24"/><circle class="cls-3" cx="85.83" cy="82.53" r="1.24"/><rect class="cls-3" x="33.05" y="78.51" width="10.1" height="8.93" rx="1.53" ry="1.53" transform="translate(-19.8 12.37) rotate(-14.69)"/><path class="cls-2" d="M44.63,59,9.34,55.42A2.18,2.18,0,0,1,7.4,53v0L9.58,33A2.21,2.21,0,0,1,12,31l35.29,3.61a2.18,2.18,0,0,1,2,2.39v0L47,57A2.21,2.21,0,0,1,44.63,59Z"/><path class="cls-3" d="M47.26,34.59l-3.16-.33a19.39,19.39,0,0,1-2.83,10.81c-4.76,7.82-12.64,11-15.76,12l19.12,2A2.21,2.21,0,0,0,47,57L49.2,37v0A2.18,2.18,0,0,0,47.26,34.59Z"/><path class="cls-4" d="M41.65,52.67a44.48,44.48,0,0,1-10.86,4.94L44.63,59A2.21,2.21,0,0,0,47,57l1.14-10.49A24.26,24.26,0,0,1,41.65,52.67Z"/><circle class="cls-3" cx="10.94" cy="44.08" r="0.68"/><circle class="cls-3" cx="12.64" cy="44.25" r="0.68"/><circle class="cls-3" cx="14.33" cy="44.43" r="0.68"/><circle class="cls-3" cx="16.03" cy="44.6" r="0.68"/><circle class="cls-3" cx="18.38" cy="44.84" r="0.68"/><circle class="cls-3" cx="20.08" cy="45.02" r="0.68"/><circle class="cls-3" cx="21.78" cy="45.19" r="0.68"/><circle class="cls-3" cx="23.47" cy="45.36" r="0.68"/><circle class="cls-3" cx="25.83" cy="45.61" r="0.68"/><circle class="cls-3" cx="27.52" cy="45.78" r="0.68"/><circle class="cls-3" cx="29.22" cy="45.95" r="0.68"/><circle class="cls-3" cx="30.92" cy="46.13" r="0.68"/><circle class="cls-3" cx="33.27" cy="46.37" r="0.68"/><circle class="cls-3" cx="34.97" cy="46.54" r="0.68"/><circle class="cls-3" cx="36.66" cy="46.72" r="0.68"/><circle class="cls-3" cx="38.36" cy="46.89" r="0.68"/><rect class="cls-3" x="11.2" y="35.58" width="5.49" height="4.86" rx="0.83" ry="0.83" transform="matrix(0.99, 0.1, -0.1, 0.99, 3.95, -1.23)"/><path class="cls-2" d="M89.1,33.06l-20.18,5a1.28,1.28,0,0,1-1.55-.93v0L64.6,25.62a1.31,1.31,0,0,1,.93-1.57l20.18-5a1.28,1.28,0,0,1,1.55.93v0L90,31.49A1.3,1.3,0,0,1,89.1,33.06Z"/><path class="cls-3" d="M85.71,19.06l-1.8.44A11.4,11.4,0,0,1,84.48,26a17,17,0,0,1-6.32,9.74l10.94-2.7A1.3,1.3,0,0,0,90,31.49L87.27,20v0A1.28,1.28,0,0,0,85.71,19.06Z"/><path class="cls-4" d="M86.2,30.14a26.24,26.24,0,0,1-5,4.88l7.91-2A1.3,1.3,0,0,0,90,31.49l-1.45-6A14.21,14.21,0,0,1,86.2,30.14Z"/><circle class="cls-3" cx="67.56" cy="31.48" r="0.4"/><circle class="cls-3" cx="68.53" cy="31.24" r="0.4"/><circle class="cls-3" cx="69.5" cy="31" r="0.4"/><circle class="cls-3" cx="70.47" cy="30.76" r="0.4"/><circle class="cls-3" cx="71.81" cy="30.43" r="0.4"/><circle class="cls-3" cx="72.78" cy="30.19" r="0.4"/><circle class="cls-3" cx="73.75" cy="29.95" r="0.4"/><circle class="cls-3" cx="74.72" cy="29.71" r="0.4"/><circle class="cls-3" cx="76.07" cy="29.38" r="0.4"/><circle class="cls-3" cx="77.04" cy="29.14" r="0.4"/><circle class="cls-3" cx="78.01" cy="28.9" r="0.4"/><circle class="cls-3" cx="78.98" cy="28.66" r="0.4"/><circle class="cls-3" cx="80.33" cy="28.33" r="0.4"/><circle class="cls-3" cx="81.3" cy="28.09" r="0.4"/><circle class="cls-3" cx="82.27" cy="27.85" r="0.4"/><circle class="cls-3" cx="83.24" cy="27.61" r="0.4"/><rect class="cls-3" x="66.41" y="26.11" width="3.22" height="2.85" rx="0.49" ry="0.49" transform="translate(-4.62 17.12) rotate(-13.88)"/><path class="cls-2" d="M51.25,17.18,40,20a.71.71,0,0,1-.86-.52h0l-1.54-6.38a.72.72,0,0,1,.52-.87L49.37,9.4a.71.71,0,0,1,.86.52h0l1.54,6.38A.73.73,0,0,1,51.25,17.18Z"/><path class="cls-3" d="M49.37,9.4l-1,.25a6.26,6.26,0,0,1,.32,3.62,9.48,9.48,0,0,1-3.51,5.42l6.08-1.51a.73.73,0,0,0,.52-.87L50.23,9.93h0A.71.71,0,0,0,49.37,9.4Z"/><path class="cls-4" d="M49.64,15.56a14.35,14.35,0,0,1-2.79,2.71l4.4-1.09a.73.73,0,0,0,.52-.87L51,13A7.94,7.94,0,0,1,49.64,15.56Z"/><circle class="cls-3" cx="39.27" cy="16.31" r="0.22"/><circle class="cls-3" cx="39.81" cy="16.17" r="0.22"/><circle class="cls-3" cx="40.35" cy="16.04" r="0.22"/><circle class="cls-3" cx="40.89" cy="15.91" r="0.22"/><circle class="cls-3" cx="41.64" cy="15.72" r="0.22"/><circle class="cls-3" cx="42.18" cy="15.59" r="0.22"/><circle class="cls-3" cx="42.72" cy="15.45" r="0.22"/><circle class="cls-3" cx="43.26" cy="15.32" r="0.22"/><circle class="cls-3" cx="44.01" cy="15.14" r="0.22"/><circle class="cls-3" cx="44.55" cy="15" r="0.22"/><circle class="cls-3" cx="45.09" cy="14.87" r="0.22"/><circle class="cls-3" cx="45.62" cy="14.74" r="0.22"/><circle class="cls-3" cx="46.37" cy="14.55" r="0.22"/><circle class="cls-3" cx="46.91" cy="14.42" r="0.22"/><circle class="cls-3" cx="47.45" cy="14.28" r="0.22"/><circle class="cls-3" cx="47.99" cy="14.15" r="0.22"/><rect class="cls-3" x="38.63" y="13.32" width="1.79" height="1.58" rx="0.27" ry="0.27" transform="translate(-2.23 9.89) rotate(-13.88)"/><path class="cls-3" d="M71.22,107.56A55.12,55.12,0,0,0,103.73,80.5l-5.62-22v-.06a4,4,0,0,0-4.89-2.87L87.57,57.1a35.58,35.58,0,0,1,2.08,20.41C86.71,93,76.39,103.28,71.22,107.56Z"/><path class="cls-4" d="M86.43,100.13a55.32,55.32,0,0,0,17.3-19.63l-1.25-4.88a44.61,44.61,0,0,1-7.26,14.73A79.88,79.88,0,0,1,86.43,100.13Z"/></g></svg>