<svg id="Capa_1" data-name="Capa 1" xmlns="http://www.w3.org/2000/svg" viewBox="0 0 110 110"><defs><style>.cls-1{fill:#37c771;}.cls-2{opacity:0.79;}.cls-3{fill:#2eb964;}.cls-4{fill:#8fe8b0;}.cls-5{opacity:0.52;}.cls-6{opacity:0.58;}</style></defs><title>TeOfrecemos_ProductosInversion</title><circle class="cls-1" cx="55" cy="55" r="55"/><g class="cls-2"><path class="cls-3" d="M87.78,59.88C78.2,64.61,73.61,76,77.34,85.72A20.18,20.18,0,0,0,89.78,97.61a55,55,0,0,0,19.81-36A21,21,0,0,0,87.78,59.88Z"/><path class="cls-4" d="M81.61,85a16.56,16.56,0,0,1,8.68-21.76,16.75,16.75,0,0,1,18.51,3.2c.12-.57.22-1.14.33-1.72a18.34,18.34,0,0,0-19.47-2.85,18.07,18.07,0,0,0-9.48,23.71,17.64,17.64,0,0,0,12,10c.44-.4.87-.82,1.3-1.24A16.22,16.22,0,0,1,81.61,85Z"/><path class="cls-4" d="M91.38,85a7.24,7.24,0,0,0,3.79-.81,6.41,6.41,0,0,0,3.22-2.6,3.58,3.58,0,0,0,.07-3.32,3.07,3.07,0,0,0-2.15-1.87,8.31,8.31,0,0,0-3.51.09l-.52.11-.5.1-.43.08a2,2,0,0,1-.42,0h-.36a.73.73,0,0,1-.33,0,1.31,1.31,0,0,1-.27-.12.85.85,0,0,1-.22-.2,1.08,1.08,0,0,1-.13-.29,1.28,1.28,0,0,1,.08-1.27,3,3,0,0,1,1.38-1.06,4.6,4.6,0,0,1,2-.39,4.7,4.7,0,0,1,1.88.43.68.68,0,0,0,.24-.27,2.4,2.4,0,0,0,.29-.77,1.31,1.31,0,0,0,0-.85c-.25-.56-.86-.88-1.82-1a7,7,0,0,0-3.47.76,5.9,5.9,0,0,0-3,2.53,3.47,3.47,0,0,0-.1,3.21,3.63,3.63,0,0,0,1,1.34,2.87,2.87,0,0,0,1.4.62,5.72,5.72,0,0,0,1.49.08,11.11,11.11,0,0,0,1.62-.24l.38-.08.81-.15c.22,0,.45-.07.68-.09A2,2,0,0,1,95,79a1.22,1.22,0,0,1,.44.22,1,1,0,0,1,.35.44A1.31,1.31,0,0,1,95.7,81a3.3,3.3,0,0,1-1.48,1.1,5.24,5.24,0,0,1-2.24.44,4.75,4.75,0,0,1-2-.45.66.66,0,0,0-.25.28,2,2,0,0,0-.27.74,1.33,1.33,0,0,0,.06.79A2.23,2.23,0,0,0,91.38,85Z"/><path class="cls-4" d="M102.37,68.52a4,4,0,0,0-.19-.83c-.31-.69-.91-.83-1.82-.42-.38.16-.56.28-.53.35l1.65,15.86a3.18,3.18,0,0,0,.15.68c.71-1.14,1.39-2.32,2-3.51Z"/></g><g class="cls-5"><path class="cls-3" d="M65.17,18.8a10.13,10.13,0,0,0-17.9-9.42,10,10,0,0,0,4.45,13.75l0,0A10,10,0,0,0,65.17,18.8Z"/><path class="cls-4" d="M64,18.2A8.83,8.83,0,1,1,59.92,6.57,8.74,8.74,0,0,1,64,18.2Zm-.65-.32a8.09,8.09,0,0,0-14.52-7.14,8.09,8.09,0,0,0,14.52,7.14Z"/><path class="cls-4" d="M51.9,14.34a3.5,3.5,0,0,0,1.47,1.16,3.13,3.13,0,0,0,2,.38,1.71,1.71,0,0,0,1.25-1,1.47,1.47,0,0,0,0-1.38,4,4,0,0,0-1.12-1.28l-.2-.15-.19-.16-.17-.13-.14-.14-.12-.13a.42.42,0,0,1-.09-.14l0-.14a.33.33,0,0,1,0-.14.61.61,0,0,1,.07-.14.63.63,0,0,1,.5-.36,1.44,1.44,0,0,1,.81.18,2.19,2.19,0,0,1,.76.62,2.28,2.28,0,0,1,.42.82.29.29,0,0,0,.17,0,1.22,1.22,0,0,0,.38-.13.68.68,0,0,0,.3-.28,1,1,0,0,0-.2-1A3.36,3.36,0,0,0,56.4,9.79a2.79,2.79,0,0,0-1.87-.34,1.67,1.67,0,0,0-1.22,1,1.77,1.77,0,0,0-.19.79,1.41,1.41,0,0,0,.2.71,3.41,3.41,0,0,0,.43.57,5.88,5.88,0,0,0,.59.53l.15.12.31.25.24.22a.88.88,0,0,1,.19.24.71.71,0,0,1,.06.24.58.58,0,0,1-.06.26.62.62,0,0,1-.51.37,1.53,1.53,0,0,1-.87-.2,2.65,2.65,0,0,1-.86-.7,2.52,2.52,0,0,1-.46-.89.34.34,0,0,0-.18,0A.92.92,0,0,0,52,13a.59.59,0,0,0-.27.27A1.07,1.07,0,0,0,51.9,14.34Z"/><path class="cls-4" d="M55.74,18.77c.17.08.27.11.29.09l5.35-5.53a1.31,1.31,0,0,0,.25-.33c.16-.32,0-.59-.4-.8-.18-.09-.28-.12-.29-.09l-5.37,5.52a1.59,1.59,0,0,0-.25.33Q55.1,18.44,55.74,18.77Z"/></g><g class="cls-2"><path class="cls-3" d="M97.14,30.68a5.48,5.48,0,1,0-6.59,3.9h0A5.41,5.41,0,0,0,97.14,30.68Z"/><path class="cls-4" d="M96.47,30.5a4.78,4.78,0,1,1-3.57-5.66A4.73,4.73,0,0,1,96.47,30.5Zm-.38-.09a4.39,4.39,0,1,0-5.27,3.14A4.33,4.33,0,0,0,96.09,30.41Z"/><path class="cls-4" d="M89.59,29.91a1.88,1.88,0,0,0,.92.44,1.66,1.66,0,0,0,1.08,0,.91.91,0,0,0,.54-.68.8.8,0,0,0-.14-.73,2.12,2.12,0,0,0-.75-.54l-.12-.06L91,28.25l-.11-.05a.47.47,0,0,1-.09-.06l-.08-.05L90.66,28l0-.07a.22.22,0,0,1,0-.08.24.24,0,0,1,0-.08.35.35,0,0,1,.22-.25.86.86,0,0,1,.45,0,1.15,1.15,0,0,1,.47.23,1.23,1.23,0,0,1,.33.39.13.13,0,0,0,.09,0,.54.54,0,0,0,.18-.11.3.3,0,0,0,.12-.19.5.5,0,0,0-.22-.49,1.76,1.76,0,0,0-.84-.39,1.52,1.52,0,0,0-1,0,.92.92,0,0,0-.53.65.93.93,0,0,0,0,.44.8.8,0,0,0,.19.35,1.42,1.42,0,0,0,.3.25,2.82,2.82,0,0,0,.38.21l.09.05.19.09.15.09a.49.49,0,0,1,.14.11.37.37,0,0,1,0,.11.26.26,0,0,1,0,.15.38.38,0,0,1-.23.26.91.91,0,0,1-.49,0,1.54,1.54,0,0,1-.53-.26,1.27,1.27,0,0,1-.35-.42.16.16,0,0,0-.1,0,.45.45,0,0,0-.17.11.3.3,0,0,0-.12.17A.6.6,0,0,0,89.59,29.91Z"/><path class="cls-4" d="M92.16,31.79c.09,0,.15,0,.16,0l2.17-3.56a.72.72,0,0,0,.09-.2c0-.19-.06-.31-.31-.38s-.16,0-.17,0l-2.17,3.56a1.24,1.24,0,0,0-.1.2C91.79,31.6,91.9,31.73,92.16,31.79Z"/></g><g class="cls-6"><path class="cls-3" d="M24.51,32.28a6.29,6.29,0,1,0-7.57,4.47h0A6.23,6.23,0,0,0,24.51,32.28Z"/><path class="cls-4" d="M23.73,32.07a5.49,5.49,0,1,1-4.09-6.49A5.42,5.42,0,0,1,23.73,32.07ZM23.3,32a5,5,0,1,0-6.06,3.6A5,5,0,0,0,23.3,32Z"/><path class="cls-4" d="M15.84,31.39a2.18,2.18,0,0,0,1.05.5,1.91,1.91,0,0,0,1.25,0,1.08,1.08,0,0,0,.62-.78.94.94,0,0,0-.17-.84,2.67,2.67,0,0,0-.86-.62l-.14-.07-.14-.06-.12-.06-.11-.07-.08-.06a.27.27,0,0,1-.08-.07l0-.08a.28.28,0,0,1,0-.09A.29.29,0,0,1,17,29a.41.41,0,0,1,.25-.29.92.92,0,0,1,.52,0,1.45,1.45,0,0,1,.91.71.19.19,0,0,0,.11,0,.57.57,0,0,0,.21-.13.38.38,0,0,0,.14-.21.59.59,0,0,0-.25-.56A2.08,2.08,0,0,0,18,28a1.77,1.77,0,0,0-1.18,0,1,1,0,0,0-.61.75,1.06,1.06,0,0,0,0,.5.87.87,0,0,0,.22.41,1.93,1.93,0,0,0,.34.29,3.55,3.55,0,0,0,.43.23l.11.06.22.11a1,1,0,0,1,.17.1.61.61,0,0,1,.16.12.38.38,0,0,1,.06.13.25.25,0,0,1,0,.17.38.38,0,0,1-.26.3.94.94,0,0,1-.55,0,1.56,1.56,0,0,1-.62-.3,1.53,1.53,0,0,1-.4-.48.19.19,0,0,0-.11,0,.53.53,0,0,0-.2.13.39.39,0,0,0-.13.2A.66.66,0,0,0,15.84,31.39Z"/><path class="cls-4" d="M18.78,33.55c.12,0,.18,0,.19,0l2.49-4.09a1,1,0,0,0,.11-.23c.05-.22-.07-.37-.36-.44-.12,0-.18,0-.19,0l-2.5,4.09a1,1,0,0,0-.11.23C18.37,33.34,18.49,33.48,18.78,33.55Z"/></g><path class="cls-4" d="M67.34,63.33A2.35,2.35,0,0,0,65,65.68v43.4c1.59-.29,3.15-.65,4.69-1.08V65.68A2.35,2.35,0,0,0,67.34,63.33Z"/><path class="cls-4" d="M77.34,49h0a2.21,2.21,0,0,1-2.21-2.21V38.12a.87.87,0,0,0-.88-.88H66.14A2.21,2.21,0,0,1,63.93,35h0a2.21,2.21,0,0,1,2.21-2.21H78.67a.87.87,0,0,1,.88.88v13A2.21,2.21,0,0,1,77.34,49Z"/><path class="cls-4" d="M45.05,85.62a2.74,2.74,0,0,0-2.74,2.73v20.16a52.36,52.36,0,0,0,5.48,1V88.35A2.74,2.74,0,0,0,45.05,85.62Z"/><path class="cls-4" d="M23.15,68a2.35,2.35,0,0,0-2.34,2.35V98.06a55.42,55.42,0,0,0,4.69,3.35v-31A2.35,2.35,0,0,0,23.15,68Z"/><path class="cls-4" d="M67.51,41.07,47.24,61.14a1.72,1.72,0,0,1-2.43,0L27.05,43.37a3.31,3.31,0,0,0-4.66,0L.9,64.87Q1.37,67.45,2.07,70L24,48a1,1,0,0,1,1.44,0L44,66.62a2.81,2.81,0,0,0,4,0L70.64,44.2a2.21,2.21,0,0,0-3.13-3.13Z"/></svg>