<svg id="Capa_1" data-name="Capa 1" xmlns="http://www.w3.org/2000/svg" xmlns:xlink="http://www.w3.org/1999/xlink" viewBox="0 0 110 110"><defs><style>.cls-1{fill:none;}.cls-2{clip-path:url(#clip-path);}.cls-3{fill:#f9ca67;}.cls-4{opacity:0.64;}.cls-5{fill:#f7bd41;}.cls-6{fill:#fad78d;}.cls-7{opacity:0.52;}</style><clipPath id="clip-path"><circle class="cls-1" cx="55" cy="55" r="55"/></clipPath></defs><title>TeOfrecemos_AdelantoSueldo</title><g class="cls-2"><circle class="cls-3" cx="55" cy="55" r="55"/><g class="cls-4"><circle class="cls-5" cx="85.28" cy="30.18" r="6.99"/><circle class="cls-6" cx="85.28" cy="30.18" r="6.33"/><circle class="cls-5" cx="85.28" cy="30.18" r="5.5"/><path class="cls-6" d="M82.46,30a.46.46,0,0,1,.15-.2.62.62,0,0,1,.2-.12c.07,0,.11,0,.11,0a1.62,1.62,0,0,0,.38.51,1.53,1.53,0,0,0,.6.35,1.1,1.1,0,0,0,.56,0,.43.43,0,0,0,.28-.29.37.37,0,0,0,0-.18,1,1,0,0,0-.06-.14.92.92,0,0,0-.14-.13l-.18-.12-.21-.12-.1-.05a2.55,2.55,0,0,1-.42-.27,2.34,2.34,0,0,1-.33-.31.88.88,0,0,1-.19-.43,1.14,1.14,0,0,1,0-.51,1.11,1.11,0,0,1,.66-.74,1.82,1.82,0,0,1,1.18,0,2.18,2.18,0,0,1,.94.51.63.63,0,0,1,.22.59.44.44,0,0,1-.16.22.69.69,0,0,1-.22.12c-.06,0-.1,0-.11,0A1.37,1.37,0,0,0,84.8,28a.85.85,0,0,0-.52,0,.4.4,0,0,0-.27.28.44.44,0,0,0,0,.1.28.28,0,0,0,0,.09.36.36,0,0,0,0,.09.22.22,0,0,0,.07.07l.08.07.11.07.11.06.14.08.14.08a2.48,2.48,0,0,1,.82.67.94.94,0,0,1,.12.87,1.11,1.11,0,0,1-.67.77,2,2,0,0,1-1.25,0,2.22,2.22,0,0,1-1-.56A.72.72,0,0,1,82.46,30Z"/><path class="cls-6" d="M85.18,32.58a.66.66,0,0,1,.12-.24l2.75-4.07s.07,0,.19,0c.28.09.39.24.33.46a2.58,2.58,0,0,1-.12.24L85.7,33.06s-.08,0-.19,0C85.22,33,85.11,32.8,85.18,32.58Z"/></g><g class="cls-7"><circle class="cls-5" cx="18.39" cy="76.22" r="6.99"/><circle class="cls-6" cx="18.39" cy="76.22" r="6.33"/><circle class="cls-5" cx="18.39" cy="76.22" r="5.5"/><path class="cls-6" d="M16.45,78.27a.48.48,0,0,1-.06-.24.78.78,0,0,1,.05-.24q0-.09.06-.09a1.48,1.48,0,0,0,.64,0,1.56,1.56,0,0,0,.65-.24,1,1,0,0,0,.38-.4.39.39,0,0,0,0-.4.3.3,0,0,0-.13-.12.48.48,0,0,0-.14,0l-.19,0-.2.05-.23.09-.11,0a4.71,4.71,0,0,1-.48.14,2,2,0,0,1-.45,0,1,1,0,0,1-.45-.13,1.28,1.28,0,0,1-.36-.37,1.07,1.07,0,0,1-.13-1,1.72,1.72,0,0,1,.76-.89,2.12,2.12,0,0,1,1-.39.64.64,0,0,1,.6.22.53.53,0,0,1,.06.26.72.72,0,0,1-.05.24c0,.07-.05.1-.06.1A1.4,1.4,0,0,0,17,75a1.5,1.5,0,0,0-.58.21.83.83,0,0,0-.35.38.39.39,0,0,0,0,.39.27.27,0,0,0,.07.08l.08,0,.08,0a.2.2,0,0,0,.11,0l.1,0,.12,0,.13,0,.14,0,.15-.06a2.37,2.37,0,0,1,1.05-.18.93.93,0,0,1,.74.47,1.09,1.09,0,0,1,.15,1,1.94,1.94,0,0,1-.83.93,2.12,2.12,0,0,1-1.09.41A.69.69,0,0,1,16.45,78.27Z"/><path class="cls-6" d="M20.14,77.85a1.58,1.58,0,0,1-.1-.24l-1.3-4.74s0-.06.14-.13.43-.14.56.05a1.23,1.23,0,0,1,.1.24l1.31,4.74s0,.07-.14.13C20.46,78.06,20.27,78.05,20.14,77.85Z"/></g><path class="cls-6" d="M52.07,9.31H70.41a0,0,0,0,1,0,0V22a1.33,1.33,0,0,1-1.33,1.33H53.39A1.33,1.33,0,0,1,52.07,22V9.31a0,0,0,0,1,0,0Z" transform="translate(10.28 -21.36) rotate(21.56)"/><path class="cls-5" d="M55.5,6H73.85a0,0,0,0,1,0,0V8.44a.81.81,0,0,1-.81.81H56.31a.81.81,0,0,1-.81-.81V6A0,0,0,0,1,55.5,6Z" transform="translate(122.02 38.46) rotate(-158.44)"/><path class="cls-5" d="M57.15,15l.22-.55a3,3,0,0,1,1.42-1.68A2.84,2.84,0,0,1,62.4,14.2a2.9,2.9,0,0,1-.11,2.19l-.22.56a2.91,2.91,0,0,1-1.42,1.68,2.53,2.53,0,0,1-2.09,0A2.5,2.5,0,0,1,57,17.21,3,3,0,0,1,57.15,15Zm1.27.55a2,2,0,0,0-.14,1.25,1.09,1.09,0,0,0,.71.74,1.13,1.13,0,0,0,1,0,2,2,0,0,0,.75-1l.28-.72a1.93,1.93,0,0,0,.14-1.26,1.13,1.13,0,0,0-.72-.74,1.11,1.11,0,0,0-1,0,2,2,0,0,0-.75,1Z"/><path class="cls-5" d="M63.38,15.08a.77.77,0,0,1,.21-.31.9.9,0,0,1,.24-.16c.07,0,.11,0,.12,0a.89.89,0,0,0,.45.41A.77.77,0,0,0,65,15a.81.81,0,0,0,.44-.38l.38.15a.56.56,0,0,1,.34.82l-1.81,4.55a.55.55,0,0,1-.8.37l-.16-.06a.54.54,0,0,1-.32-.81l1.39-3.52a.8.8,0,0,1-.55,0,.9.9,0,0,1-.48-.41A.7.7,0,0,1,63.38,15.08Z"/><path class="cls-6" d="M42.35,61.57h61.07a0,0,0,0,1,0,0v42.14A4.42,4.42,0,0,1,99,108.13H46.77a4.42,4.42,0,0,1-4.42-4.42V61.57A0,0,0,0,1,42.35,61.57Z" transform="translate(-12.25 12.3) rotate(-8.9)"/><path class="cls-5" d="M37.54,48.65H98.62a0,0,0,0,1,0,0v8.22a2.7,2.7,0,0,1-2.7,2.7H40.25a2.7,2.7,0,0,1-2.7-2.7V48.65a0,0,0,0,1,0,0Z" transform="translate(143.71 97.04) rotate(171.1)"/><path class="cls-5" d="M59,88.05l-.31-2a9.89,9.89,0,0,1,1.24-7.22,8.32,8.32,0,0,1,6-3.51,8.32,8.32,0,0,1,6.77,1.5,9.79,9.79,0,0,1,3.39,6.48l.31,2a9.83,9.83,0,0,1-1.26,7.22,8.34,8.34,0,0,1-6,3.52,8.3,8.3,0,0,1-6.76-1.5A9.81,9.81,0,0,1,59,88.05Zm4.56-.58a6.54,6.54,0,0,0,1.7,3.83,3.69,3.69,0,0,0,3.3.92,3.74,3.74,0,0,0,2.87-1.86,6.5,6.5,0,0,0,.45-4.16l-.4-2.55a6.55,6.55,0,0,0-1.72-3.84,3.74,3.74,0,0,0-3.32-.92,3.7,3.7,0,0,0-2.85,1.86,6.6,6.6,0,0,0-.43,4.17Z"/><path class="cls-5" d="M77,77.73a2.65,2.65,0,0,1,.09-1.26,2.17,2.17,0,0,1,.43-.84c.16-.17.27-.26.33-.24a2.93,2.93,0,0,0,2,.4,2.52,2.52,0,0,0,1.62-.92A2.72,2.72,0,0,0,82,73l1.33-.21a1.84,1.84,0,0,1,2.35,1.76l2.52,16.13a1.83,1.83,0,0,1-1.69,2.4L86,93.2c-1.31.2-2.07-.39-2.29-1.78L81.72,79a2.82,2.82,0,0,1-1.64.81A2.91,2.91,0,0,1,78,79.42,2.34,2.34,0,0,1,77,77.73Z"/></g><circle class="cls-5" cx="23.19" cy="34.48" r="10.68"/><circle class="cls-6" cx="23.19" cy="34.48" r="9.68"/><circle class="cls-5" cx="23.19" cy="34.48" r="8.41"/><path class="cls-6" d="M19.89,37.26a.57.57,0,0,1-.05-.37,1,1,0,0,1,.1-.35c0-.09.09-.14.11-.13a2.47,2.47,0,0,0,2-.06,1.41,1.41,0,0,0,.65-.55.6.6,0,0,0,0-.62.55.55,0,0,0-.17-.2,1,1,0,0,0-.21-.1,1.05,1.05,0,0,0-.3,0,1.82,1.82,0,0,0-.31,0l-.37.09-.17,0a5.21,5.21,0,0,1-.74.14,3.2,3.2,0,0,1-.69,0,1.29,1.29,0,0,1-.66-.27,1.71,1.71,0,0,1-.49-.62,1.65,1.65,0,0,1,0-1.51,2.66,2.66,0,0,1,1.32-1.23,3.22,3.22,0,0,1,1.58-.41,1,1,0,0,1,.87.43.67.67,0,0,1,0,.4,1,1,0,0,1-.11.36c-.05.1-.09.14-.11.14a2.09,2.09,0,0,0-.88-.17,1.87,1.87,0,0,0-.9.22,1.33,1.33,0,0,0-.61.51.61.61,0,0,0,0,.6.43.43,0,0,0,.09.13.31.31,0,0,0,.11.09l.12.06h.32a.54.54,0,0,0,.19,0l.2,0,.23-.06.24-.06a3.69,3.69,0,0,1,1.62-.1,1.43,1.43,0,0,1,1,.84A1.69,1.69,0,0,1,24,36a2.92,2.92,0,0,1-1.42,1.28,3.29,3.29,0,0,1-1.72.44A1,1,0,0,1,19.89,37.26Z"/><path class="cls-6" d="M25.56,37.27a1.72,1.72,0,0,1-.11-.39l-1.17-7.42s.06-.09.23-.18c.41-.2.69-.14.85.17a2,2,0,0,1,.11.39l1.18,7.42s-.07.09-.23.17C26,37.64,25.72,37.58,25.56,37.27Z"/></svg>