<svg id="Capa_1" data-name="Capa 1" xmlns="http://www.w3.org/2000/svg" xmlns:xlink="http://www.w3.org/1999/xlink" viewBox="0 0 110 110"><defs><style>.cls-1{fill:none;}.cls-2{clip-path:url(#clip-path);}.cls-3{fill:#3198dd;}.cls-4{opacity:0.6;}.cls-5{fill:#41b3f2;}.cls-6{fill:#0088d3;}.cls-7{opacity:0.41;}.cls-8{opacity:0.56;}</style><clipPath id="clip-path"><circle class="cls-1" cx="55" cy="55" r="55"/></clipPath></defs><title>TeOfrecemos_Prestamo_efectivo</title><g class="cls-2"><circle class="cls-3" cx="55" cy="55" r="55"/><g class="cls-4"><path class="cls-5" d="M18.84,51.38,13.3,53.45c-2.84,4.95-4.23,14.45-2.9,20.1a18.53,18.53,0,0,0,.61,2c2.25,6.05,6.85,4.67,14.17,2l.61-.23c7.67-2.86,11.56-4.64,9.26-10.82C33.09,61.38,25.58,54.36,18.84,51.38Z"/><path class="cls-5" d="M7.31,47.5a.65.65,0,0,1,0,.19,1.69,1.69,0,0,0,.15.43h0c.71,1.92,2,2.76,5,4.23h.09l6-2.55.1,0c1-1.44,2-4.65,1.27-6.5l-.16-.43c-.46-1.2-2.34-1.6-3.62-1.16L8.73,44.5a2.35,2.35,0,0,0-1.45,3h0Z"/><path class="cls-6" d="M18.77,66.66c-1.09.14-1.84.33-2.09-.36s.14-1.18,1-1.51a3.07,3.07,0,0,1,2.53.24,1.33,1.33,0,0,0,.37-1.27c-.26-.69-1.52-1.2-3.47-.44s-2.76,2.2-2.19,3.74c.64,1.71,2.15,1.73,3.56,1.58,1-.14,1.88-.34,2.16.43s-.13,1.2-1.09,1.56a3.46,3.46,0,0,1-2.83-.23,1.28,1.28,0,0,0-.34,1.22c.28.76,1.59,1.31,3.74.52s2.94-2.2,2.32-3.86S20.35,66.45,18.77,66.66Z"/><path class="cls-6" d="M24,60.78c-.2,0-.36.18-.34.21l.64,11a2.2,2.2,0,0,0,.1.58.83.83,0,0,0,1.18.39.82.82,0,0,0,.36-.21l-.66-11a2.82,2.82,0,0,0-.1-.58C24.93,60.56,24.38,60.65,24,60.78Z"/></g><g class="cls-7"><circle class="cls-5" cx="74.62" cy="22.35" r="6.93"/><circle class="cls-6" cx="74.62" cy="22.35" r="6.28"/><circle class="cls-5" cx="74.62" cy="22.35" r="5.45"/><path class="cls-6" d="M72.48,24.15a.47.47,0,0,1,0-.24.69.69,0,0,1,.07-.23c0-.06.06-.09.07-.09a1.25,1.25,0,0,0,.62.12,1.53,1.53,0,0,0,.67-.15,1,1,0,0,0,.42-.35.4.4,0,0,0,0-.41.47.47,0,0,0-.11-.13l-.14-.06h-.19l-.2,0-.24.06-.11,0-.49.09a2.19,2.19,0,0,1-.44,0,.91.91,0,0,1-.43-.17,1.18,1.18,0,0,1-.32-.4,1.09,1.09,0,0,1,0-1,1.75,1.75,0,0,1,.85-.8,2.05,2.05,0,0,1,1-.27.64.64,0,0,1,.56.28.39.39,0,0,1,0,.26A.67.67,0,0,1,74,21c0,.06-.05.09-.06.08a1.37,1.37,0,0,0-.57-.1,1.2,1.2,0,0,0-.59.14.77.77,0,0,0-.39.33.39.39,0,0,0,0,.39.56.56,0,0,0,0,.08.21.21,0,0,0,.08.06l.08,0a.17.17,0,0,0,.1,0h.11l.12,0,.13,0,.14,0,.16,0a2.6,2.6,0,0,1,1-.07,1,1,0,0,1,.68.55,1.13,1.13,0,0,1,0,1,1.9,1.9,0,0,1-.92.83,2.12,2.12,0,0,1-1.12.28A.68.68,0,0,1,72.48,24.15Z"/><path class="cls-6" d="M76.16,24.15a1.35,1.35,0,0,1-.07-.25l-.76-4.81s0-.06.15-.11.45-.1.55.11a.69.69,0,0,1,.07.25l.77,4.81s-.05.06-.15.11C76.45,24.39,76.26,24.36,76.16,24.15Z"/></g><g class="cls-7"><circle class="cls-5" cx="47.57" cy="57.39" r="6.93"/><circle class="cls-6" cx="47.57" cy="57.39" r="6.28"/><circle class="cls-5" cx="47.57" cy="57.39" r="5.45"/><path class="cls-6" d="M45.44,59.2a.33.33,0,0,1,0-.24.64.64,0,0,1,.06-.23c0-.06.06-.09.07-.09a1.27,1.27,0,0,0,.63.12,1.4,1.4,0,0,0,.66-.16,1,1,0,0,0,.43-.35.41.41,0,0,0,0-.4.28.28,0,0,0-.11-.13.42.42,0,0,0-.14-.06h-.19l-.2,0-.24.06-.11,0-.48.09a2.29,2.29,0,0,1-.45,0,1,1,0,0,1-.43-.17,1.31,1.31,0,0,1-.32-.4,1.09,1.09,0,0,1,0-1,1.75,1.75,0,0,1,.85-.8,2.05,2.05,0,0,1,1-.27.63.63,0,0,1,.56.28.38.38,0,0,1,0,.26A.68.68,0,0,1,47,56c0,.06-.06.09-.07.08a1.48,1.48,0,0,0-.57-.11,1.5,1.5,0,0,0-.59.14.89.89,0,0,0-.39.34.41.41,0,0,0,0,.39l.06.08a.13.13,0,0,0,.07.06l.08,0h.21l.12,0L46,57l.15,0,.15,0a2.48,2.48,0,0,1,1.06-.07,1,1,0,0,1,.67.55,1.07,1.07,0,0,1,0,1,1.9,1.9,0,0,1-.92.83,2.08,2.08,0,0,1-1.11.28A.68.68,0,0,1,45.44,59.2Z"/><path class="cls-6" d="M49.12,59.2A.81.81,0,0,1,49,59l-.76-4.81s0-.06.15-.11c.27-.13.45-.1.56.11a1.12,1.12,0,0,1,.06.25l.77,4.81s0,.06-.15.11C49.4,59.44,49.22,59.41,49.12,59.2Z"/></g><g class="cls-8"><circle class="cls-6" cx="31.61" cy="22.23" r="12.35"/><circle class="cls-3" cx="31.61" cy="22.23" r="11.19"/><circle class="cls-6" cx="31.61" cy="22.23" r="9.72"/><path class="cls-3" d="M26.69,21.43a.68.68,0,0,1,.29-.32,1.12,1.12,0,0,1,.38-.17c.12,0,.19,0,.2,0a2.74,2.74,0,0,0,1.55,1.7,1.74,1.74,0,0,0,1,.17.71.71,0,0,0,.55-.46.63.63,0,0,0,.05-.3.8.8,0,0,0-.08-.26,1.12,1.12,0,0,0-.22-.26c-.11-.11-.21-.18-.28-.24L29.75,21l-.17-.12a6.19,6.19,0,0,1-.68-.55,3.15,3.15,0,0,1-.52-.61,1.68,1.68,0,0,1-.26-.79,2.11,2.11,0,0,1,.18-.89,1.94,1.94,0,0,1,1.3-1.17,3.15,3.15,0,0,1,2.07.23,3.57,3.57,0,0,1,1.55,1.09,1.08,1.08,0,0,1,.27,1.08.72.72,0,0,1-.31.34,1.23,1.23,0,0,1-.41.17c-.12,0-.18,0-.19,0a2.43,2.43,0,0,0-.52-.9,2.27,2.27,0,0,0-.87-.63,1.49,1.49,0,0,0-.91-.14.68.68,0,0,0-.53.44.37.37,0,0,0-.05.17.49.49,0,0,0,0,.17.88.88,0,0,0,.05.15.42.42,0,0,0,.11.14l.13.14a.66.66,0,0,0,.17.14l.19.14.22.16.23.16a4.25,4.25,0,0,1,1.31,1.35,1.69,1.69,0,0,1,0,1.55,2,2,0,0,1-1.34,1.22,3.42,3.42,0,0,1-2.19-.29A3.82,3.82,0,0,1,27,22.61,1.22,1.22,0,0,1,26.69,21.43Z"/><path class="cls-3" d="M31,26.42a1.72,1.72,0,0,1,.26-.39l5.63-6.61s.13,0,.33.07c.48.21.65.5.49.87a1.5,1.5,0,0,1-.26.39l-5.62,6.62s-.14,0-.33-.08C31,27.09,30.79,26.79,31,26.42Z"/></g><path class="cls-6" d="M79.28,61,67.12,58C56.29,63.33,42.61,78.34,38.24,89.81a36.45,36.45,0,0,0-1.35,4.31c-3.22,13.29,6.47,16.31,22.51,20.23l1.34.33c16.83,4.06,25.73,5.55,29-8C92.42,95.36,87.57,74.15,79.28,61Z"/><path class="cls-6" d="M63.67,40.5a1.4,1.4,0,0,1-.16.38,3.56,3.56,0,0,0-.24.92h0C62.25,46,63.55,49,67,55.16l.17.07,13.45,2.58.2.09c3.51-1.3,8.94-5.83,9.92-9.88l.23-.94c.6-2.66-2.21-5.58-5-6.33L69.71,36.91a5,5,0,0,0-6.09,3.55h0Z"/><path class="cls-5" d="M61.06,87.64c-2.06-1-3.6-1.59-3.23-3.11s1.64-1.9,3.59-1.42a6.44,6.44,0,0,1,4.14,3.4,2.78,2.78,0,0,0,2.15-1.77c.36-1.52-1.24-3.91-5.56-4.89s-7.44.58-8.26,4c-.91,3.73,1.71,5.58,4.37,7,2,1,3.7,1.63,3.28,3.31s-1.67,2-3.76,1.45a7.28,7.28,0,0,1-4.69-3.75,2.7,2.7,0,0,0-2,1.73c-.41,1.66,1.23,4.19,5.93,5.34s7.77-.38,8.65-4S64.09,89.16,61.06,87.64Z"/><path class="cls-5" d="M77.22,83.56a1,1,0,0,0-.85-.06l-11.86,20a4.82,4.82,0,0,0-.5,1.14c-.33,1.35.85,1.89,1.61,2.07a1.68,1.68,0,0,0,.86.07l11.83-20a5.26,5.26,0,0,0,.5-1.14C79.09,84.24,78,83.75,77.22,83.56Z"/></g></svg>