<svg xmlns="http://www.w3.org/2000/svg" viewBox="0 0 275 80"><defs><style>.cls-1{fill:#ffcc5e;}.cls-2{fill:#ff9e21;}.cls-3{fill:#ecbd69;}.cls-4{opacity:0.63;}</style></defs><title>Banner_TC_Oro</title><g id="Capa_2" data-name="Capa 2"><g id="Capa_1-2" data-name="Capa 1"><rect class="cls-1" width="275" height="80" rx="5"/><path class="cls-2" d="M248.46,51.16,198.12,62a3.16,3.16,0,0,1-3.75-2.44v0l-6-28.63A3.21,3.21,0,0,1,190.83,27l50.35-10.8a3.17,3.17,0,0,1,3.75,2.44v0l5.95,28.63A3.21,3.21,0,0,1,248.46,51.16Z"/><path class="cls-3" d="M205,41.38l-5.68,1.23a1.42,1.42,0,0,1-1.67-1.11h0l-.95-4.59a1.44,1.44,0,0,1,1.09-1.71L203.45,34a1.42,1.42,0,0,1,1.67,1.1h0l.95,4.59A1.43,1.43,0,0,1,205,41.38Z"/><ellipse class="cls-3" cx="200.31" cy="48.05" rx="0.7" ry="0.71" transform="translate(-5.62 43.09) rotate(-12.11)"/><ellipse class="cls-3" cx="202.47" cy="47.58" rx="0.7" ry="0.71" transform="translate(-5.48 43.53) rotate(-12.11)"/><ellipse class="cls-3" cx="204.64" cy="47.12" rx="0.7" ry="0.71" transform="translate(-5.33 43.98) rotate(-12.11)"/><ellipse class="cls-3" cx="206.8" cy="46.66" rx="0.7" ry="0.71" transform="translate(-5.19 44.42) rotate(-12.11)"/><ellipse class="cls-3" cx="210.58" cy="45.85" rx="0.7" ry="0.71" transform="translate(-4.93 45.19) rotate(-12.11)"/><ellipse class="cls-3" cx="212.74" cy="45.39" rx="0.7" ry="0.71" transform="translate(-4.79 45.64) rotate(-12.11)"/><ellipse class="cls-3" cx="214.91" cy="44.92" rx="0.7" ry="0.71" transform="translate(-4.64 46.08) rotate(-12.11)"/><ellipse class="cls-3" cx="217.06" cy="44.45" rx="0.7" ry="0.71" transform="translate(-4.5 46.52) rotate(-12.11)"/><ellipse class="cls-3" cx="220.85" cy="43.64" rx="0.7" ry="0.71" transform="translate(-4.24 47.3) rotate(-12.11)"/><ellipse class="cls-3" cx="223.01" cy="43.18" rx="0.7" ry="0.71" transform="translate(-4.1 47.74) rotate(-12.11)"/><ellipse class="cls-3" cx="225.17" cy="42.72" rx="0.7" ry="0.71" transform="translate(-3.95 48.19) rotate(-12.11)"/><ellipse class="cls-3" cx="227.34" cy="42.25" rx="0.7" ry="0.71" transform="translate(-3.8 48.63) rotate(-12.11)"/><ellipse class="cls-3" cx="231.12" cy="41.44" rx="0.7" ry="0.71" transform="translate(-3.55 49.4) rotate(-12.11)"/><path class="cls-3" d="M233.14,40.28a.72.72,0,1,1-.54.85A.72.72,0,0,1,233.14,40.28Z"/><ellipse class="cls-3" cx="235.45" cy="40.51" rx="0.7" ry="0.71" transform="translate(-3.26 50.29) rotate(-12.11)"/><ellipse class="cls-3" cx="238.68" cy="39.96" rx="0.71" ry="0.72" transform="translate(-3.07 50.93) rotate(-12.1)"/><path class="cls-3" d="M191.43,45.74l3,13.78A3.25,3.25,0,0,0,198.26,62l2.92-.63s-2.76.41-3.19-1.58l-2.84-13.13a1.69,1.69,0,0,0-2-1.3Z"/><path class="cls-2" d="M187.54,69,156,52.59a2.21,2.21,0,0,0-3,1l-9.42,17.84,0,0a2.19,2.19,0,0,0,.93,2.94L155.41,80H184.2l4.25-8,0,0A2.19,2.19,0,0,0,187.54,69Z"/><path class="cls-3" d="M157.25,66.43l-3.56-1.84a1,1,0,0,1-.4-1.32h0l1.51-2.86a1,1,0,0,1,1.33-.43l3.56,1.85a1,1,0,0,1,.41,1.32h0L158.58,66A1,1,0,0,1,157.25,66.43Z"/><ellipse class="cls-3" cx="151.84" cy="67.93" rx="0.49" ry="0.49" transform="translate(21.54 171.33) rotate(-62.54)"/><ellipse class="cls-3" cx="153.19" cy="68.63" rx="0.49" ry="0.49" transform="matrix(0.46, -0.89, 0.89, 0.46, 21.65, 172.9)"/><ellipse class="cls-3" cx="154.55" cy="69.34" rx="0.49" ry="0.49" transform="translate(21.75 174.49) rotate(-62.54)"/><ellipse class="cls-3" cx="155.89" cy="70.04" rx="0.49" ry="0.49" transform="translate(21.86 176.07) rotate(-62.54)"/><ellipse class="cls-3" cx="158.26" cy="71.27" rx="0.49" ry="0.49" transform="translate(22.04 178.83) rotate(-62.54)"/><ellipse class="cls-3" cx="159.62" cy="71.97" rx="0.49" ry="0.49" transform="translate(22.14 180.41) rotate(-62.54)"/><ellipse class="cls-3" cx="160.97" cy="72.68" rx="0.49" ry="0.49" transform="translate(22.25 182) rotate(-62.54)"/><ellipse class="cls-3" cx="162.32" cy="73.38" rx="0.49" ry="0.49" transform="translate(22.36 183.57) rotate(-62.54)"/><ellipse class="cls-3" cx="164.7" cy="74.61" rx="0.49" ry="0.49" transform="translate(22.54 186.34) rotate(-62.54)"/><ellipse class="cls-3" cx="166.05" cy="75.31" rx="0.49" ry="0.49" transform="translate(22.65 187.92) rotate(-62.54)"/><ellipse class="cls-3" cx="167.4" cy="76.02" rx="0.49" ry="0.49" transform="translate(22.75 189.5) rotate(-62.54)"/><path class="cls-3" d="M148.13,62.8l-4.48,8.63a2.24,2.24,0,0,0,1,3l1.83,1s-1.65-1-1-2.25l4.26-8.22a1.17,1.17,0,0,0-.5-1.57Z"/><g class="cls-4"><path class="cls-2" d="M172.92,0a2.24,2.24,0,0,0,1,1.09l31.51,16.38a2.21,2.21,0,0,0,3-1L217.11,0Z"/><path class="cls-3" d="M172.92,0A2.19,2.19,0,0,0,174,1.18l1.83.94s-1.53-.93-1-2.12Z"/><ellipse class="cls-3" cx="194.05" cy="1.34" rx="0.49" ry="0.49" transform="translate(103.38 172.91) rotate(-62.54)"/><ellipse class="cls-3" cx="195.4" cy="2.04" rx="0.49" ry="0.49" transform="translate(103.48 174.48) rotate(-62.54)"/><ellipse class="cls-3" cx="196.76" cy="2.75" rx="0.49" ry="0.49" transform="translate(103.58 176.07) rotate(-62.54)"/><ellipse class="cls-3" cx="198.12" cy="3.45" rx="0.49" ry="0.49" transform="translate(103.69 177.65) rotate(-62.54)"/><ellipse class="cls-3" cx="200.48" cy="4.68" rx="0.49" ry="0.49" transform="translate(103.87 180.41) rotate(-62.54)"/><path class="cls-3" d="M202.06,5a.49.49,0,0,1,.21.66.49.49,0,0,1-.66.21.49.49,0,0,1,.45-.87Z"/><ellipse class="cls-3" cx="203.19" cy="6.09" rx="0.49" ry="0.49" transform="translate(104.09 183.58) rotate(-62.54)"/><ellipse class="cls-3" cx="205.15" cy="7.22" rx="0.49" ry="0.49" transform="translate(104.12 185.91) rotate(-62.53)"/></g><path class="cls-2" d="M274,61v0a2,2,0,0,0-2.4-1.55L239.51,66.5A2.06,2.06,0,0,0,238,68.94L240.33,80h29.54a5,5,0,0,0,5-5V64.92Z"/><path class="cls-3" d="M248.59,75.62l-3.62.8a.92.92,0,0,1-1.08-.7h0l-.62-2.93a.91.91,0,0,1,.69-1.09l3.63-.8a.9.9,0,0,1,1.07.7h0l.62,2.93A.92.92,0,0,1,248.59,75.62Z"/><ellipse class="cls-3" cx="261.49" cy="76.4" rx="0.45" ry="0.46" transform="translate(-10.31 57.94) rotate(-12.4)"/><ellipse class="cls-3" cx="262.87" cy="76.1" rx="0.45" ry="0.46" transform="translate(-10.21 58.23) rotate(-12.4)"/><ellipse class="cls-3" cx="265.29" cy="75.57" rx="0.45" ry="0.46" transform="translate(-10.04 58.74) rotate(-12.4)"/><path class="cls-3" d="M266.57,74.82a.47.47,0,0,1,.54.35.45.45,0,0,1-.34.54.44.44,0,0,1-.54-.35A.46.46,0,0,1,266.57,74.82Z"/><ellipse class="cls-3" cx="268.05" cy="74.96" rx="0.45" ry="0.46" transform="translate(-9.84 59.32) rotate(-12.4)"/><ellipse class="cls-3" cx="270.11" cy="74.6" rx="0.45" ry="0.46" transform="translate(-9.72 59.72) rotate(-12.4)"/><path class="cls-2" d="M269.87,0H254.21L251.7,6.36v0A2,2,0,0,0,252.85,9l22,8.5V5A5,5,0,0,0,269.87,0Z"/><ellipse class="cls-3" cx="258.88" cy="2.34" rx="0.46" ry="0.45" transform="translate(163.49 243.02) rotate(-68.9)"/><ellipse class="cls-3" cx="260.2" cy="2.85" rx="0.46" ry="0.45" transform="translate(163.86 244.57) rotate(-68.9)"/><ellipse class="cls-3" cx="261.52" cy="3.36" rx="0.46" ry="0.45" transform="translate(164.22 246.13) rotate(-68.9)"/><ellipse class="cls-3" cx="262.83" cy="3.87" rx="0.46" ry="0.45" transform="translate(164.59 247.68) rotate(-68.9)"/><ellipse class="cls-3" cx="265.14" cy="4.76" rx="0.46" ry="0.45" transform="translate(165.24 250.4) rotate(-68.9)"/><ellipse class="cls-3" cx="266.46" cy="5.27" rx="0.46" ry="0.45" transform="translate(165.6 251.96) rotate(-68.9)"/><ellipse class="cls-3" cx="267.78" cy="5.78" rx="0.46" ry="0.45" transform="translate(165.97 253.51) rotate(-68.9)"/><ellipse class="cls-3" cx="269.09" cy="6.28" rx="0.46" ry="0.45" transform="translate(166.35 255.06) rotate(-68.9)"/><ellipse class="cls-3" cx="271.4" cy="7.17" rx="0.46" ry="0.45" transform="translate(166.99 257.79) rotate(-68.9)"/><ellipse class="cls-3" cx="272.72" cy="7.68" rx="0.46" ry="0.45" transform="translate(167.36 259.34) rotate(-68.9)"/><ellipse class="cls-3" cx="274.03" cy="8.19" rx="0.46" ry="0.45" transform="translate(167.73 260.9) rotate(-68.9)"/><path class="cls-3" d="M256.53,0h-2.35l-2.47,6.41a2.07,2.07,0,0,0,1.19,2.67l1.78.69s-1.62-.75-1.15-2Z"/></g></g></svg>