<svg xmlns="http://www.w3.org/2000/svg" viewBox="0 0 275 80.03"><defs><style>.cls-1{fill:#353637;}.cls-2{fill:#7d7d7d;}.cls-3{fill:#b7b7b7;}.cls-4{opacity:0.63;}</style></defs><title>Banner_TC_Signature</title><g id="Capa_2" data-name="Capa 2"><g id="Capa_1-2" data-name="Capa 1"><rect class="cls-1" y="0.03" width="275" height="80" rx="5"/><path class="cls-2" d="M248,51.16,197.65,62a3.17,3.17,0,0,1-3.75-2.44v0l-5.95-28.63A3.21,3.21,0,0,1,190.37,27l50.34-10.8a3.16,3.16,0,0,1,3.75,2.44v0l5.95,28.63A3.21,3.21,0,0,1,248,51.16Z"/><path class="cls-3" d="M204.51,41.38l-5.68,1.23a1.43,1.43,0,0,1-1.67-1.11h0l-.95-4.59a1.45,1.45,0,0,1,1.09-1.71L203,34a1.41,1.41,0,0,1,1.67,1.1h0l1,4.59A1.45,1.45,0,0,1,204.51,41.38Z"/><ellipse class="cls-3" cx="199.84" cy="48.05" rx="0.7" ry="0.71" transform="translate(-5.63 42.99) rotate(-12.11)"/><ellipse class="cls-3" cx="202" cy="47.58" rx="0.7" ry="0.71" transform="translate(-5.49 43.43) rotate(-12.11)"/><ellipse class="cls-3" cx="204.17" cy="47.12" rx="0.7" ry="0.71" transform="translate(-5.34 43.88) rotate(-12.11)"/><ellipse class="cls-3" cx="206.33" cy="46.66" rx="0.7" ry="0.71" transform="translate(-5.2 44.32) rotate(-12.11)"/><ellipse class="cls-3" cx="210.11" cy="45.85" rx="0.7" ry="0.71" transform="translate(-4.94 45.1) rotate(-12.11)"/><ellipse class="cls-3" cx="212.28" cy="45.39" rx="0.7" ry="0.71" transform="translate(-4.8 45.54) rotate(-12.11)"/><ellipse class="cls-3" cx="214.44" cy="44.92" rx="0.7" ry="0.71" transform="translate(-4.65 45.98) rotate(-12.11)"/><ellipse class="cls-3" cx="216.6" cy="44.45" rx="0.7" ry="0.71" transform="translate(-4.51 46.42) rotate(-12.11)"/><ellipse class="cls-3" cx="220.39" cy="43.64" rx="0.7" ry="0.71" transform="translate(-4.25 47.2) rotate(-12.11)"/><ellipse class="cls-3" cx="222.54" cy="43.18" rx="0.7" ry="0.71" transform="translate(-4.11 47.64) rotate(-12.11)"/><ellipse class="cls-3" cx="224.71" cy="42.72" rx="0.7" ry="0.71" transform="translate(-3.96 48.09) rotate(-12.11)"/><ellipse class="cls-3" cx="226.87" cy="42.25" rx="0.7" ry="0.71" transform="translate(-3.81 48.53) rotate(-12.11)"/><ellipse class="cls-3" cx="230.66" cy="41.44" rx="0.7" ry="0.71" transform="translate(-3.56 49.31) rotate(-12.11)"/><path class="cls-3" d="M232.67,40.28a.72.72,0,1,1-.54.85A.71.71,0,0,1,232.67,40.28Z"/><ellipse class="cls-3" cx="234.98" cy="40.51" rx="0.7" ry="0.71" transform="translate(-3.27 50.19) rotate(-12.11)"/><ellipse class="cls-3" cx="238.22" cy="39.96" rx="0.71" ry="0.72" transform="translate(-3.08 50.83) rotate(-12.1)"/><path class="cls-3" d="M191,45.74l3,13.78A3.24,3.24,0,0,0,197.79,62l2.92-.63s-2.76.41-3.19-1.58l-2.83-13.13a1.7,1.7,0,0,0-2-1.3Z"/><path class="cls-2" d="M187.08,69,155.56,52.59a2.22,2.22,0,0,0-3,1l-9.42,17.84v0a2.18,2.18,0,0,0,.92,2.94L154.94,80h28.79L188,72v0A2.18,2.18,0,0,0,187.08,69Z"/><path class="cls-3" d="M156.78,66.43l-3.56-1.84a1,1,0,0,1-.4-1.32h0l1.51-2.86a1,1,0,0,1,1.34-.43l3.55,1.85a1,1,0,0,1,.41,1.32h0L158.11,66A1,1,0,0,1,156.78,66.43Z"/><ellipse class="cls-3" cx="151.37" cy="67.93" rx="0.49" ry="0.49" transform="translate(21.29 170.91) rotate(-62.54)"/><ellipse class="cls-3" cx="152.72" cy="68.63" rx="0.49" ry="0.49" transform="translate(21.4 172.49) rotate(-62.54)"/><ellipse class="cls-3" cx="154.08" cy="69.34" rx="0.49" ry="0.49" transform="translate(21.5 174.08) rotate(-62.54)"/><ellipse class="cls-3" cx="155.43" cy="70.04" rx="0.49" ry="0.49" transform="translate(21.6 175.65) rotate(-62.54)"/><ellipse class="cls-3" cx="157.8" cy="71.27" rx="0.49" ry="0.49" transform="translate(21.79 178.42) rotate(-62.54)"/><ellipse class="cls-3" cx="159.15" cy="71.97" rx="0.49" ry="0.49" transform="translate(21.89 180) rotate(-62.54)"/><ellipse class="cls-3" cx="160.51" cy="72.68" rx="0.49" ry="0.49" transform="translate(22 181.58) rotate(-62.54)"/><ellipse class="cls-3" cx="161.86" cy="73.38" rx="0.49" ry="0.49" transform="translate(22.11 183.16) rotate(-62.54)"/><ellipse class="cls-3" cx="164.23" cy="74.61" rx="0.49" ry="0.49" transform="translate(22.29 185.93) rotate(-62.54)"/><ellipse class="cls-3" cx="165.58" cy="75.31" rx="0.49" ry="0.49" transform="translate(22.39 187.5) rotate(-62.54)"/><ellipse class="cls-3" cx="166.93" cy="76.02" rx="0.49" ry="0.49" transform="translate(22.5 189.08) rotate(-62.54)"/><path class="cls-3" d="M147.66,62.8l-4.48,8.63a2.25,2.25,0,0,0,1,3l1.83,1s-1.65-1-1-2.25l4.26-8.22a1.15,1.15,0,0,0-.5-1.57Z"/><g class="cls-4"><path class="cls-2" d="M172.46,0a2.18,2.18,0,0,0,1,1.09L205,17.47a2.22,2.22,0,0,0,3-1L216.64,0Z"/><path class="cls-3" d="M172.45,0a2.23,2.23,0,0,0,1.05,1.18l1.83.94s-1.53-.93-1-2.12Z"/><ellipse class="cls-3" cx="193.59" cy="1.34" rx="0.49" ry="0.49" transform="translate(103.12 172.49) rotate(-62.54)"/><ellipse class="cls-3" cx="194.94" cy="2.04" rx="0.49" ry="0.49" transform="translate(103.23 174.07) rotate(-62.54)"/><ellipse class="cls-3" cx="196.29" cy="2.75" rx="0.49" ry="0.49" transform="translate(103.33 175.65) rotate(-62.54)"/><ellipse class="cls-3" cx="197.65" cy="3.45" rx="0.49" ry="0.49" transform="translate(103.44 177.23) rotate(-62.54)"/><ellipse class="cls-3" cx="200.01" cy="4.68" rx="0.49" ry="0.49" transform="translate(103.62 180) rotate(-62.54)"/><path class="cls-3" d="M201.6,5a.5.5,0,0,1,.2.66.49.49,0,0,1-.66.21.48.48,0,0,1-.2-.66A.49.49,0,0,1,201.6,5Z"/><ellipse class="cls-3" cx="202.73" cy="6.09" rx="0.49" ry="0.49" transform="translate(103.83 183.16) rotate(-62.54)"/><ellipse class="cls-3" cx="204.69" cy="7.22" rx="0.49" ry="0.49" transform="translate(103.87 185.5) rotate(-62.53)"/></g><path class="cls-2" d="M273.57,61v0a2,2,0,0,0-2.41-1.55L239,66.5a2,2,0,0,0-1.53,2.44L239.86,80h29.55a5,5,0,0,0,5-5V64.92Z"/><path class="cls-3" d="M248.12,75.62l-3.62.8a.9.9,0,0,1-1.07-.7h0l-.62-2.93a.91.91,0,0,1,.69-1.09l3.62-.8a.9.9,0,0,1,1.07.7h0l.63,2.93A.93.93,0,0,1,248.12,75.62Z"/><ellipse class="cls-3" cx="261.03" cy="76.4" rx="0.45" ry="0.46" transform="translate(-10.32 57.84) rotate(-12.4)"/><ellipse class="cls-3" cx="262.41" cy="76.1" rx="0.45" ry="0.46" transform="translate(-10.22 58.13) rotate(-12.4)"/><ellipse class="cls-3" cx="264.82" cy="75.57" rx="0.45" ry="0.46" transform="translate(-10.05 58.64) rotate(-12.4)"/><path class="cls-3" d="M266.1,74.82a.46.46,0,0,1,.54.35.44.44,0,0,1-.34.54.45.45,0,0,1-.54-.35A.46.46,0,0,1,266.1,74.82Z"/><ellipse class="cls-3" cx="267.58" cy="74.96" rx="0.45" ry="0.46" transform="translate(-9.86 59.22) rotate(-12.4)"/><ellipse class="cls-3" cx="269.65" cy="74.6" rx="0.45" ry="0.46" transform="translate(-9.73 59.62) rotate(-12.4)"/><path class="cls-2" d="M269.41,0H253.74l-2.5,6.36v0A2,2,0,0,0,252.38,9l22,8.5V5A5,5,0,0,0,269.41,0Z"/><ellipse class="cls-3" cx="258.42" cy="2.34" rx="0.46" ry="0.45" transform="translate(163.19 242.58) rotate(-68.9)"/><ellipse class="cls-3" cx="259.73" cy="2.85" rx="0.46" ry="0.45" transform="translate(163.56 244.13) rotate(-68.9)"/><ellipse class="cls-3" cx="261.05" cy="3.36" rx="0.46" ry="0.45" transform="translate(163.93 245.7) rotate(-68.9)"/><ellipse class="cls-3" cx="262.37" cy="3.87" rx="0.46" ry="0.45" transform="translate(164.29 247.25) rotate(-68.9)"/><ellipse class="cls-3" cx="264.67" cy="4.76" rx="0.46" ry="0.45" transform="translate(164.94 249.97) rotate(-68.9)"/><ellipse class="cls-3" cx="265.99" cy="5.27" rx="0.46" ry="0.45" transform="translate(165.31 251.52) rotate(-68.9)"/><ellipse class="cls-3" cx="267.31" cy="5.78" rx="0.46" ry="0.45" transform="matrix(0.36, -0.93, 0.93, 0.36, 165.67, 253.08)"/><ellipse class="cls-3" cx="268.63" cy="6.28" rx="0.46" ry="0.45" transform="translate(166.05 254.63) rotate(-68.9)"/><ellipse class="cls-3" cx="270.94" cy="7.17" rx="0.46" ry="0.45" transform="translate(166.69 257.35) rotate(-68.9)"/><ellipse class="cls-3" cx="272.25" cy="7.68" rx="0.46" ry="0.45" transform="matrix(0.36, -0.93, 0.93, 0.36, 167.06, 258.9)"/><ellipse class="cls-3" cx="273.57" cy="8.19" rx="0.46" ry="0.45" transform="translate(167.43 260.46) rotate(-68.9)"/><path class="cls-3" d="M256.07,0h-2.36l-2.46,6.41a2.06,2.06,0,0,0,1.18,2.67l1.79.69s-1.62-.75-1.16-2Z"/></g></g></svg>