<svg xmlns="http://www.w3.org/2000/svg" viewBox="0 0 275 80.03"><defs><style>.cls-1{fill:#999;}.cls-2{fill:#7d7d7d;}.cls-3{fill:#b7b7b7;}.cls-4{opacity:0.63;}</style></defs><title>Banner_TC_Platinum</title><g id="Capa_2" data-name="Capa 2"><g id="Capa_1-2" data-name="Capa 1"><rect class="cls-1" y="0.03" width="275" height="80" rx="5"/><path class="cls-2" d="M248.19,51.16,197.85,62a3.18,3.18,0,0,1-3.76-2.44v0l-6-28.63A3.21,3.21,0,0,1,190.56,27l50.34-10.8a3.16,3.16,0,0,1,3.75,2.44v0l6,28.63A3.21,3.21,0,0,1,248.19,51.16Z"/><path class="cls-3" d="M204.7,41.38,199,42.61a1.43,1.43,0,0,1-1.68-1.11h0l-.95-4.59a1.45,1.45,0,0,1,1.09-1.71L203.17,34a1.42,1.42,0,0,1,1.68,1.1h0l1,4.59A1.44,1.44,0,0,1,204.7,41.38Z"/><ellipse class="cls-3" cx="200.04" cy="48.05" rx="0.7" ry="0.71" transform="translate(-5.63 43.03) rotate(-12.11)"/><ellipse class="cls-3" cx="202.19" cy="47.58" rx="0.7" ry="0.71" transform="translate(-5.48 43.47) rotate(-12.11)"/><ellipse class="cls-3" cx="204.37" cy="47.12" rx="0.7" ry="0.71" transform="translate(-5.34 43.92) rotate(-12.11)"/><ellipse class="cls-3" cx="206.52" cy="46.66" rx="0.7" ry="0.71" transform="translate(-5.19 44.36) rotate(-12.11)"/><ellipse class="cls-3" cx="210.3" cy="45.85" rx="0.7" ry="0.71" transform="translate(-4.94 45.14) rotate(-12.11)"/><ellipse class="cls-3" cx="212.47" cy="45.39" rx="0.7" ry="0.71" transform="translate(-4.79 45.58) rotate(-12.11)"/><ellipse class="cls-3" cx="214.63" cy="44.92" rx="0.7" ry="0.71" transform="translate(-4.65 46.02) rotate(-12.11)"/><ellipse class="cls-3" cx="216.79" cy="44.45" rx="0.7" ry="0.71" transform="translate(-4.5 46.46) rotate(-12.11)"/><ellipse class="cls-3" cx="220.58" cy="43.64" rx="0.7" ry="0.71" transform="translate(-4.25 47.24) rotate(-12.11)"/><ellipse class="cls-3" cx="222.73" cy="43.18" rx="0.7" ry="0.71" transform="translate(-4.1 47.68) rotate(-12.11)"/><ellipse class="cls-3" cx="224.9" cy="42.72" rx="0.7" ry="0.71" transform="translate(-3.96 48.13) rotate(-12.11)"/><ellipse class="cls-3" cx="227.06" cy="42.25" rx="0.7" ry="0.71" transform="translate(-3.81 48.57) rotate(-12.11)"/><ellipse class="cls-3" cx="230.85" cy="41.44" rx="0.7" ry="0.71" transform="translate(-3.56 49.35) rotate(-12.11)"/><path class="cls-3" d="M232.86,40.28a.72.72,0,1,1-.54.85A.71.71,0,0,1,232.86,40.28Z"/><ellipse class="cls-3" cx="235.18" cy="40.51" rx="0.7" ry="0.71" transform="translate(-3.27 50.23) rotate(-12.11)"/><ellipse class="cls-3" cx="238.41" cy="39.96" rx="0.71" ry="0.72" transform="translate(-3.08 50.87) rotate(-12.1)"/><path class="cls-3" d="M191.16,45.74l3,13.78A3.24,3.24,0,0,0,198,62l2.92-.63s-2.76.41-3.19-1.58l-2.83-13.13a1.7,1.7,0,0,0-2-1.3Z"/><path class="cls-2" d="M187.27,69,155.75,52.59a2.22,2.22,0,0,0-3,1l-9.42,17.84v0a2.18,2.18,0,0,0,.92,2.94L155.13,80h28.8l4.25-8v0A2.18,2.18,0,0,0,187.27,69Z"/><path class="cls-3" d="M157,66.43l-3.56-1.84a1,1,0,0,1-.4-1.32h0l1.52-2.86a1,1,0,0,1,1.33-.43l3.56,1.85a1,1,0,0,1,.4,1.32h0L158.3,66A1,1,0,0,1,157,66.43Z"/><ellipse class="cls-3" cx="151.56" cy="67.93" rx="0.49" ry="0.49" transform="translate(21.4 171.08) rotate(-62.54)"/><ellipse class="cls-3" cx="152.91" cy="68.63" rx="0.49" ry="0.49" transform="translate(21.5 172.66) rotate(-62.54)"/><ellipse class="cls-3" cx="154.27" cy="69.34" rx="0.49" ry="0.49" transform="translate(21.6 174.25) rotate(-62.54)"/><ellipse class="cls-3" cx="155.62" cy="70.04" rx="0.49" ry="0.49" transform="translate(21.71 175.82) rotate(-62.54)"/><ellipse class="cls-3" cx="157.99" cy="71.27" rx="0.49" ry="0.49" transform="translate(21.89 178.59) rotate(-62.54)"/><ellipse class="cls-3" cx="159.34" cy="71.97" rx="0.49" ry="0.49" transform="translate(21.99 180.17) rotate(-62.54)"/><ellipse class="cls-3" cx="160.7" cy="72.68" rx="0.49" ry="0.49" transform="translate(22.1 181.75) rotate(-62.54)"/><ellipse class="cls-3" cx="162.05" cy="73.38" rx="0.49" ry="0.49" transform="translate(22.21 183.33) rotate(-62.54)"/><ellipse class="cls-3" cx="164.42" cy="74.61" rx="0.49" ry="0.49" transform="translate(22.39 186.1) rotate(-62.54)"/><ellipse class="cls-3" cx="165.77" cy="75.31" rx="0.49" ry="0.49" transform="translate(22.5 187.67) rotate(-62.54)"/><ellipse class="cls-3" cx="167.13" cy="76.02" rx="0.49" ry="0.49" transform="translate(22.6 189.25) rotate(-62.54)"/><path class="cls-3" d="M147.85,62.8l-4.47,8.63a2.24,2.24,0,0,0,1,3l1.83,1s-1.65-1-1-2.25l4.26-8.22a1.15,1.15,0,0,0-.5-1.57Z"/><g class="cls-4"><path class="cls-2" d="M172.65,0a2.18,2.18,0,0,0,1,1.09l31.52,16.38a2.21,2.21,0,0,0,3-1L216.84,0Z"/><path class="cls-3" d="M172.64,0a2.23,2.23,0,0,0,1.05,1.18l1.83.94s-1.52-.93-1-2.12Z"/><ellipse class="cls-3" cx="193.78" cy="1.34" rx="0.49" ry="0.49" transform="translate(103.23 172.66) rotate(-62.54)"/><ellipse class="cls-3" cx="195.13" cy="2.04" rx="0.49" ry="0.49" transform="translate(103.33 174.24) rotate(-62.54)"/><ellipse class="cls-3" cx="196.48" cy="2.75" rx="0.49" ry="0.49" transform="translate(103.44 175.82) rotate(-62.54)"/><ellipse class="cls-3" cx="197.84" cy="3.45" rx="0.49" ry="0.49" transform="translate(103.55 177.4) rotate(-62.54)"/><ellipse class="cls-3" cx="200.2" cy="4.68" rx="0.49" ry="0.49" transform="translate(103.72 180.17) rotate(-62.54)"/><path class="cls-3" d="M201.79,5a.49.49,0,0,1,.2.66.49.49,0,1,1-.86-.45A.49.49,0,0,1,201.79,5Z"/><ellipse class="cls-3" cx="202.92" cy="6.09" rx="0.49" ry="0.49" transform="translate(103.94 183.33) rotate(-62.54)"/><ellipse class="cls-3" cx="204.88" cy="7.22" rx="0.49" ry="0.49" transform="translate(103.97 185.67) rotate(-62.53)"/></g><path class="cls-2" d="M273.76,61v0a2,2,0,0,0-2.41-1.55L239.23,66.5a2.06,2.06,0,0,0-1.53,2.44L240.05,80H269.6a5,5,0,0,0,5-5V64.92Z"/><path class="cls-3" d="M248.32,75.62l-3.63.8a.9.9,0,0,1-1.07-.7h0L243,72.78a.91.91,0,0,1,.69-1.09l3.62-.8a.92.92,0,0,1,1.08.7h0l.62,2.93A.92.92,0,0,1,248.32,75.62Z"/><ellipse class="cls-3" cx="261.22" cy="76.4" rx="0.45" ry="0.46" transform="translate(-10.31 57.88) rotate(-12.4)"/><ellipse class="cls-3" cx="262.6" cy="76.1" rx="0.45" ry="0.46" transform="translate(-10.22 58.17) rotate(-12.4)"/><ellipse class="cls-3" cx="265.01" cy="75.57" rx="0.45" ry="0.46" transform="translate(-10.05 58.68) rotate(-12.4)"/><path class="cls-3" d="M266.3,74.82a.45.45,0,0,1,.53.35.44.44,0,0,1-.34.54.45.45,0,0,1-.54-.35A.46.46,0,0,1,266.3,74.82Z"/><ellipse class="cls-3" cx="267.77" cy="74.96" rx="0.45" ry="0.46" transform="translate(-9.85 59.26) rotate(-12.4)"/><ellipse class="cls-3" cx="269.84" cy="74.6" rx="0.45" ry="0.46" transform="translate(-9.72 59.66) rotate(-12.4)"/><path class="cls-2" d="M269.6,0H253.93l-2.5,6.36v0A2,2,0,0,0,252.57,9l22,8.5V5A5,5,0,0,0,269.6,0Z"/><path class="cls-3" d="M262.36,0l1.07.41A.91.91,0,0,0,264.54,0Z"/><ellipse class="cls-3" cx="258.61" cy="2.34" rx="0.46" ry="0.45" transform="translate(163.31 242.76) rotate(-68.9)"/><ellipse class="cls-3" cx="259.92" cy="2.85" rx="0.46" ry="0.45" transform="translate(163.68 244.31) rotate(-68.9)"/><ellipse class="cls-3" cx="261.25" cy="3.36" rx="0.46" ry="0.45" transform="translate(164.05 245.87) rotate(-68.9)"/><ellipse class="cls-3" cx="262.56" cy="3.87" rx="0.46" ry="0.45" transform="translate(164.42 247.42) rotate(-68.9)"/><ellipse class="cls-3" cx="264.86" cy="4.76" rx="0.46" ry="0.45" transform="translate(165.06 250.14) rotate(-68.9)"/><ellipse class="cls-3" cx="266.18" cy="5.27" rx="0.46" ry="0.45" transform="translate(165.43 251.7) rotate(-68.9)"/><ellipse class="cls-3" cx="267.5" cy="5.78" rx="0.46" ry="0.45" transform="matrix(0.36, -0.93, 0.93, 0.36, 165.8, 253.26)"/><ellipse class="cls-3" cx="268.82" cy="6.28" rx="0.46" ry="0.45" transform="translate(166.17 254.81) rotate(-68.9)"/><ellipse class="cls-3" cx="271.13" cy="7.17" rx="0.46" ry="0.45" transform="translate(166.81 257.53) rotate(-68.9)"/><ellipse class="cls-3" cx="272.44" cy="7.68" rx="0.46" ry="0.45" transform="matrix(0.36, -0.93, 0.93, 0.36, 167.18, 259.08)"/><ellipse class="cls-3" cx="273.76" cy="8.19" rx="0.46" ry="0.45" transform="translate(167.55 260.64) rotate(-68.9)"/><path class="cls-3" d="M256.26,0H253.9l-2.46,6.41a2.07,2.07,0,0,0,1.19,2.67l1.78.69s-1.62-.75-1.16-2Z"/><path class="cls-3" d="M191.18.54a.5.5,0,0,0,.66-.21.54.54,0,0,0,0-.33h-.94A.48.48,0,0,0,191.18.54Z"/></g></g></svg>