<svg xmlns="http://www.w3.org/2000/svg" viewBox="0 0 18.14 20"><defs><style>.cls-1{fill:#04afa9;}</style></defs><title>20x20-candado-cerrado</title><g id="Capa_2" data-name="Capa 2"><g id="Iconos_IBK" data-name="Iconos IBK"><path class="cls-1" d="M17.55,7.4a2,2,0,0,0-1.39-.54H13.72V4.62A4.57,4.57,0,0,0,8.81,0h0A4.57,4.57,0,0,0,3.9,4.62V6.86H2A1.92,1.92,0,0,0,0,8.73v9.4A1.93,1.93,0,0,0,2,20h14.2a1.93,1.93,0,0,0,2-1.87V8.73A1.81,1.81,0,0,0,17.55,7.4Zm-13-2.78a3.9,3.9,0,0,1,4.24-4h0a3.91,3.91,0,0,1,4.27,4V6.86H4.55ZM17.49,18.13a1.28,1.28,0,0,1-1.32,1.22H2A1.27,1.27,0,0,1,.65,18.13V8.73A1.28,1.28,0,0,1,2,7.51H16.16a1.4,1.4,0,0,1,.95.36,1.2,1.2,0,0,1,.38.86Z"/><path class="cls-1" d="M9.08,11.2a1.41,1.41,0,0,0-.55,2.72l0,1.82a.58.58,0,0,0,.58.57h0a.58.58,0,0,0,.57-.59l0-1.82a1.41,1.41,0,0,0-.63-2.7Z"/></g></g></svg>