<svg id="Iconos_IBK" data-name="Iconos IBK" xmlns="http://www.w3.org/2000/svg" viewBox="0 0 25 25"><defs><style>.cls-1{fill:#009b3a;}.cls-2{fill:#8e8f90;}.cls-3{fill:#fccd01;}.cls-4{fill:#ebb500;}.cls-5{fill:#f8f189;}</style></defs><title>Artboard 65</title><path class="cls-2" d="M22.68,14.42a1.31,1.31,0,0,0-.53.25.83.83,0,0,0-.66,0,.73.73,0,0,0-.34.4,2.88,2.88,0,0,0-.27-.34,5,5,0,0,0-2.5-1.44,5.12,5.12,0,0,0-1.8-.12l-1-.64a.2.2,0,0,0-.21,0,.19.19,0,0,0-.1.17v.78h0a5,5,0,0,0-2.58,2.2,2.24,2.24,0,0,1-1.37.81.09.09,0,0,0-.06,0,.36.36,0,0,0-.17.37l.29,1.64a.35.35,0,0,0,.08.16l.06.05a6.5,6.5,0,0,0,.93.41h0A4.37,4.37,0,0,0,13.69,21l.64,1.65a.3.3,0,0,0,.3.21h.91a.4.4,0,0,0,.35-.37V22a4.74,4.74,0,0,0,1.25.16,5,5,0,0,0,1.69-.28v.54a.38.38,0,0,0,.33.36h.89a.29.29,0,0,0,.29-.2l.84-2.34a4.09,4.09,0,0,0,.9-2.6,4.28,4.28,0,0,0-.46-1.89l-.15-.25v0c0-.08,0-.39.19-.47a.33.33,0,0,1,.24,0,.87.87,0,0,0,0,.36.46.46,0,0,0,.45.43h.08c.16,0,.23-.18.24-.38a.68.68,0,0,0-.19-.52,1.54,1.54,0,0,1,.3-.09.21.21,0,0,0,.14-.26A.2.2,0,0,0,22.68,14.42Zm-8.46,2.25a.42.42,0,1,1,0-.84.42.42,0,0,1,0,.84ZM19.14,15a.19.19,0,0,1-.28,0,2.64,2.64,0,0,0-1.58-.43.21.21,0,0,1-.21-.19.2.2,0,0,1,.2-.21,2.92,2.92,0,0,1,1.86.53A.2.2,0,0,1,19.14,15Z"/><circle class="cls-3" cx="21.35" cy="19.83" r="2.99"/><circle class="cls-4" cx="21.35" cy="19.83" r="2.18"/><path class="cls-5" d="M22.18,19.14a.38.38,0,0,1-.22.31,1,1,0,0,0-.54-.22c-.18,0-.26.06-.26.17s.16.14.36.17.71.18.71.63a.64.64,0,0,1-.59.65v.08c0,.2-.08.31-.25.31h0c-.2,0-.26-.11-.26-.31v-.07c-.39,0-.6-.2-.6-.41a.41.41,0,0,1,.2-.31,1,1,0,0,0,.6.23c.2,0,.26-.05.26-.16s-.16-.14-.36-.2-.68-.16-.68-.62a.61.61,0,0,1,.57-.63v-.08c0-.19.08-.3.25-.3h0c.19,0,.25.11.25.3v.06C22,18.8,22.18,19,22.18,19.14Z"/></svg>