<svg id="Iconos_IBK" data-name="Iconos IBK" xmlns="http://www.w3.org/2000/svg" viewBox="0 0 25 25"><defs><style>.cls-1{fill:#009b3a;}.cls-2{fill:#e4004f;}</style></defs><title>Artboard 8</title><path class="cls-2" d="M23.14,15.5a4.31,4.31,0,0,0-6.08,0,4.2,4.2,0,0,0-1.25,3,4.3,4.3,0,1,0,8.6,0A4.33,4.33,0,0,0,23.14,15.5Zm-6.6,3a3.53,3.53,0,0,1,5.79-2.72l-5,5A3.62,3.62,0,0,1,16.54,18.51Zm6.1,2.55a3.55,3.55,0,0,1-4.75.21l5-5a3.52,3.52,0,0,1-.21,4.75Z"/><path class="cls-1" d="M20.94,3.83H2.33A1.72,1.72,0,0,0,.59,5.52V19.39A1.74,1.74,0,0,0,2.33,21.1H14.44a.39.39,0,0,0,.37-.39.4.4,0,0,0-.4-.4H2.33a1,1,0,0,1-1-.91v-8H21.87v1.26c0,.13,0,.53.4.54s.41-.37.41-.46V5.52A1.72,1.72,0,0,0,20.94,3.83Zm.93,4.22H1.39V5.52a1,1,0,0,1,.94-.9H20.94a1,1,0,0,1,.93.9Z"/></svg>
