<svg xmlns="http://www.w3.org/2000/svg" viewBox="0 0 110 110"><defs><style>.cls-1{fill:#444c95;}.cls-2{fill:#1b203f;}.cls-3{fill:#568f7a;}.cls-4{fill:#335749;}.cls-5{fill:#78c48f;}.cls-6{fill:#bed3c6;}.cls-7{fill:#c5e5c5;}.cls-8{fill:#bbd5bb;}.cls-9{fill:#c0ddc2;}.cls-10{fill:#e9bd71;}.cls-11{fill:#ffd36e;}.cls-12{fill:#fbfffd;}</style></defs><title>TimeOut</title><g id="Capa_2" data-name="Capa 2"><g id="Capa_2-2" data-name="Capa 2"><path class="cls-1" d="M110,55A55,55,0,1,1,55,0a55,55,0,0,1,55,55"/><path class="cls-2" d="M12.86,90.34a55,55,0,0,0,84.28,0H12.86"/><path class="cls-3" d="M80.13,87.25V95.9A2.87,2.87,0,0,1,78,98.68c-3.08.81-9.88,2-22.86,2s-19.5-1.21-22.51-2a2.87,2.87,0,0,1-2.12-2.77V87.25s49.84-.21,49.64,0"/><path class="cls-4" d="M80.12,96.31V87.47c-.71.54-.39,5.3-17.8,9.8-14.72,3.8-31.24.4-31.24.4s.06.48,1.3,1c2.37.9,8.47,2.09,22.74,2.09,13.63,0,20.44-1.35,23.3-2.16A2.33,2.33,0,0,0,80.12,96.31Z"/><path class="cls-5" d="M80.19,87.42c0,2.35-11.14,5.24-24.88,5.24s-24.88-2.89-24.88-5.24,11.14-4.24,24.88-4.24,24.88,1.9,24.88,4.24"/><path class="cls-4" d="M76.47,85.18c-.32-.07-1.07-.27-1.07-.27a39.63,39.63,0,0,1-19.34,5.24,43.65,43.65,0,0,1-20.83-5.23l-1.18.3a1.45,1.45,0,0,0-.73,1.36c0,2,9.28,5.29,22,5.29,15.5,0,22.44-3.44,22.44-5.29,0-.39-.48-.87-1.29-1.4"/><path class="cls-4" d="M80.13,23v-9.3a2,2,0,0,0-1.45-1.94C76,10.94,69.18,9.5,55.12,9.5s-20.59,1.42-23.2,2.22a2,2,0,0,0-1.43,1.93V23s49.84.21,49.64,0"/><path class="cls-3" d="M80.19,22.81c0-2.33-11.14-4.22-24.88-4.22s-24.88,1.89-24.88,4.22S41.57,27,55.31,27s24.88-1.89,24.88-4.23"/><path class="cls-6" d="M33.69,24.91A13.35,13.35,0,0,0,37,34.49c5,5.95,15.84,12,15.84,16.14s-10.23,5.84-15.5,17.51c-3.81,8.45-3.66,14.42-3.29,17.08h0c4.37-1.22,12.25-2,21.24-2,8.25,0,15.55.68,20.08,1.74h0l.23.06.38.1.46.11,0,0,.07,0c.38-2.66.52-8.63-3.29-17.08C68,56.47,56.78,54.75,56.78,50.63S68.59,40.44,73.62,34.49a13.35,13.35,0,0,0,3.31-9.58C72.64,26.18,64.57,27,55.31,27S38,26.18,33.69,24.91"/><path class="cls-7" d="M76.5,85.2l.07,0v0l-.07,0M75.63,85l.38.1-.38-.1M55.31,83.18c-9,0-16.87.81-21.24,2l1.16-.29a43.65,43.65,0,0,0,20.83,5.23,39.66,39.66,0,0,0,19.33-5.23c-4.53-1.06-11.83-1.74-20.08-1.74"/><path class="cls-8" d="M75.4,84.91h0a39.66,39.66,0,0,1-19.33,5.23,43.65,43.65,0,0,1-20.83-5.23l-1.16.29h0c0,.21.06.41.09.58a2.07,2.07,0,0,0,1.06,1.46c2.14,1.16,8.67,3.79,20.88,3.79,11.06,0,17.21-2.64,19.34-3.79a2.07,2.07,0,0,0,1.06-1.46c0-.17.06-.35.09-.56l-.07,0,0,0L76,85.07l-.38-.1-.23-.06"/><path class="cls-9" d="M55.31,20.28c-13.49,0-18.77,1.24-20.48,1.8a1.37,1.37,0,0,0-.89,1,13.51,13.51,0,0,0-.25,1.83C38,26.18,46.05,27,55.31,27s17.33-.86,21.62-2.13a11.52,11.52,0,0,0-.24-1.76,1.32,1.32,0,0,0-1-1c-2-.54-8-1.85-20.42-1.85"/><path class="cls-10" d="M54.6,67.74c-3.5,0-17.07,10.9-19.29,12.69a.91.91,0,0,0-.32.66,15.49,15.49,0,0,0,.26,4c.1.59.72,1,1.25,1.33,2,1.09,7.94,3.6,19.54,3.6,10.5,0,16.44-2.65,18.47-3.74a1.88,1.88,0,0,0,.93-1.4,22.64,22.64,0,0,0,.24-3,.85.85,0,0,0-.32-.7C73,79.34,58.48,67.74,54.6,67.74Z"/><path class="cls-11" d="M60,80.81c-3.86-4.13-4.8-9.56-5-13l-.24,0c-3.5,0-17.18,10.91-19.42,12.72a.88.88,0,0,0-.33.65,16.9,16.9,0,0,0,.29,4.2c.11.59.83,1,1.36,1.29,2,1.09,7.93,3.47,19.54,3.47A43.74,43.74,0,0,0,72,87.45C68.23,86.37,63.32,84.43,60,80.81Z"/><polygon class="cls-12" points="99.72 41.16 98.19 43.41 96.64 41.16 98.19 38.93 99.72 41.16"/><path class="cls-12" d="M81.8,38.75l.61-.61a.33.33,0,1,0-.46-.46l-.61.61-.62-.61a.33.33,0,0,0-.46.46l.62.61-.62.62a.34.34,0,0,0,0,.46.32.32,0,0,0,.22.08.31.31,0,0,0,.22-.08l.62-.62.61.62a.32.32,0,0,0,.22.08.31.31,0,0,0,.22-.08.34.34,0,0,0,0-.46Z"/><path class="cls-12" d="M90.93,55.57l.61-.61a.33.33,0,0,0-.46-.46l-.61.61-.61-.61a.33.33,0,1,0-.46.46l.61.61-.61.61a.34.34,0,0,0,0,.46.27.27,0,0,0,.22.09.29.29,0,0,0,.22-.09l.61-.61.62.61a.27.27,0,0,0,.22.09.29.29,0,0,0,.22-.09.34.34,0,0,0,0-.46Z"/><polygon class="cls-12" points="28.73 54.12 30.27 51.88 31.82 54.12 30.27 56.35 28.73 54.12"/><polygon class="cls-12" points="16.86 70.56 18.39 68.32 19.94 70.56 18.39 72.8 16.86 70.56"/><path class="cls-12" d="M10.78,49.8l-.62.62a.33.33,0,1,0,.46.46l.62-.62.61.62a.33.33,0,1,0,.46-.46l-.61-.62.61-.61a.34.34,0,0,0,0-.46.28.28,0,0,0-.22-.08.31.31,0,0,0-.22.08l-.62.61-.61-.61a.28.28,0,0,0-.22-.08.31.31,0,0,0-.22.08.34.34,0,0,0,0,.46Z"/><path class="cls-5" d="M48.12,17.68c18-.71,25.47,2.8,28.59,1.06,2.14-1.19,3.56-5,2.82-6.08C78.31,10.86,68.9,9.5,55.18,9.5c-14,0-20.59,1.42-23.2,2.21a2,2,0,0,0-1.42,1.93v8C32.28,20.16,36.72,18.13,48.12,17.68Z"/></g></g></svg>