<svg xmlns="http://www.w3.org/2000/svg" viewBox="0 0 384.41 384.41"><defs><style>.cls-1{fill:#444e95;}.cls-2{fill:#67ad65;}.cls-3{fill:#fff;}.cls-4{fill:none;}.cls-5{fill:#e8bd6c;}.cls-6{fill:#292e61;}.cls-7{fill:#e39222;}.cls-8{fill:#77c475;}</style></defs><title>SVG_Bienvenida</title><g id="Capa_2" data-name="Capa 2"><g id="Capa_2-2" data-name="Capa 2"><circle class="cls-1" cx="192.21" cy="192.21" r="192.21"/><path class="cls-2" d="M304.19,342.35c-.69-2.91-1.27-5.73-2-8.51s-1.38-5.46-2.15-8.09-1.52-5.16-2.3-7.61-1.67-4.82-2.45-7.07-1.74-4.43-2.55-6.46-1.82-4-2.66-5.78l-2.69-5c-1.05-1.72-2.15-3.35-3.06-4.69l-.68-1c-.12-.18-.19-.26-.26-.36l-.21-.27-.74-1-1.37-1.8a18.15,18.15,0,1,0-28.88,22c.34.45.7.87,1.07,1.28l.08.09,1.53,1.66c.26.27.54.58.84.91l.24.26.18.21.21.29c.29.42.62.78,1.1,1.35l1.92,2.85,2.21,3.79c.73,1.47,1.58,3,2.38,4.69s1.67,3.51,2.47,5.53,1.69,4.05,2.51,6.28,1.67,4.52,2.5,6.94,1.63,4.93,2.48,7.49,1.61,5.26,2.4,8c.56,1.94,1.11,3.91,1.65,5.89a191.92,191.92,0,0,0,27.36-16.64C304.94,345.84,304.56,344.08,304.19,342.35Z"/><path class="cls-3" d="M263.27,370.84l0-103.82-39,63.51L185.5,267l0,117.25c2.23.08,4.46.13,6.71.13A191.66,191.66,0,0,0,263.27,370.84Z"/><path class="cls-2" d="M90.08,252.74s9.93,26.38,43.26,29.85a162.65,162.65,0,0,0,35,.13c10.45-1.18,20.11,6.47,20.74,17,0,.39,0,.78,0,1.17,0,19.5-31.38,21.33-72.2,8.84-45-13.75-49.66-52.08-49.66-52.08Z"/><circle class="cls-4" cx="192.21" cy="192.21" r="192.21"/><path class="cls-2" d="M197.25,255,172,280s6.26,9.35,6.26,12c0,4.17-5,10.5-7.5,20-1.9,7.22,1,46.32,2.07,71.41q9.57,1,19.4,1c1.68,0,3.36,0,5-.07Z"/><path class="cls-5" d="M224.26,330.53l39-63.51s-18.38-14.24-18.39-32c0-15.16,20.87-30.72,20.87-62.13s9.19-73.11-43.34-73.1S184,157.29,184,179.39c0,19.64,21.12,43.29,21.12,55.63,0,18.95-19.58,32-19.58,32Z"/><path class="cls-6" d="M273.87,221.28h0Z"/><path class="cls-6" d="M277.24,181c1.17-17.33,5.33-17.92,5.33-36.92S266,85.76,226.23,86.15c-38.13.38-55.37,34.76-56.49,55.88-1,19.32,2.57,50.14,4.26,73.5,1.12,15.66,1.25,27.25,1.25,27.25a201.88,201.88,0,0,1,27.41-16.16c-3-6.42-8.85-18.61-13.42-28.09-7.71-16-4.31-28.59,1.83-38,12.25-18.75,25.83-18.42,38-26.17,12.83-8.17,19.16-24.84,19.16-24.84s-1.33,13.84,4.51,23.5c6.73,11.17,13.92,29.26,12,48.5-1.27,12.7-10.92,31.22-16.74,41.41,3.87,1.93,6.66,3.84,12.37,3.84,11.39,0,13.46-5.39,13.5-5.49,0,.07-.34.5-2.21-2.76-2-3.5-1.41-3.66-1.41-3.66a11.54,11.54,0,0,0,9.91.16c6.17-3.08,9.58-11,9.58-11S275.31,209.79,277.24,181Z"/><circle class="cls-5" cx="271.27" cy="170.41" r="9.07"/><path class="cls-5" d="M70.83,205.82c5.88.64,9.57.14,12.06-.79a18.22,18.22,0,0,0,5.76-3.16c2.23-2.1,4.36-6.41,7.58-8.87,1.76-1.34,7.33-5.09,10.1-7.07a2.85,2.85,0,0,0,.58-4.09h0a3,3,0,0,0-3.81-.61c-3.22,1.51-9,5.72-10.76,4.6-4.35-2.83,5-19.47,7.4-29.36a2.69,2.69,0,0,0-1.88-3.19h0a3.32,3.32,0,0,0-3.77,1.48c-4,6.73-6.33,17.18-7.64,16.54-2-1,1.44-15.41,2.57-24.53a2.79,2.79,0,0,0-2.74-3.19h-.06a3,3,0,0,0-2.86,2c-3.22,9.36-4.83,24.73-6.75,24.44-.83-.12,1.83-15.39,1.54-21.64-.13-2.89-1.15-3.89-2.29-3.92h0c-1,0-1.83,1-2.51,3.07-2.1,6.44-3,21.84-4.92,21.79-1.22,0-.12-9.05.4-13.6a2.12,2.12,0,0,0-2-2.35h0a2.12,2.12,0,0,0-2.12,1.7c-.72,3.59-2.08,10.26-3.3,17.43-.86,5-2.47,6.19-2.8,14.63C58.05,200,60.77,204.73,70.83,205.82Z"/><path class="cls-5" d="M83.83,204.61s-1,.21-1.34,3.36c-.91,8.41,3.93,31.91,3.93,31.91l-22.34,8.17s-3.5-22.83-3.3-39c0-4.21.28-8.87.28-8.87Z"/><path class="cls-7" d="M72.25,198.07a1,1,0,0,1-.53-.15,1,1,0,0,1-.33-1.37c.16-.26,3.87-6.22,9.93-9a22.49,22.49,0,0,1,12.41-1.86,1,1,0,0,1,.8,1.17,1,1,0,0,1-1.16.8,20.86,20.86,0,0,0-11.22,1.71c-5.51,2.52-9,8.16-9.05,8.21A1,1,0,0,1,72.25,198.07Z"/><path class="cls-7" d="M80.4,181.76c-9.87,0-14.25-2.76-14.46-2.9a1,1,0,0,1-.29-1.38,1,1,0,0,1,1.38-.3h0c.06,0,5.71,3.53,18.68,2.33a1,1,0,0,1,1.09.9,1,1,0,0,1-.91,1.09C83.9,181.68,82.07,181.76,80.4,181.76Z"/><polygon class="cls-8" points="86.42 239.88 94.75 251.54 63 264.05 64.08 248.05 86.42 239.88"/><path class="cls-8" d="M172.62,383.43c0-.47-3.14-60.79-3.26-68.72-.08-4.84,2.5-10.27,4.78-15.07,1.49-3.14,2.89-6.11,2.87-7.71,0-3.26-4.49-9.25-6.2-11.28l1.53-1.28c.27.32,6.6,7.89,6.67,12.53,0,2.07-1.41,5.09-3.07,8.6-2.18,4.6-4.65,9.81-4.58,14.18.12,7.89,3.24,68.48,3.26,68.94Z"/><rect class="cls-6" x="236.58" y="156.03" width="6.16" height="8.66" rx="3.08" ry="3.08"/><rect class="cls-6" x="205.41" y="156.04" width="6.16" height="8.66" rx="3.08" ry="3.08"/><path class="cls-6" d="M247.61,145.77a1.47,1.47,0,0,1-1.11-.49c-.07-.07-2-2-6.89-2h0c-4.93,0-7,2-7.05,2a1.51,1.51,0,0,1-2.11,0,1.49,1.49,0,0,1,0-2.1c.11-.12,2.89-3,9.21-3h0c6.24,0,8.84,2.68,9.12,3a1.5,1.5,0,0,1-.12,2.12A1.46,1.46,0,0,1,247.61,145.77Z"/><path class="cls-7" d="M225.07,181.19c-4.58,0-7.66-2.94-7.66-7.33a23.25,23.25,0,0,1,1.29-5.6c1.57-5.2,3.73-12.31,1.77-18.62-1.34-4.31-3.85-4.79-3.95-4.81a1.52,1.52,0,0,1-1.25-1.7,1.48,1.48,0,0,1,1.66-1.27c.18,0,4.46.64,6.41,6.89,2.23,7.18-.18,15.13-1.77,20.38a23.86,23.86,0,0,0-1.16,4.73c0,2.76,1.7,4.33,4.66,4.33h0c2.64,0,3.53-1.24,3.54-1.25a1.5,1.5,0,0,1,2.59,1.51c-.16.28-1.72,2.74-6.13,2.74Z"/><path class="cls-6" d="M218.11,145.78a1.48,1.48,0,0,1-1.11-.5c-.07-.06-2-2-6.89-2h0c-4.93,0-7,2-7.05,2.05a1.51,1.51,0,0,1-2.11,0,1.49,1.49,0,0,1,0-2.1c.11-.12,2.89-3,9.21-3h0c6.24,0,8.84,2.69,9.12,3a1.49,1.49,0,0,1-.12,2.11A1.47,1.47,0,0,1,218.11,145.78Z"/><circle class="cls-7" cx="271.27" cy="170.41" r="3.02"/><circle class="cls-8" cx="266.01" cy="177.41" r="2.58"/><circle class="cls-7" cx="232.44" cy="193.52" r="6.68"/><path class="cls-6" d="M222.08,197.59a33.9,33.9,0,0,1-3.71-.19,1.5,1.5,0,0,1,.39-3,35.08,35.08,0,0,0,15-1.84,20.52,20.52,0,0,0,10.48-8.93A1.5,1.5,0,0,1,247,185a23.32,23.32,0,0,1-12.11,10.4A36.2,36.2,0,0,1,222.08,197.59Z"/><polygon class="cls-3" points="363.72 198.48 361.49 194.62 359.26 198.48 357.03 202.34 359.26 206.21 361.49 210.07 363.72 206.21 365.95 202.34 363.72 198.48"/><polygon class="cls-3" points="307.27 261.97 304.38 256.97 301.5 261.97 298.62 266.96 301.5 271.96 304.38 276.95 307.27 271.96 310.15 266.96 307.27 261.97"/><path class="cls-3" d="M319.81,144.37h0a1.75,1.75,0,0,0-2.48.06l-2.06,2.18-2.18-2.06a1.75,1.75,0,0,0-2.47.07h0a1.75,1.75,0,0,0,.07,2.47l2.18,2.07-2.07,2.17a1.76,1.76,0,0,0,.07,2.48h0a1.76,1.76,0,0,0,2.48-.07l2.06-2.18,2.18,2.06a1.73,1.73,0,0,0,2.47-.07h0a1.73,1.73,0,0,0-.07-2.47L317.81,149l2.07-2.18A1.75,1.75,0,0,0,319.81,144.37Z"/><polygon class="cls-3" points="40.3 115.6 42.53 111.74 44.77 115.6 47 119.47 44.77 123.33 42.53 127.19 40.3 123.33 38.07 119.47 40.3 115.6"/><polygon class="cls-3" points="119.97 227.78 121.75 224.7 123.52 227.78 125.29 230.85 123.52 233.93 121.75 237 119.97 233.93 118.19 230.85 119.97 227.78"/><path class="cls-3" d="M124,83.3h0a1.76,1.76,0,0,1,2.48.07l2.06,2.18,2.18-2.06a1.73,1.73,0,0,1,2.47.07h0a1.74,1.74,0,0,1-.06,2.47l-2.18,2.06L133,90.27a1.76,1.76,0,0,1-.07,2.48h0a1.75,1.75,0,0,1-2.47-.07l-2.07-2.18-2.17,2.06a1.76,1.76,0,0,1-2.48-.07h0a1.75,1.75,0,0,1,.07-2.47L126,88l-2.06-2.18A1.75,1.75,0,0,1,124,83.3Z"/><path class="cls-2" d="M279.22,312c-2.51-9.5-7.51-15.83-7.51-20,0-2.65,6.25-12,6.25-12l-25.25-25V374.68a193.06,193.06,0,0,0,25.39-10.5C279.3,341.84,280.67,317.56,279.22,312Z"/><path class="cls-8" d="M197.27,384.34c0-63.15,0-129.7,0-129.31l-17.62,17.63,11.88,29.12L180.26,313l2.06,71.13c3.28.17,6.59.25,9.91.25C193.91,384.41,195.59,384.39,197.27,384.34Z"/><path class="cls-8" d="M268.12,368.83l1.6-55.81-11.26-11.25,11.88-29.12L252.71,255c0-.37,0,59.56,0,119.66Q260.58,372.07,268.12,368.83Z"/><path class="cls-8" d="M278.13,364.21l-2.08,1c0-.46,2.45-42.62,2.57-50.51.06-4.38-2.41-9.59-4.59-14.18-1.66-3.51-3.1-6.54-3.07-8.61.07-4.63,6.4-12.21,6.67-12.53l1.53,1.29c-1.71,2-6.15,8-6.2,11.27,0,1.61,1.38,4.58,2.88,7.72,2.27,4.79,4.85,10.23,4.78,15.07C280.5,322.62,278.15,363.74,278.13,364.21Z"/></g></g></svg>