<svg xmlns="http://www.w3.org/2000/svg" viewBox="0 0 275 80"><defs><style>.cls-1{fill:#78c575;}.cls-2{opacity:0.76;}.cls-3{fill:#c5f4c4;}.cls-4{fill:#558f7a;}.cls-5{opacity:0.52;}.cls-6{opacity:0.84;}.cls-7{opacity:0.28;}.cls-8{opacity:0.65;}</style></defs><title>Banner_PagoAutomático</title><g id="Capa_2" data-name="Capa 2"><g id="elementos_banner"><rect class="cls-1" width="275" height="80" rx="4.41"/><g class="cls-2"><path class="cls-3" d="M186.42,29.68c-1.8-3.82.48-8.62,4.31-10.17a7.78,7.78,0,0,1,3.52-.54l-3.32-8a.7.7,0,0,0-.9-.37L165.15,20.71a.67.67,0,0,0-.38.88l6.46,15.48a3.18,3.18,0,0,0,4.13,1.69l14-5.66A8.57,8.57,0,0,1,186.42,29.68Z"/><path class="cls-4" d="M164.63,19.49,189.57,9.4a.67.67,0,0,0,.37-.88L189.32,7a3,3,0,0,0-3.91-1.6L164.76,13.8a2.94,2.94,0,0,0-1.64,3.85l.62,1.48A.69.69,0,0,0,164.63,19.49Z"/><path class="cls-1" d="M174.3,27l-.37-.89a4.68,4.68,0,0,1-.23-3.51,4,4,0,0,1,2.45-2.31,4.15,4.15,0,0,1,3.38-.06,4.78,4.78,0,0,1,2.35,2.65l.37.89a4.67,4.67,0,0,1,.22,3.51,4.65,4.65,0,0,1-5.83,2.37A4.77,4.77,0,0,1,174.3,27Zm2.1-.78a3.15,3.15,0,0,0,1.25,1.6,1.81,1.81,0,0,0,1.67.06,1.83,1.83,0,0,0,1.15-1.19,3.16,3.16,0,0,0-.26-2l-.48-1.14a3.16,3.16,0,0,0-1.25-1.6,1.83,1.83,0,0,0-1.68-.06,1.76,1.76,0,0,0-1.14,1.18,3.11,3.11,0,0,0,.27,2Z"/><path class="cls-1" d="M181.66,20.15a1.39,1.39,0,0,1-.1-.59,1,1,0,0,1,.11-.44c.06-.1.1-.15.13-.15a1.43,1.43,0,0,0,1,0,1.2,1.2,0,0,0,.66-.61,1.28,1.28,0,0,0,.08-.93l.62-.25a.9.9,0,0,1,1.31.57l3,7.25a.89.89,0,0,1-.53,1.32l-.26.1a.89.89,0,0,1-1.29-.57l-2.33-5.6a1.32,1.32,0,0,1-.69.56,1.4,1.4,0,0,1-1,.06A1.17,1.17,0,0,1,181.66,20.15Z"/><path class="cls-3" d="M194.54,18.29a.53.53,0,0,0-.27.64l.62,1.48a6.42,6.42,0,0,0-7.63,8.76,6.82,6.82,0,0,0,3.64,3.56,6.09,6.09,0,0,0,3.92.39c.12,0,.19-.21,0-.55s-.35-.51-.58-.42a5.4,5.4,0,0,1-3.21-.29,5.73,5.73,0,0,1-3-3,5.82,5.82,0,0,1,0-4.23,5.54,5.54,0,0,1,6.61-3.2l-1.74.7a.52.52,0,0,0-.27.64.54.54,0,0,0,.65.27L195.94,22c.23-.1.3-.26.41-.3a.75.75,0,0,0-.07-.5l-1.09-2.6A.54.54,0,0,0,194.54,18.29Z"/><path class="cls-3" d="M198.39,29.43A7,7,0,0,1,197,31c-.3.25-.32.53-.11.71a.53.53,0,0,0,.6.15l.23-.09A6.79,6.79,0,0,0,199.29,30a.57.57,0,0,0-.17-.73A.58.58,0,0,0,198.39,29.43Z"/><path class="cls-3" d="M198.87,24.47a.52.52,0,0,0-.27.64,5,5,0,0,1,.29,2,.45.45,0,0,0,.47.47l.23-.09c.23-.1.3-.26.25-.37a5,5,0,0,0-.32-2.38A.54.54,0,0,0,198.87,24.47Z"/></g><path class="cls-3" d="M256.17,42.61l-47.1,7.55a1.2,1.2,0,0,0-1,1.38l4.64,28.08h31.88a15,15,0,0,1-2.42-5.54c-1.55-7.31,4.35-14.69,11.59-15.86a13.84,13.84,0,0,1,6.31.46l-2.49-15.07A1.22,1.22,0,0,0,256.17,42.61Z"/><path class="cls-4" d="M208.68,47.86l47.2-7.57a1.18,1.18,0,0,0,1-1.36l-.46-2.81a5.32,5.32,0,0,0-6.1-4.32l-39.09,6.26a5.25,5.25,0,0,0-4.39,6l.46,2.81A1.22,1.22,0,0,0,208.68,47.86Z"/><path class="cls-1" d="M222.32,64.63,222,63a8.33,8.33,0,0,1,1-6.16,8.29,8.29,0,0,1,11-1.78,8.34,8.34,0,0,1,3,5.5l.28,1.68a8.29,8.29,0,0,1-1.06,6.16,8.3,8.3,0,0,1-11,1.78A8.39,8.39,0,0,1,222.32,64.63Zm4-.51a5.56,5.56,0,0,0,1.49,3.26,3.64,3.64,0,0,0,5.33-.84,5.4,5.4,0,0,0,.37-3.55l-.36-2.17a5.47,5.47,0,0,0-1.5-3.26,3.25,3.25,0,0,0-2.88-.77,3.19,3.19,0,0,0-2.46,1.6,5.49,5.49,0,0,0-.35,3.56Z"/><path class="cls-1" d="M237.83,55.74a2.25,2.25,0,0,1,.07-1.07,2,2,0,0,1,.36-.72c.14-.15.24-.22.29-.21a2.53,2.53,0,0,0,1.7.34,2.26,2.26,0,0,0,1.92-2.37l1.16-.19a1.6,1.6,0,0,1,2,1.5l2.27,13.73a1.57,1.57,0,0,1-1.45,2.06l-.49.08a1.56,1.56,0,0,1-2-1.51L242,56.8a2.45,2.45,0,0,1-1.42.69,2.5,2.5,0,0,1-1.79-.31A2,2,0,0,1,237.83,55.74Z"/><path class="cls-3" d="M261.85,58.34a1,1,0,0,0-1-.72.94.94,0,0,0-.73,1l.46,2.8a11.52,11.52,0,0,0-13.66,18.2h2.29a10.07,10.07,0,0,1-3.86-6.33A10.33,10.33,0,0,1,247,66a9.89,9.89,0,0,1,12.72-2.92l-3.29.53a.93.93,0,0,0-.73,1,.94.94,0,0,0,1,.72l5-.8c.44-.07.62-.32.84-.35a1.29,1.29,0,0,0,.07-.9Z"/><path class="cls-3" d="M262.93,78.39a9.28,9.28,0,0,1-1.4,1.23h2.8a1,1,0,0,0-.06-1.23A1.05,1.05,0,0,0,262.93,78.39Z"/><path class="cls-3" d="M265.79,70a.93.93,0,0,0-.73,1,9,9,0,0,1-.31,3.57.8.8,0,0,0,.62,1l.43-.07c.44-.07.62-.32.58-.53a8.85,8.85,0,0,0,.42-4.25A1,1,0,0,0,265.79,70Z"/><g class="cls-5"><path class="cls-3" d="M250.89,20.06a4.9,4.9,0,0,1,6.33-2.54A4.59,4.59,0,0,1,259,18.79l2.08-4.85a.42.42,0,0,0-.23-.55L245.67,7.1a.42.42,0,0,0-.55.22l-4,9.43a1.91,1.91,0,0,0,1,2.5l8.53,3.53A5.1,5.1,0,0,1,250.89,20.06Z"/><path class="cls-4" d="M246,6.36l15.2,6.3a.41.41,0,0,0,.54-.22l.39-.9a1.79,1.79,0,0,0-1-2.36L248.55,4a1.85,1.85,0,0,0-2.4,1l-.39.9A.41.41,0,0,0,246,6.36Z"/><path class="cls-1" d="M246.85,13.72l.23-.54a2.9,2.9,0,0,1,1.45-1.61,2.54,2.54,0,0,1,2.07,0A2.46,2.46,0,0,1,252.08,13a2.8,2.8,0,0,1-.15,2.14l-.23.54a2.92,2.92,0,0,1-1.46,1.61,2.54,2.54,0,0,1-2.07,0,2.45,2.45,0,0,1-1.48-1.42A2.8,2.8,0,0,1,246.85,13.72Zm1.25.56a1.85,1.85,0,0,0-.17,1.22,1.08,1.08,0,0,0,.69.74,1.11,1.11,0,0,0,1,0,1.92,1.92,0,0,0,.77-1l.3-.7a1.86,1.86,0,0,0,.16-1.23,1.1,1.1,0,0,0-.69-.74,1.14,1.14,0,0,0-1,0,1.93,1.93,0,0,0-.76,1Z"/><path class="cls-1" d="M253,13.92a1,1,0,0,1,.22-.3.75.75,0,0,1,.24-.15c.07,0,.11,0,.13,0a.82.82,0,0,0,.43.41.83.83,0,0,0,.56,0,.79.79,0,0,0,.44-.37l.37.16a.53.53,0,0,1,.32.8l-1.89,4.42a.55.55,0,0,1-.81.34l-.15-.06a.53.53,0,0,1-.31-.8L254,15a.84.84,0,0,1-.54-.05.8.8,0,0,1-.46-.42A.69.69,0,0,1,253,13.92Z"/><path class="cls-3" d="M259.4,18.62a.31.31,0,0,0-.39.16l-.39.9a4,4,0,0,0-5-1.67,4,4,0,0,0-2.17,5.27A3.65,3.65,0,0,0,253,25.13c.07,0,.17,0,.26-.22s.07-.37-.07-.43A3.21,3.21,0,0,1,251.93,23a3.42,3.42,0,0,1,0-2.59,3.65,3.65,0,0,1,1.86-1.83A3.41,3.41,0,0,1,258.08,20L257,19.58a.33.33,0,0,0-.4.16.32.32,0,0,0,.16.39l1.61.67c.14.05.24,0,.31,0s.16-.18.19-.24l.68-1.59A.33.33,0,0,0,259.4,18.62Z"/><path class="cls-3" d="M256.15,25.06a4.16,4.16,0,0,1-1.28.12c-.24,0-.37.09-.36.26a.31.31,0,0,0,.19.32l.14.06a4.41,4.41,0,0,0,1.45-.13.35.35,0,0,0,.25-.38A.36.36,0,0,0,256.15,25.06Z"/><path class="cls-3" d="M258.54,23.13a.31.31,0,0,0-.39.16,3.15,3.15,0,0,1-.76,1,.27.27,0,0,0,0,.4l.14.06c.14.06.24,0,.27,0a3.19,3.19,0,0,0,.91-1.17A.34.34,0,0,0,258.54,23.13Z"/></g><g class="cls-6"><ellipse class="cls-4" cx="265.78" cy="31.39" rx="3.4" ry="3.35"/><ellipse class="cls-1" cx="265.78" cy="31.39" rx="3.08" ry="3.04"/><ellipse class="cls-4" cx="265.78" cy="31.39" rx="2.68" ry="2.64"/><path class="cls-1" d="M264.41,31.33a.28.28,0,0,1,.07-.09l.1-.06h.05a.72.72,0,0,0,.19.25.83.83,0,0,0,.29.16.5.5,0,0,0,.27,0,.2.2,0,0,0,.14-.14.11.11,0,0,0,0-.08.09.09,0,0,0,0-.07.14.14,0,0,0-.07-.06l-.08-.06-.11-.05s0,0-.05,0A1.74,1.74,0,0,1,265,31a1.07,1.07,0,0,1-.16-.14.45.45,0,0,1-.08-.45.55.55,0,0,1,.32-.36.85.85,0,0,1,.57,0,1,1,0,0,1,.46.24c.1.11.14.2.11.29a.23.23,0,0,1-.07.1l-.11.06h0a.76.76,0,0,0-.17-.23.82.82,0,0,0-.26-.14.47.47,0,0,0-.26,0,.2.2,0,0,0-.13.14.09.09,0,0,1,0,.05s0,0,0,0l0,0,0,0,0,0,.06,0,.05,0,.07,0,.07,0a1.37,1.37,0,0,1,.4.32.44.44,0,0,1,.06.42.52.52,0,0,1-.32.37,1,1,0,0,1-.61,0,1.17,1.17,0,0,1-.5-.27A.32.32,0,0,1,264.41,31.33Z"/><path class="cls-1" d="M265.74,32.54a.66.66,0,0,1,.06-.12l1.32-2s0,0,.09,0,.2.11.17.22l-.06.11-1.32,2h-.09C265.77,32.72,265.71,32.64,265.74,32.54Z"/></g><g class="cls-7"><ellipse class="cls-4" cx="216.81" cy="9.13" rx="5.55" ry="5.47"/><ellipse class="cls-1" cx="216.81" cy="9.13" rx="5.03" ry="4.95"/><ellipse class="cls-4" cx="216.81" cy="9.13" rx="4.37" ry="4.3"/><path class="cls-1" d="M214.57,9.14a.36.36,0,0,1,.11-.17.44.44,0,0,1,.15-.1l.09,0a1.08,1.08,0,0,0,.32.39,1.34,1.34,0,0,0,.49.25.81.81,0,0,0,.44,0,.32.32,0,0,0,.22-.24.23.23,0,0,0,0-.14.37.37,0,0,0,0-.11.46.46,0,0,0-.12-.09.41.41,0,0,0-.14-.08l-.17-.09-.09,0-.34-.19a1.84,1.84,0,0,1-.27-.23A.7.7,0,0,1,215,8a.91.91,0,0,1,0-.4.85.85,0,0,1,.49-.6,1.4,1.4,0,0,1,.94,0,1.68,1.68,0,0,1,.77.36c.16.16.23.31.19.45a.29.29,0,0,1-.11.18.62.62,0,0,1-.17.1l-.08,0a1.25,1.25,0,0,0-.3-.36,1.15,1.15,0,0,0-.43-.21.74.74,0,0,0-.42,0,.33.33,0,0,0-.2.23.25.25,0,0,0,0,.08.24.24,0,0,0,0,.08s0,0,0,.06l.06.05.06,0L216,8l.1.05.1.05.12.06a2,2,0,0,1,.68.49.76.76,0,0,1,.13.68.84.84,0,0,1-.5.62,1.54,1.54,0,0,1-1,0,1.74,1.74,0,0,1-.83-.4C214.6,9.45,214.53,9.29,214.57,9.14Z"/><path class="cls-1" d="M216.83,11a.87.87,0,0,1,.08-.19l2-3.29s0,0,.15,0,.32.17.28.34a1,1,0,0,1-.09.19l-2,3.29s-.06,0-.15,0S216.78,11.18,216.83,11Z"/></g><g class="cls-8"><ellipse class="cls-4" cx="192.59" cy="60.09" rx="8.39" ry="8.26"/><ellipse class="cls-1" cx="192.59" cy="60.09" rx="7.6" ry="7.48"/><ellipse class="cls-4" cx="192.59" cy="60.09" rx="6.6" ry="6.5"/><path class="cls-1" d="M190,62.24a.43.43,0,0,1,0-.28.66.66,0,0,1,.08-.27c0-.08.07-.11.08-.11a1.81,1.81,0,0,0,.76.15,2,2,0,0,0,.8-.19,1.22,1.22,0,0,0,.52-.42.48.48,0,0,0,0-.48.44.44,0,0,0-.14-.16.47.47,0,0,0-.17-.07h-.23a1.07,1.07,0,0,0-.24,0l-.29.07-.14,0a5.74,5.74,0,0,1-.58.11,2.46,2.46,0,0,1-.54,0,1,1,0,0,1-.52-.21A1.27,1.27,0,0,1,189,60a1.25,1.25,0,0,1,0-1.16,2,2,0,0,1,1-.95,2.4,2.4,0,0,1,1.24-.32.74.74,0,0,1,.68.33.46.46,0,0,1,0,.31.84.84,0,0,1-.09.28c0,.07-.07.11-.09.1a1.84,1.84,0,0,0-.69-.13,1.76,1.76,0,0,0-.71.17,1.07,1.07,0,0,0-.47.4.46.46,0,0,0,0,.47.61.61,0,0,0,.07.1.24.24,0,0,0,.08.06l.1.05h.25l.15,0,.16,0,.18,0,.18,0a2.88,2.88,0,0,1,1.28-.08,1.13,1.13,0,0,1,.82.65,1.33,1.33,0,0,1,0,1.21,2.3,2.3,0,0,1-1.12,1,2.68,2.68,0,0,1-1.35.34A.85.85,0,0,1,190,62.24Z"/><path class="cls-1" d="M194.46,62.25a1.86,1.86,0,0,1-.09-.3l-.92-5.74s.05-.06.18-.13c.32-.16.55-.12.67.13a1.22,1.22,0,0,1,.09.3l.93,5.73s-.06.07-.19.14C194.81,62.53,194.58,62.49,194.46,62.25Z"/></g></g></g></svg>