<svg xmlns="http://www.w3.org/2000/svg" viewBox="0 0 275 80"><defs><style>.cls-1{fill:#121a40;}.cls-2{fill:#212963;}.cls-3{fill:#3d61b0;}.cls-4{fill:#5794de;}</style></defs><title>Banner_SeguroTarjetas</title><g id="Capa_2" data-name="Capa 2"><g id="Capa_2-2" data-name="Capa 2"><rect class="cls-1" width="275" height="80" rx="5"/><rect class="cls-2" x="193.28" y="24.82" width="54.29" height="33.83" rx="2.95" transform="translate(-3.76 50.19) rotate(-12.88)"/><rect class="cls-3" x="195.07" y="47.33" width="54.16" height="4.56" transform="translate(-5.46 51.5) rotate(-13.07)"/><path class="cls-3" d="M206,41.76,204.44,35a1.16,1.16,0,0,0-1.39-.87h0l-6.76,1.55a1.16,1.16,0,0,0-.87,1.39h0L197,43.82a1.17,1.17,0,0,0,1.39.85l6.76-1.54A1.16,1.16,0,0,0,206,41.76Z"/><path class="cls-4" d="M252.71,35.29a2.07,2.07,0,0,0-1.44-.23l-2.37.55-.5-2.19A4.57,4.57,0,0,0,242.59,30c-2.88.68-4.41,3-3.8,5.61l.49,2.18-1.91.44a1.92,1.92,0,0,0-1.46,2.26L238,49.65A1.92,1.92,0,0,0,240.33,51h0l13.86-3.17a1.91,1.91,0,0,0,1.49-2.25l-2.09-9.15A1.79,1.79,0,0,0,252.71,35.29Zm-4.51.48-8.29,1.89-.5-2.18a4.26,4.26,0,0,1,8.29-1.9Z"/><path class="cls-2" d="M245.22,40.5a1.41,1.41,0,0,0,.06,2.78l.41,1.77a.59.59,0,0,0,.7.43h0a.59.59,0,0,0,.43-.7h0L246.41,43a1.44,1.44,0,0,0,.53-1.46A1.45,1.45,0,0,0,245.22,40.5Z"/><path class="cls-2" d="M169.43,0a2,2,0,0,0,.29.17L202.88,15a2.2,2.2,0,0,0,2.92-1.12L212,0Z"/><polygon class="cls-3" points="206.85 11.31 208.24 8.18 189.8 0 181.35 0 206.85 11.31"/><path class="cls-4" d="M211.52,3.43,210.84,5,205,2.36,205.7.83a3.08,3.08,0,0,1,.55-.83h-.64a3.8,3.8,0,0,0-.35.63l-.69,1.53-1.34-.6a1.45,1.45,0,0,0-1.9.7l-2.88,6.43a1.43,1.43,0,0,0,.77,1.87h0L209,14.93a1.44,1.44,0,0,0,1.92-.68l2.88-6.43a1.38,1.38,0,0,0,0-1.11,1.56,1.56,0,0,0-.76-.78l-1.67-.74L212,3.65A3.28,3.28,0,0,0,211.47,0h-.72A2.81,2.81,0,0,1,211.52,3.43Z"/><path class="cls-2" d="M206.91,6.46a1.06,1.06,0,0,0-1.21,1.7l-.56,1.24a.44.44,0,0,0,.23.57h0a.43.43,0,0,0,.57-.22h0l.56-1.25a1.06,1.06,0,0,0,1-.64A1.08,1.08,0,0,0,206.91,6.46Z"/><path class="cls-2" d="M189.54,71.69,156.38,56.85A2.22,2.22,0,0,0,153.45,58l-8.56,19.15A2.2,2.2,0,0,0,146,80h42.29l2.41-5.39A2.21,2.21,0,0,0,189.54,71.69Z"/><polygon class="cls-3" points="147.36 71.56 145.97 74.69 157.94 80 166.39 80 147.36 71.56"/><path class="cls-3" d="M159.1,69.35l2.13-4.75a.87.87,0,0,0-.44-1.15h0L156,61.33a.87.87,0,0,0-1.15.43h0l-2.13,4.75a.86.86,0,0,0,.45,1.13L158,69.78A.87.87,0,0,0,159.1,69.35Z"/><path class="cls-4" d="M186.35,78.85A3.45,3.45,0,0,0,181.82,80h.6a2.91,2.91,0,0,1,3.68-.73,3.64,3.64,0,0,1,1.1.73h.67A4,4,0,0,0,186.35,78.85Z"/><path class="cls-2" d="M275,75V58.76L247,68a2.22,2.22,0,0,0-1.41,2.8l3,9.19H270A5,5,0,0,0,275,75Z"/><path class="cls-3" d="M265.11,80H270a5,5,0,0,0,4.65-3.19Z"/><path class="cls-3" d="M257.47,75.41l-1.63-5a.87.87,0,0,0-1.1-.55h0l-4.94,1.64a.86.86,0,0,0-.56,1.09h0l1.63,4.94a.86.86,0,0,0,1.1.53l4.94-1.63A.86.86,0,0,0,257.47,75.41Z"/><path class="cls-2" d="M275,5a5,5,0,0,0-5-5H256.68L261,13.1a2.21,2.21,0,0,0,2.79,1.41L275,10.81Z"/><path class="cls-3" d="M275,5a4.94,4.94,0,0,0-.81-2.71L259.1,7.34l1.08,3.24L275,5.63Z"/></g></g></svg>