<svg xmlns="http://www.w3.org/2000/svg" viewBox="0 0 275.42 80"><defs><style>.cls-1{fill:#9090fb;}.cls-2{fill:#7e6bfa;}.cls-3{fill:#c2a6fb;}.cls-4{opacity:0.46;}</style></defs><title>Banner_AperturaCuenta</title><g id="Capa_2" data-name="Capa 2"><g id="Capa_2-2" data-name="Capa 2"><rect class="cls-1" width="275" height="80" rx="5"/><path class="cls-2" d="M229.8,14.29a10.54,10.54,0,1,0-9,11.86h0A10.55,10.55,0,0,0,229.8,14.29Z"/><path class="cls-3" d="M228.46,14.44a9.2,9.2,0,1,1-10.37-7.85A9.19,9.19,0,0,1,228.46,14.44Zm-.74.11a8.44,8.44,0,1,0-7.21,9.52A8.44,8.44,0,0,0,227.72,14.55Z"/><path class="cls-2" d="M229.8,14.29a10.54,10.54,0,1,0-9,11.86h0A10.55,10.55,0,0,0,229.8,14.29Z"/><path class="cls-3" d="M228.46,14.44a9.2,9.2,0,1,1-10.37-7.85A9.19,9.19,0,0,1,228.46,14.44Zm-.74.11a8.44,8.44,0,1,0-7.21,9.52A8.44,8.44,0,0,0,227.72,14.55Z"/><path class="cls-3" d="M215.75,18.25a3.6,3.6,0,0,0,1.95.15,3.15,3.15,0,0,0,1.91-.82A1.86,1.86,0,0,0,220.1,16a1.56,1.56,0,0,0-.78-1.24,4.12,4.12,0,0,0-1.72-.46l-.26,0-.26,0-.22,0-.21,0-.17-.05a.44.44,0,0,1-.16-.06l-.11-.1-.08-.13a.5.5,0,0,1,0-.17.66.66,0,0,1,.21-.61,1.52,1.52,0,0,1,.81-.33,2.45,2.45,0,0,1,1,.09,2.56,2.56,0,0,1,.85.48.3.3,0,0,0,.15-.09,1.15,1.15,0,0,0,.25-.34.65.65,0,0,0,.09-.43c0-.31-.29-.56-.74-.75a3.51,3.51,0,0,0-1.79-.12,2.89,2.89,0,0,0-1.81.82,1.79,1.79,0,0,0-.49,1.57,1.9,1.9,0,0,0,.3.8,1.33,1.33,0,0,0,.59.51,2.87,2.87,0,0,0,.71.26,7.35,7.35,0,0,0,.82.11l.19,0,.41,0,.34.05a1,1,0,0,1,.31.1.79.79,0,0,1,.19.17.69.69,0,0,1-.12.91,1.6,1.6,0,0,1-.87.33,2.64,2.64,0,0,1-2.07-.62.32.32,0,0,0-.16.1,1.5,1.5,0,0,0-.23.33.69.69,0,0,0-.08.4A1.13,1.13,0,0,0,215.75,18.25Z"/><path class="cls-3" d="M221.66,19.88q.3,0,.3-.09l1.36-8.08a1.63,1.63,0,0,0,0-.44c-.06-.38-.33-.54-.83-.47-.2,0-.3.06-.3.1L220.84,19a2.13,2.13,0,0,0,0,.44C220.88,19.8,221.16,20,221.66,19.88Z"/><path class="cls-2" d="M271,68.32a7.76,7.76,0,1,0-6.65,8.73h0A7.76,7.76,0,0,0,271,68.32Z"/><path class="cls-3" d="M270,68.43a6.77,6.77,0,1,1-7.64-5.78A6.77,6.77,0,0,1,270,68.43Zm-.55.08a6.21,6.21,0,1,0-5.3,7A6.21,6.21,0,0,0,269.43,68.51Z"/><path class="cls-2" d="M271,68.32a7.76,7.76,0,1,0-6.65,8.73h0A7.76,7.76,0,0,0,271,68.32Z"/><path class="cls-3" d="M270,68.43a6.77,6.77,0,1,1-7.64-5.78A6.77,6.77,0,0,1,270,68.43Zm-.55.08a6.21,6.21,0,1,0-5.3,7A6.21,6.21,0,0,0,269.43,68.51Z"/><path class="cls-3" d="M260.62,71.24a2.68,2.68,0,0,0,1.43.1,2.33,2.33,0,0,0,1.42-.6,1.36,1.36,0,0,0,.35-1.2,1.15,1.15,0,0,0-.57-.91,2.93,2.93,0,0,0-1.26-.34l-.2,0h-.19l-.16,0-.16,0-.12,0-.12-.05-.08-.07a.21.21,0,0,1-.06-.1.5.5,0,0,1,0-.12.48.48,0,0,1,.16-.45,1.1,1.1,0,0,1,.6-.24,1.55,1.55,0,0,1,.74.07,1.78,1.78,0,0,1,.63.35.24.24,0,0,0,.11-.07,1.05,1.05,0,0,0,.18-.25.52.52,0,0,0,.07-.32c0-.23-.22-.41-.55-.55a2.68,2.68,0,0,0-1.32-.09,2.15,2.15,0,0,0-1.33.6,1.35,1.35,0,0,0-.36,1.16,1.36,1.36,0,0,0,.22.59,1,1,0,0,0,.43.38,2.58,2.58,0,0,0,.53.19,4.11,4.11,0,0,0,.6.08h.14l.31,0,.25,0a.81.81,0,0,1,.22.07.58.58,0,0,1,.14.13.5.5,0,0,1,.08.2.5.5,0,0,1-.17.47,1.19,1.19,0,0,1-.63.24,1.87,1.87,0,0,1-.85-.08,1.81,1.81,0,0,1-.68-.37.17.17,0,0,0-.12.07.81.81,0,0,0-.17.24.51.51,0,0,0-.06.3A.88.88,0,0,0,260.62,71.24Z"/><path class="cls-3" d="M265,72.43c.15,0,.22,0,.23-.07l1-5.94a1.22,1.22,0,0,0,0-.33c0-.28-.24-.39-.6-.34-.16,0-.23,0-.23.07l-1,6a1.77,1.77,0,0,0,0,.32C264.4,72.37,264.61,72.48,265,72.43Z"/><g class="cls-4"><path class="cls-2" d="M182.06,63.37a7.61,7.61,0,1,0-6.52,8.57h0A7.62,7.62,0,0,0,182.06,63.37Z"/><path class="cls-3" d="M181.1,63.48a6.65,6.65,0,1,1-7.5-5.67A6.66,6.66,0,0,1,181.1,63.48Zm-.54.08a6.09,6.09,0,1,0-5.21,6.88A6.09,6.09,0,0,0,180.56,63.56Z"/><path class="cls-2" d="M182.06,63.37a7.61,7.61,0,1,0-6.52,8.57h0A7.62,7.62,0,0,0,182.06,63.37Z"/><path class="cls-3" d="M181.1,63.48a6.65,6.65,0,1,1-7.5-5.67A6.66,6.66,0,0,1,181.1,63.48Zm-.54.08a6.09,6.09,0,1,0-5.21,6.88A6.09,6.09,0,0,0,180.56,63.56Z"/><path class="cls-3" d="M171.91,66.24a2.6,2.6,0,0,0,1.41.1,2.27,2.27,0,0,0,1.39-.59,1.34,1.34,0,0,0,.35-1.18,1.13,1.13,0,0,0-.57-.89,2.94,2.94,0,0,0-1.24-.34h-.19l-.18,0h-.16a.66.66,0,0,1-.15,0l-.13,0-.11-.05-.08-.07a.21.21,0,0,1-.06-.1.5.5,0,0,1,0-.12.47.47,0,0,1,.16-.44,1,1,0,0,1,.58-.23,1.5,1.5,0,0,1,.73.06,1.66,1.66,0,0,1,.62.35.24.24,0,0,0,.11-.07,1.14,1.14,0,0,0,.18-.25.54.54,0,0,0,.06-.31c0-.22-.21-.4-.54-.53a2.36,2.36,0,0,0-1.29-.09,2.06,2.06,0,0,0-1.31.59,1.42,1.42,0,0,0-.14,1.71,1.09,1.09,0,0,0,.43.37,2.42,2.42,0,0,0,.51.19c.2,0,.4.06.59.08H173l.29,0,.25,0a.57.57,0,0,1,.22.07.53.53,0,0,1,.14.12.37.37,0,0,1,.07.2.5.5,0,0,1-.16.46,1.19,1.19,0,0,1-.63.24,1.76,1.76,0,0,1-.82-.08,1.7,1.7,0,0,1-.67-.37.25.25,0,0,0-.12.07.78.78,0,0,0-.16.24.49.49,0,0,0-.06.29A.84.84,0,0,0,171.91,66.24Z"/><path class="cls-3" d="M176.19,67.41q.21,0,.21-.06l1-5.84a1.71,1.71,0,0,0,0-.32c0-.28-.23-.39-.59-.34-.15,0-.22,0-.22.07l-1,5.84a1.15,1.15,0,0,0,0,.32C175.62,67.35,175.82,67.46,176.19,67.41Z"/></g><path class="cls-2" d="M246.57,53.5a3.3,3.3,0,0,0-3,.49,2.9,2.9,0,0,0-1.29-.84,2.75,2.75,0,0,0-1.78.05,14.61,14.61,0,0,0-.51-2.7,17,17,0,0,0-2-4.33,20.16,20.16,0,0,0-8.5-7.31,22.67,22.67,0,0,0-4.73-1.58c-.68-.14-1.37-.26-2.06-.34l-.26,0L219,33.2a.51.51,0,0,0-.34-.17.5.5,0,0,0-.52.46l-.3,3.39-.57.06a19.1,19.1,0,0,0-11.62,5.73c-2.24,2.09-6,2.07-6.72,2a.59.59,0,0,0-.43.55l-.16,6.59.07.16c.29.23,1.22.93,3.28,2.24l.31.24,0,.49a16.2,16.2,0,0,0,3.43,7.43l.13.16,1.25,6.85a.45.45,0,0,0,.37.37l3.65.8a.83.83,0,0,0,.74-.5l.55-2.5.93.48a19.63,19.63,0,0,0,4.55,1.58h.06a21,21,0,0,0,6.71.4l1.3-.13L225.06,73a.71.71,0,0,0,.39.71l3.57.77a.42.42,0,0,0,.46-.17l5.31-8.08.1-.08a14,14,0,0,0,5.71-11.81A1.71,1.71,0,0,1,242,54.2a2,2,0,0,1,.84.57,3.37,3.37,0,0,0-.66,3.07,1.31,1.31,0,0,0,1.2.83h.24a1.37,1.37,0,0,0,1.17-1.25,4.25,4.25,0,0,0-.54-2.53,2.17,2.17,0,0,1,2-.33.55.55,0,0,0,.32-1Zm-2.89,3.73c-.06.35-.19.35-.29.34s-.17,0-.23-.16a2.14,2.14,0,0,1,.28-1.6A2.88,2.88,0,0,1,243.68,57.23Z"/><circle class="cls-3" cx="209.92" cy="45.9" r="1.78"/><path class="cls-3" d="M231.12,44c-2.2-2.42-6.68-3.41-6.87-3.45a.8.8,0,1,0-.34,1.56s4.17.92,6,3a.79.79,0,0,0,1.13,0,.8.8,0,0,0,.05-1.13h0Z"/><path class="cls-2" d="M194.33,22.24a1.91,1.91,0,0,0-1.74.28,1.81,1.81,0,0,0-.76-.49,1.66,1.66,0,0,0-1,0A8.77,8.77,0,0,0,189.3,18a11.79,11.79,0,0,0-5-4.28,13.05,13.05,0,0,0-2.77-.92,12.21,12.21,0,0,0-1.21-.2l-.15,0-2-2.17a.3.3,0,0,0-.19-.1.29.29,0,0,0-.31.27l-.18,2-.33,0a11.15,11.15,0,0,0-6.8,3.35,6,6,0,0,1-3.93,1.2.33.33,0,0,0-.25.32l-.1,3.86,0,.09a22,22,0,0,0,1.91,1.31l.18.14,0,.29a9.55,9.55,0,0,0,2,4.35l.08.09.73,4a.28.28,0,0,0,.22.22l2.13.46a.46.46,0,0,0,.43-.29l.33-1.46.54.28a11.8,11.8,0,0,0,2.66.92h0a12,12,0,0,0,3.92.23l.76-.07-.39,1.8a.41.41,0,0,0,.23.42l2.08.45a.26.26,0,0,0,.28-.1l3.1-4.73.06-.05a8.56,8.56,0,0,0,3.18-5,8.39,8.39,0,0,0,.16-1.93.94.94,0,0,1,.8-.09,1,1,0,0,1,.49.33,2,2,0,0,0-.38,1.8.76.76,0,0,0,.7.48h.14a.81.81,0,0,0,.69-.73,2.48,2.48,0,0,0-.32-1.48,1.25,1.25,0,0,1,1.19-.2.32.32,0,0,0,.4-.21A.32.32,0,0,0,194.33,22.24Zm-1.69,2.18c0,.2-.11.2-.17.2a.13.13,0,0,1-.13-.09,1.28,1.28,0,0,1,.16-.94A1.55,1.55,0,0,1,192.64,24.42Z"/><circle class="cls-3" cx="172.89" cy="17.79" r="1.04"/><path class="cls-3" d="M185.29,16.7a8.73,8.73,0,0,0-4-2,.47.47,0,1,0-.2.91,8,8,0,0,1,3.52,1.74.48.48,0,0,0,.67,0,.47.47,0,0,0,0-.66Z"/><path class="cls-2" d="M275,44V16.79c-.36-.2-.73-.39-1.11-.56A18.9,18.9,0,0,0,270,14.92a16.47,16.47,0,0,0-1.71-.28l-.21,0-2.83-3.08a.42.42,0,0,0-.28-.14.41.41,0,0,0-.43.38l-.25,2.82-.47,0a15.91,15.91,0,0,0-9.65,4.76c-1.86,1.73-5,1.72-5.58,1.7a.5.5,0,0,0-.35.46L248.06,27l.06.13c.24.19,1,.77,2.72,1.86l.26.2,0,.41A13.55,13.55,0,0,0,254,35.79l.11.13,1,5.68a.41.41,0,0,0,.32.32l3,.65a.65.65,0,0,0,.6-.41l.47-2.08.76.4a16.28,16.28,0,0,0,3.78,1.31h.05a17.39,17.39,0,0,0,5.57.33l1.08-.11-.56,2.57a.6.6,0,0,0,.32.59l3,.63a.35.35,0,0,0,.38-.13Z"/><circle class="cls-3" cx="257.66" cy="22.07" r="1.48"/><path class="cls-3" d="M275.26,20.52c-1.83-2-5.54-2.83-5.7-2.87a.67.67,0,0,0-.8.51.66.66,0,0,0,.51.79s3.46.77,5,2.47a.67.67,0,1,0,1-.9h0Z"/></g></g></svg>