<svg xmlns="http://www.w3.org/2000/svg" viewBox="0 0 275 80"><defs><style>.cls-1{fill:#b2eef9;}.cls-2{fill:#78d4e7;}.cls-3{fill:#73cad6;}.cls-4{fill:#c3ecf7;}</style></defs><title>Banner_IncrementoLinea</title><g id="Capa_2" data-name="Capa 2"><g id="Capa_2-2" data-name="Capa 2"><path class="cls-1" d="M193.52.19c-.4.57-.87,1.17-1.34,1.74a.68.68,0,0,0,.11,1,.72.72,0,0,0,.6.15.61.61,0,0,0,.36-.23c.49-.61,1-1.2,1.41-1.86a.68.68,0,0,0-.19-.92l0,0h-.73A.58.58,0,0,0,193.52.19Z"/><path class="cls-1" d="M273.21,2.08A.66.66,0,0,1,273,3a21.23,21.23,0,0,1-2.15.9l-.08,0a.66.66,0,0,1-.78-.4.72.72,0,0,1,.4-.87,15.12,15.12,0,0,0,2.08-.85A.66.66,0,0,1,273.21,2.08Z"/><path class="cls-1" d="M258.6,2.92a.67.67,0,0,0,.79.51l3.95-.83a.68.68,0,0,0,.52-.79L263.48,0H258Z"/><rect class="cls-2" width="275" height="80" rx="5"/><path class="cls-3" d="M238.63,25.24a5,5,0,0,0-1.81.08l-40.37,8.59a4.78,4.78,0,0,0-3.67,5.63l4.67,21.86a4.78,4.78,0,0,0,5.66,3.66l40.43-8.64a4.79,4.79,0,0,0,3.69-5.67L242.57,29a4.75,4.75,0,0,0-1.93-2.91"/><path class="cls-4" d="M228.44,39.53a1.1,1.1,0,0,1,1.41,1.69,33,33,0,0,1-3,2.29,1.4,1.4,0,0,1-.43.16,1.09,1.09,0,0,1-1.1-.47,1.14,1.14,0,0,1,.28-1.52c1-.65,1.91-1.41,2.81-2.15Z"/><path class="cls-4" d="M236.41,32.11a1.08,1.08,0,0,1,.3,1.47c-.72,1.07-1.49,2-2.28,3a1,1,0,0,1-.58.38,1.2,1.2,0,0,1-1-.25,1.09,1.09,0,0,1-.17-1.53c.75-.93,1.51-1.89,2.16-2.82a1.07,1.07,0,0,1,1.49-.29Z"/><path class="cls-4" d="M221.5,45.37a1.08,1.08,0,0,1-.32,1.48,31.78,31.78,0,0,1-3.47,1.45l-.14,0a1.06,1.06,0,0,1-1.25-.65,1.14,1.14,0,0,1,.65-1.39,28.91,28.91,0,0,0,3.36-1.38A1.08,1.08,0,0,1,221.5,45.37Z"/><path class="cls-4" d="M212.13,48.63a1.08,1.08,0,0,1-.66,1.39h0l-3.49.75a1.09,1.09,0,0,1-.46-2.11l3.5-.75A1.07,1.07,0,0,1,212.13,48.63Z"/><path class="cls-4" d="M248.73,18.91a1.09,1.09,0,0,1-.56,1.38l-.13,0a1.12,1.12,0,0,1-1.27-.68l-1.4-3.77-1.15,2.55a1.07,1.07,0,0,1-.78.63,1,1,0,0,1-.67-.06l0,0a1,1,0,0,1-.5-1.38h0l1.09-2.6-3.77,1.41a1.09,1.09,0,1,1-.75-2.05h0L245,12.06a1.15,1.15,0,0,1,1.41.66Z"/><path class="cls-4" d="M201.44,52.17l-5.68,1.22-.45-2.12L201,50.06a1.08,1.08,0,0,1,1.28.83h0a1.07,1.07,0,0,1-.82,1.28Z"/><rect class="cls-4" x="236.63" y="24.64" width="6.04" height="2.37" rx="1.07" transform="translate(109.35 228.61) rotate(-63.43)"/><rect class="cls-4" x="196.14" y="50.42" width="50.89" height="4.29" transform="translate(-6.09 47.44) rotate(-12.06)"/><path class="cls-4" d="M206.38,44.94,205,38.57a1.09,1.09,0,0,0-1.29-.85h0l-6.37,1.35a1.09,1.09,0,0,0-.85,1.28h0l1.33,6.38a1.1,1.1,0,0,0,1.29.82l6.38-1.34A1.1,1.1,0,0,0,206.38,44.94Z"/><path class="cls-3" d="M169.74,1.14a3,3,0,0,0-2.27,3.49l2.89,13.52a3,3,0,0,0,3.51,2.27l25-5.35a3,3,0,0,0,2.29-3.51L198.7,0H175.09Z"/><path class="cls-4" d="M189.54,4.62a.67.67,0,0,1,1,.16.69.69,0,0,1-.07.88,19.71,19.71,0,0,1-1.85,1.42.82.82,0,0,1-.26.1.67.67,0,0,1-.68-.29A.7.7,0,0,1,187.8,6c.59-.4,1.19-.88,1.74-1.33Z"/><path class="cls-4" d="M185.24,8.23a.67.67,0,0,1-.19.92,21.23,21.23,0,0,1-2.15.9l-.08,0a.68.68,0,0,1-.78-.41.71.71,0,0,1,.4-.86A16.48,16.48,0,0,0,184.52,8,.65.65,0,0,1,185.24,8.23Z"/><path class="cls-4" d="M179.45,10.25a.68.68,0,0,1-.41.86h0l-2.16.46a.66.66,0,0,1-.74-.59.67.67,0,0,1,.46-.71l2.16-.47A.67.67,0,0,1,179.45,10.25Z"/><path class="cls-4" d="M172.83,12.44l-3.51.75L169,11.88l3.51-.75a.68.68,0,0,1,.79.52h0a.66.66,0,0,1-.51.79Z"/><rect class="cls-4" x="169.56" y="11.36" width="31.49" height="2.65" transform="translate(1.44 38.98) rotate(-12.06)"/><path class="cls-4" d="M175.89,8,175.06,4a.66.66,0,0,0-.79-.52h0l-3.94.83a.67.67,0,0,0-.52.8h0l.83,4a.67.67,0,0,0,.8.5l3.94-.82A.68.68,0,0,0,175.89,8Z"/><path class="cls-3" d="M275,75V62l-.22-.09a3,3,0,0,0-1.12,0l-25,5.31a3,3,0,0,0-2.27,3.49l2,9.26H270A5,5,0,0,0,275,75Z"/><path class="cls-4" d="M268.48,70.73a.68.68,0,0,1,.87,1,19.57,19.57,0,0,1-1.84,1.42,1.17,1.17,0,0,1-.26.1.69.69,0,0,1-.69-.3.71.71,0,0,1,.18-.94c.59-.4,1.18-.87,1.74-1.33Z"/><path class="cls-4" d="M273.41,66.14a.66.66,0,0,1,.18.91c-.44.66-.92,1.26-1.41,1.86a.6.6,0,0,1-.36.24.73.73,0,0,1-.6-.16.68.68,0,0,1-.1-.94c.46-.58.94-1.17,1.33-1.75a.67.67,0,0,1,.93-.18Z"/><path class="cls-4" d="M264.18,74.35a.65.65,0,0,1-.2.91,20.15,20.15,0,0,1-2.14.9l-.09,0a.65.65,0,0,1-.77-.4.71.71,0,0,1,.4-.87,15.65,15.65,0,0,0,2.08-.85A.66.66,0,0,1,264.18,74.35Z"/><path class="cls-4" d="M258.38,76.36a.66.66,0,0,1-.4.86h0l-2.16.46a.67.67,0,0,1-.74-.6.66.66,0,0,1,.46-.71l2.16-.46A.66.66,0,0,1,258.38,76.36Z"/><path class="cls-1" d="M275,55.11l-.11,0a.66.66,0,0,0-.4.86.65.65,0,0,0,.51.42Z"/><path class="cls-4" d="M251.77,78.56l-3.51.75L248,78l3.52-.75a.66.66,0,0,1,.79.51h0a.67.67,0,0,1-.51.8Z"/><path class="cls-1" d="M275,61.44,274.22,63a.66.66,0,0,0,.3.89l.12.06A.66.66,0,0,0,275,64Z"/><path class="cls-4" d="M265,80l8.94-1.91A5,5,0,0,0,275,75.15L252.26,80Z"/><path class="cls-4" d="M254.83,74.08,254,70.14a.68.68,0,0,0-.8-.53h0l-3.94.83a.67.67,0,0,0-.53.79h0l.83,3.94a.68.68,0,0,0,.8.51l3.95-.83A.68.68,0,0,0,254.83,74.08Z"/><path class="cls-3" d="M275,5a5,5,0,0,0-5-5H255.77l2.56,12a3,3,0,0,0,3.51,2.27L275,11.45Z"/><path class="cls-4" d="M267.42,4.09A.68.68,0,0,1,267,5h0l-2.16.47a.67.67,0,0,1-.74-.6.68.68,0,0,1,.46-.71l2.16-.46A.67.67,0,0,1,267.42,4.09Z"/><path class="cls-4" d="M260.8,6.29,257.29,7,257,5.73,260.52,5a.66.66,0,0,1,.79.51h0a.67.67,0,0,1-.51.8Z"/><path class="cls-4" d="M275,5c0-.07,0-.13,0-.2L257.6,8.52l.55,2.59L275,7.51Z"/><path class="cls-3" d="M177.38,69.47a3.59,3.59,0,0,0-1.17-.55l-28.45-8a3.43,3.43,0,0,0-4.21,2.35l-4.32,15.41a3.56,3.56,0,0,0-.1,1.33h37.59l1.92-6.85a3.46,3.46,0,0,0-.25-2.49Z"/><path class="cls-4" d="M166.16,75.13a.81.81,0,0,1,.89.69.8.8,0,0,1-.55.86,24.08,24.08,0,0,1-2.65.46,1.24,1.24,0,0,1-.33,0,.79.79,0,0,1-.54-.67.83.83,0,0,1,.69-.87c.82-.09,1.68-.26,2.49-.43Z"/><path class="cls-4" d="M173.69,73.08a.78.78,0,0,1-.31,1c-.81.44-1.62.79-2.44,1.15a.78.78,0,0,1-.5,0,.88.88,0,0,1-.53-.49.77.77,0,0,1,.41-1c.78-.34,1.58-.7,2.3-1.07a.76.76,0,0,1,1,.31Z"/><path class="cls-4" d="M159.82,76.52a.77.77,0,0,1-.7.83,22,22,0,0,1-2.68-.23l-.1,0a.78.78,0,0,1-.58-.83.82.82,0,0,1,.88-.67,18.75,18.75,0,0,0,2.59.24A.78.78,0,0,1,159.82,76.52Z"/><path class="cls-4" d="M152.79,75.47a.77.77,0,0,1-.88.66h0l-2.46-.69a.78.78,0,0,1-.44-1,.79.79,0,0,1,.86-.48l2.46.69A.77.77,0,0,1,152.79,75.47Z"/><path class="cls-4" d="M185.9,68.83a.79.79,0,0,1-.82.68l-.1,0a.8.8,0,0,1-.57-.85l.37-2.86L183.2,67a.77.77,0,0,1-.7.14.71.71,0,0,1-.41-.26v0a.72.72,0,0,1,.14-1h0l1.56-1.29-2.86-.36a.78.78,0,1,1,.21-1.55h0l4.67.61a.82.82,0,0,1,.67.89Z"/><path class="cls-4" d="M144.83,74.15l-4-1.12.42-1.49,4,1.12a.77.77,0,0,1,.53,1h0a.76.76,0,0,1-.95.54Z"/><rect class="cls-4" x="175.68" y="69.33" width="4.32" height="1.7" rx="0.77" transform="translate(-7.54 116.96) rotate(-35.7)"/><polygon class="cls-4" points="140.35 74.71 139.52 77.67 147.82 80 159.19 80 140.35 74.71"/><path class="cls-4" d="M150.38,71.22l1.27-4.49a.78.78,0,0,0-.53-1h0l-4.48-1.27a.78.78,0,0,0-1,.54h0l-1.27,4.49a.78.78,0,0,0,.54,1l4.49,1.27A.78.78,0,0,0,150.38,71.22Z"/></g></g></svg>