<svg xmlns="http://www.w3.org/2000/svg" viewBox="0 0 275 80"><defs><style>.cls-1{fill:#3d4a9c;}.cls-2{fill:#5794de;}.cls-3{fill:#427acc;}.cls-4{fill:#3d61b0;}</style></defs><title>Banner_TarjetaVirtual</title><g id="Capa_2" data-name="Capa 2"><g id="Capa_2-2" data-name="Capa 2"><rect class="cls-1" width="275" height="80" rx="5"/><path class="cls-2" d="M246.37,52.77l-50.52,9.07a3.15,3.15,0,0,1-3.66-2.55v0l-5-28.73a3.21,3.21,0,0,1,2.55-3.71l50.52-9.07a3.15,3.15,0,0,1,3.66,2.55v0l5,28.73A3.2,3.2,0,0,1,246.37,52.77Z"/><path class="cls-3" d="M240.28,17.73l-4.52.81a28.1,28.1,0,0,1,.36,16.16C232.63,47.48,223,55.05,219,57.68l27.37-4.91a3.2,3.2,0,0,0,2.55-3.71l-5-28.73v0A3.15,3.15,0,0,0,240.28,17.73Z"/><path class="cls-4" d="M239.7,45.12a64.9,64.9,0,0,1-13.14,11.21l19.81-3.56a3.2,3.2,0,0,0,2.55-3.71L246.32,34A35.25,35.25,0,0,1,239.7,45.12Z"/><circle class="cls-3" cx="193.55" cy="45.43" r="0.98"/><circle class="cls-3" cx="195.98" cy="45" r="0.98"/><circle class="cls-3" cx="198.41" cy="44.56" r="0.98"/><circle class="cls-3" cx="200.84" cy="44.13" r="0.98"/><circle class="cls-3" cx="204.21" cy="43.52" r="0.98"/><circle class="cls-3" cx="206.64" cy="43.09" r="0.98"/><circle class="cls-3" cx="209.07" cy="42.65" r="0.98"/><circle class="cls-3" cx="211.5" cy="42.22" r="0.98"/><circle class="cls-3" cx="214.86" cy="41.61" r="0.98"/><circle class="cls-3" cx="217.29" cy="41.18" r="0.98"/><circle class="cls-3" cx="219.72" cy="40.74" r="0.98"/><circle class="cls-3" cx="222.15" cy="40.31" r="0.98"/><circle class="cls-3" cx="225.52" cy="39.7" r="0.98"/><circle class="cls-3" cx="227.95" cy="39.27" r="0.98"/><circle class="cls-3" cx="230.38" cy="38.83" r="0.98"/><circle class="cls-3" cx="232.81" cy="38.4" r="0.98"/><rect class="cls-3" x="191.34" y="32.27" width="7.95" height="7.03" rx="1.21" transform="translate(-3.25 35) rotate(-10.16)"/><path class="cls-2" d="M181.26,69.12,149.77,52.34a2.22,2.22,0,0,0-3,.93l-9.65,17.82v0a2.19,2.19,0,0,0,.9,3L149.11,80h28.76l4.27-7.89,0,0A2.2,2.2,0,0,0,181.26,69.12Z"/><path class="cls-3" d="M181.26,69.12l-2.82-1.5a19.53,19.53,0,0,1-6.75,9A25.52,25.52,0,0,1,165.35,80h12.52l4.27-7.89,0,0A2.2,2.2,0,0,0,181.26,69.12Z"/><circle class="cls-3" cx="143.82" cy="64.14" r="0.68"/><circle class="cls-3" cx="145.34" cy="64.95" r="0.68"/><circle class="cls-3" cx="146.85" cy="65.75" r="0.68"/><circle class="cls-3" cx="148.36" cy="66.56" r="0.68"/><circle class="cls-3" cx="150.46" cy="67.68" r="0.68"/><circle class="cls-3" cx="151.98" cy="68.49" r="0.68"/><circle class="cls-3" cx="153.49" cy="69.3" r="0.68"/><circle class="cls-3" cx="155" cy="70.1" r="0.68"/><circle class="cls-3" cx="157.1" cy="71.22" r="0.68"/><circle class="cls-3" cx="158.62" cy="72.03" r="0.68"/><circle class="cls-3" cx="160.13" cy="72.84" r="0.68"/><circle class="cls-3" cx="161.65" cy="73.65" r="0.68"/><circle class="cls-3" cx="163.74" cy="74.77" r="0.68"/><circle class="cls-3" cx="165.26" cy="75.57" r="0.68"/><circle class="cls-3" cx="166.77" cy="76.38" r="0.68"/><circle class="cls-3" cx="168.29" cy="77.19" r="0.68"/><rect class="cls-3" x="146.17" y="57.19" width="5.53" height="4.89" rx="0.84" transform="translate(45.6 -63.08) rotate(28.08)"/><path class="cls-2" d="M274.25,57.24v0a2.18,2.18,0,0,0-2.77-1.38l-33.8,11.46a2.23,2.23,0,0,0-1.36,2.82L239.59,80H270a5,5,0,0,0,5-5V59.48Z"/><path class="cls-3" d="M274.25,57.24v0a2.18,2.18,0,0,0-2.77-1.38l-3,1a19.49,19.49,0,0,1,1.92,11.06A27,27,0,0,1,265.71,80H270a5,5,0,0,0,5-5V59.48Z"/><path class="cls-4" d="M275,75V72.82c-.33.63-.69,1.27-1.1,1.9A43.93,43.93,0,0,1,269.84,80H270A5,5,0,0,0,275,75Z"/><path class="cls-3" d="M242,79.06a.69.69,0,0,0-.43.87.43.43,0,0,1,0,.07h1.22a.69.69,0,0,0,0-.51A.68.68,0,0,0,242,79.06Z"/><circle class="cls-3" cx="243.83" cy="79.16" r="0.68"/><circle class="cls-3" cx="245.46" cy="78.61" r="0.68"/><circle class="cls-3" cx="247.08" cy="78.06" r="0.68"/><circle class="cls-3" cx="249.34" cy="77.29" r="0.68"/><circle class="cls-3" cx="250.96" cy="76.74" r="0.68"/><circle class="cls-3" cx="252.59" cy="76.19" r="0.68"/><circle class="cls-3" cx="254.21" cy="75.64" r="0.68"/><circle class="cls-3" cx="256.46" cy="74.88" r="0.68"/><circle class="cls-3" cx="258.09" cy="74.33" r="0.68"/><circle class="cls-3" cx="259.71" cy="73.78" r="0.68"/><circle class="cls-3" cx="261.34" cy="73.23" r="0.68"/><circle class="cls-3" cx="263.59" cy="72.46" r="0.68"/><circle class="cls-3" cx="265.22" cy="71.91" r="0.68"/><circle class="cls-3" cx="266.84" cy="71.36" r="0.68"/><circle class="cls-3" cx="268.47" cy="70.81" r="0.68"/><rect class="cls-3" x="239.66" y="70.45" width="5.53" height="4.89" rx="0.84" transform="matrix(0.95, -0.32, 0.32, 0.95, -10.57, 81.64)"/><path class="cls-2" d="M152.79,0a1.89,1.89,0,0,0,1.06,1.12l28.6,11.73a1.93,1.93,0,0,0,2.5-1.06L189.87,0Z"/><path class="cls-3" d="M183.46,0l-.37.36C177.18,5.72,169.81,6.44,167,6.5l15.49,6.35a1.93,1.93,0,0,0,2.5-1.06L189.87,0Z"/><path class="cls-4" d="M181.54,6.81a38.66,38.66,0,0,1-10.3,1.44l11.21,4.6a1.93,1.93,0,0,0,2.5-1.06l3.54-8.48A21.07,21.07,0,0,1,181.54,6.81Z"/><path class="cls-2" d="M270,0h-8.68l-4.59,11v0a1.9,1.9,0,0,0,1,2.48L275,20.56V5A5,5,0,0,0,270,0Z"/><path class="cls-3" d="M275,20.56V18.44a27.24,27.24,0,0,1-4.14.43Z"/><circle class="cls-3" cx="261.9" cy="4.41" r="0.59"/><circle class="cls-3" cx="263.27" cy="4.97" r="0.59"/><circle class="cls-3" cx="264.65" cy="5.54" r="0.59"/><circle class="cls-3" cx="266.02" cy="6.1" r="0.59"/><circle class="cls-3" cx="267.93" cy="6.89" r="0.59"/><circle class="cls-3" cx="269.3" cy="7.45" r="0.59"/><circle class="cls-3" cx="270.68" cy="8.02" r="0.59"/><circle class="cls-3" cx="272.05" cy="8.58" r="0.59"/><circle class="cls-3" cx="273.96" cy="9.36" r="0.59"/><path class="cls-3" d="M263.36,0l-.19.45a.73.73,0,0,0,.4,1l3.08,1.27a.72.72,0,0,0,1-.4L268.53,0Z"/></g></g></svg>