<svg xmlns="http://www.w3.org/2000/svg" xmlns:xlink="http://www.w3.org/1999/xlink" viewBox="0 0 275 79.97"><defs><style>.cls-1{fill:#70c670;}.cls-2{fill:#e49323;}.cls-3{fill:#292e61;}.cls-4{fill:url(#Degradado_sin_nombre_2);}.cls-5{fill:#fff;}</style><linearGradient id="Degradado_sin_nombre_2" x1="289.09" y1="-15.76" x2="198.44" y2="17.17" gradientTransform="matrix(1, -0.04, 0.04, 1, -6.74, 33.01)" gradientUnits="userSpaceOnUse"><stop offset="0" stop-color="#6c92da"/><stop offset="1" stop-color="#70c670"/></linearGradient></defs><title>Banner_DepóstioPlazo</title><g id="Capa_2" data-name="Capa 2"><g id="elementos_banner"><rect class="cls-1" width="275" height="79.94" rx="4.41"/><rect class="cls-2" x="246.07" y="27.07" width="12.71" height="37.21"/><rect class="cls-2" x="230.19" y="35.83" width="12.71" height="39.47"/><rect class="cls-2" x="214.3" y="51.68" width="12.71" height="28.29"/><path class="cls-3" d="M190.14,79.92h80.95A3.89,3.89,0,0,0,275,76.08V51.48Z"/><polygon class="cls-4" points="261.54 10.8 255.28 9.58 256.63 13.46 183.87 37.78 185.48 42.45 258.24 18.12 259.4 21.46 263.6 16.73 267.79 12.01 261.54 10.8"/><polygon class="cls-5" points="269.24 42.79 267.43 45.36 265.63 42.79 267.43 40.21 269.24 42.79"/><path class="cls-5" d="M208.38,64.61l-1.07-1,1-1a.2.2,0,1,0-.28-.28l-1,1-1-1a.2.2,0,0,0-.28.28l1,1-1.1,1.09a.19.19,0,0,0,0,.28.19.19,0,0,0,.28,0l1.1-1.09,1.07,1a.2.2,0,1,0,.28-.28Z"/><polygon class="cls-5" points="200.34 18.07 202.21 15.42 204.06 18.07 202.21 20.73 200.34 18.07"/><polygon class="cls-5" points="183.81 52.13 185.61 49.55 187.42 52.13 185.61 54.7 183.81 52.13"/><path class="cls-5" d="M234.77,4.37l1.06,1-1,1a.18.18,0,0,0,0,.27.19.19,0,0,0,.28,0l1-1,1,1a.2.2,0,1,0,.28-.28l-1-1,1.1-1.09a.19.19,0,0,0,0-.28.19.19,0,0,0-.28,0l-1.1,1.09-1.07-1a.2.2,0,0,0-.28.28Z"/></g></g></svg>