<svg xmlns="http://www.w3.org/2000/svg" viewBox="0 0 275 80"><defs><style>.cls-1{fill:#55ca80;}.cls-2{fill:#6ad48a;}.cls-3{fill:#8de6a4;}.cls-4{fill:#4de8ae;}</style></defs><title>Banner_Extracash</title><g id="Capa_2" data-name="Capa 2"><g id="Capa_2-2" data-name="Capa 2"><rect class="cls-1" width="275" height="80" rx="5"/><path class="cls-2" d="M167.66,31.33l7.07,34,66.71-13.87-7.07-34Zm5.56,3.33L197,29.71a13.89,13.89,0,0,0,5.27,25.41L178.5,60.06Zm62.66,13.49-23.81,4.94a13.89,13.89,0,0,0-5.28-25.4l23.81-5Z"/><path class="cls-3" d="M202.31,55.12A13.89,13.89,0,0,1,197,29.71l-23.82,4.95,5.28,25.4Z"/><path class="cls-3" d="M218.17,38.57a13.89,13.89,0,0,1-6.1,14.52l23.81-4.94L230.6,22.74l-23.81,5A13.91,13.91,0,0,1,218.17,38.57Z"/><path class="cls-4" d="M197.52,46a1.1,1.1,0,0,1,.09-.7,1.86,1.86,0,0,1,.35-.58c.13-.14.22-.21.26-.19a4.09,4.09,0,0,0,1.65.79,4.38,4.38,0,0,0,2,0,2.77,2.77,0,0,0,1.44-.67,1.15,1.15,0,0,0,.31-1.12,1,1,0,0,0-.22-.45,1.12,1.12,0,0,0-.33-.27,1.58,1.58,0,0,0-.54-.14l-.58-.06h-1a9.63,9.63,0,0,1-1.41-.09,5.75,5.75,0,0,1-1.25-.35,2.47,2.47,0,0,1-1.06-.8,3.27,3.27,0,0,1-.59-1.35,3.11,3.11,0,0,1,.65-2.75,5.06,5.06,0,0,1,3-1.6,6,6,0,0,1,3.06,0c.79.27,1.24.67,1.35,1.19a1.18,1.18,0,0,1-.1.75,2.07,2.07,0,0,1-.39.6c-.13.14-.22.2-.25.19a4.07,4.07,0,0,0-1.51-.72,3.75,3.75,0,0,0-1.73,0,2.44,2.44,0,0,0-1.35.65,1.13,1.13,0,0,0-.3,1.08,1.07,1.07,0,0,0,.09.27.69.69,0,0,0,.16.22,1.3,1.3,0,0,0,.2.15.61.61,0,0,0,.28.1l.3.06a1.6,1.6,0,0,0,.36,0h1.27a6.83,6.83,0,0,1,3,.59,2.71,2.71,0,0,1,1.48,2,3.15,3.15,0,0,1-.65,2.84,5.47,5.47,0,0,1-3.18,1.63,6.07,6.07,0,0,1-3.31,0C198.12,47,197.64,46.57,197.52,46Z"/><path class="cls-4" d="M207.77,48.7a3.38,3.38,0,0,1,0-.75l1.41-14c0-.06.16-.13.5-.2.83-.18,1.32.06,1.46.7a3,3,0,0,1,0,.76l-1.38,14c0,.06-.18.13-.51.2C208.4,49.58,207.91,49.35,207.77,48.7Z"/><path class="cls-2" d="M144,59.38,133.37,79.54l.88.46h6.19l-2.95-1.56,7.94-15.06,14.12,7.45A9.07,9.07,0,0,0,149.36,80h18.22a9.11,9.11,0,0,0-2.25-6.11L176.91,80h6.19Z"/><path class="cls-3" d="M137.49,78.44,140.44,80h8.92a9.07,9.07,0,0,1,10.19-9.17l-14.12-7.45Z"/><path class="cls-3" d="M165.33,73.89A9.11,9.11,0,0,1,167.58,80h9.33Z"/><path class="cls-4" d="M158.64,75.18a3.3,3.3,0,0,0-2.17-.43A2.06,2.06,0,0,0,155,75.87a2.21,2.21,0,0,0-.26.92,1.7,1.7,0,0,0,.2.86,3.68,3.68,0,0,0,.49.69,6,6,0,0,0,.67.64l.16.14.36.3.27.28a1,1,0,0,1,.21.29h1.76a1.69,1.69,0,0,0-.12-.36,4.46,4.46,0,0,0-1.26-1.55l-.23-.2-.22-.18-.19-.16c-.08-.07-.13-.13-.17-.17l-.13-.16a.59.59,0,0,1-.1-.16l0-.16a.37.37,0,0,1,0-.18.64.64,0,0,1,.06-.18.79.79,0,0,1,.61-.42,1.69,1.69,0,0,1,.95.24,2.47,2.47,0,0,1,.86.75,2.65,2.65,0,0,1,.47,1s.07,0,.2,0A1.35,1.35,0,0,0,160,78a.75.75,0,0,0,.36-.34,1.15,1.15,0,0,0-.19-1.17A3.86,3.86,0,0,0,158.64,75.18Z"/><path class="cls-4" d="M154.46,79.91a2.68,2.68,0,0,1-.5-1.09s-.09,0-.21,0a1.48,1.48,0,0,0-.43.15.77.77,0,0,0-.33.31,1,1,0,0,0-.05.73h1.6A.34.34,0,0,1,154.46,79.91Z"/><path class="cls-4" d="M164.24,78.17c-.21-.11-.32-.14-.34-.11l-2,1.94h1.95l.48-.48a2.2,2.2,0,0,0,.31-.39C164.88,78.75,164.73,78.43,164.24,78.17Z"/><path class="cls-2" d="M275,23.13V17.28L273,21l-12.32-6.5a8,8,0,0,0,6.93-13.15L275,5.26V5a5,5,0,0,0-1.22-3.24L270.54.05A4.71,4.71,0,0,0,270,0H257.25a7.79,7.79,0,0,0-2.64,2.9,8,8,0,0,0,1,9l-12.31-6.5L246.17,0h-3.09l-3.33,6.31,34.52,18.21Z"/><path class="cls-3" d="M257.25,0H246.17l-2.82,5.35,12.31,6.5a8,8,0,0,1-1-8.95A7.79,7.79,0,0,1,257.25,0Z"/><path class="cls-3" d="M275,17.28v-12l-7.36-3.89a8,8,0,0,1-6.93,13.15L273,21Z"/><path class="cls-4" d="M256.87,6.08a.66.66,0,0,1,.29-.28,1.37,1.37,0,0,1,.37-.13c.11,0,.18,0,.19,0a2.37,2.37,0,0,0,.44,1,2.52,2.52,0,0,0,.85.74,1.61,1.61,0,0,0,.88.22.66.66,0,0,0,.55-.37A.57.57,0,0,0,260.5,7a.62.62,0,0,0,0-.25,1.36,1.36,0,0,0-.19-.25,2.65,2.65,0,0,0-.24-.24l-.31-.27-.14-.12a5.42,5.42,0,0,1-.59-.56,3.52,3.52,0,0,1-.42-.6,1.41,1.41,0,0,1-.18-.75,2,2,0,0,1,.23-.81,1.82,1.82,0,0,1,1.29-1,2.9,2.9,0,0,1,1.9.37,3.45,3.45,0,0,1,1.34,1.12,1,1,0,0,1,.17,1,.67.67,0,0,1-.32.3,1.21,1.21,0,0,1-.39.12c-.11,0-.17,0-.18,0a2.44,2.44,0,0,0-.4-.87,2.37,2.37,0,0,0-.76-.65,1.46,1.46,0,0,0-.83-.2.63.63,0,0,0-.52.37.47.47,0,0,0-.06.15.38.38,0,0,0,0,.15l0,.15a.33.33,0,0,0,.09.14l.11.14.15.14.16.14.19.16.2.17a4.14,4.14,0,0,1,1.11,1.35,1.55,1.55,0,0,1-.09,1.43,1.79,1.79,0,0,1-1.32,1,3.13,3.13,0,0,1-2-.43A3.59,3.59,0,0,1,257,7.18,1.13,1.13,0,0,1,256.87,6.08Z"/><path class="cls-4" d="M260.41,11a2,2,0,0,1,.27-.34L266.4,5s.11,0,.29.09q.65.34.39.84a1.49,1.49,0,0,1-.27.34L261.1,12s-.13,0-.3-.1C260.37,11.63,260.24,11.35,260.41,11Z"/><path class="cls-2" d="M239.52,59.77,234.71,80h4.8L238,79.63l3.89-16.38,15.36,3.66A9,9,0,0,0,250.42,80h16a8.38,8.38,0,0,0,.79-2.06,9,9,0,0,0-3.68-9.53L275,71.14V68.2Z"/><path class="cls-3" d="M238,79.63l1.53.37h10.91a9,9,0,0,1,6.81-13.09l-15.36-3.66Z"/><path class="cls-3" d="M275,71.14l-11.48-2.73a9,9,0,0,1,3.68,9.53,8.38,8.38,0,0,1-.79,2.06H270a5,5,0,0,0,5-5Z"/><path class="cls-4" d="M253,76.61a.84.84,0,0,1,.25-.39,1.45,1.45,0,0,1,.37-.24c.11,0,.18-.06.2,0a2.77,2.77,0,0,0,.75.92,2.83,2.83,0,0,0,1.15.57,1.78,1.78,0,0,0,1,0,.75.75,0,0,0,.49-.57.69.69,0,0,0,0-.32,1,1,0,0,0-.13-.26,1.13,1.13,0,0,0-.27-.22l-.33-.2-.41-.2-.2-.1a8,8,0,0,1-.8-.44,4,4,0,0,1-.64-.55,1.6,1.6,0,0,1-.4-.76,2.22,2.22,0,0,1,1.17-2.39,3.17,3.17,0,0,1,2.18-.12,3.88,3.88,0,0,1,1.79.84,1.14,1.14,0,0,1,.47,1.07.75.75,0,0,1-.27.42,1.42,1.42,0,0,1-.39.24.34.34,0,0,1-.2,0,2.64,2.64,0,0,0-1.69-1.35,1.68,1.68,0,0,0-1,0,.73.73,0,0,0-.47.55.55.55,0,0,0,0,.18.47.47,0,0,0,0,.17,1,1,0,0,0,.08.15.45.45,0,0,0,.14.13l.16.12.2.12.22.11.26.12.26.13a4.58,4.58,0,0,1,1.6,1.17,1.76,1.76,0,0,1,.31,1.59,2.07,2.07,0,0,1-1.17,1.5,3.61,3.61,0,0,1-2.31.08,4,4,0,0,1-1.94-.93A1.29,1.29,0,0,1,253,76.61Z"/><path class="cls-4" d="M263.53,72.77c-.23,0-.34,0-.35,0L258.85,80h1.59L264,74a1.88,1.88,0,0,0,.2-.45C264.29,73.17,264.06,72.9,263.53,72.77Z"/><path class="cls-2" d="M210.24,6.49,192.37,8.42A10.3,10.3,0,0,0,197.93,0H177.42l0,.38A10.28,10.28,0,0,0,185,9.21l-17.87,1.93L166,0h-3.54L164,14.76,214.1,9.34l-1-9.34h-3.55Z"/><path class="cls-3" d="M167.17,11.14,185,9.21A10.28,10.28,0,0,1,177.45.38l0-.38H166Z"/><path class="cls-3" d="M192.37,8.42l17.87-1.93L209.54,0H197.93A10.3,10.3,0,0,1,192.37,8.42Z"/><path class="cls-4" d="M185.65,0l.42.08a1.3,1.3,0,0,1,.39.14.83.83,0,0,1,.23.23.78.78,0,0,1,.13.34.86.86,0,0,1-.32.8,2,2,0,0,1-1.1.39A3.26,3.26,0,0,1,184,1.83a3.12,3.12,0,0,1-1.16-.71s-.09,0-.2.12a1.57,1.57,0,0,0-.31.41.85.85,0,0,0-.11.5,1.45,1.45,0,0,0,1,1.07,4.45,4.45,0,0,0,2.44.26,4,4,0,0,0,2.46-1,2.35,2.35,0,0,0,.68-2,2.3,2.3,0,0,0-.1-.47h-3.1Z"/><path class="cls-4" d="M190.43,0l-.87,4.33a2.34,2.34,0,0,0,0,.55c0,.48.4.69,1,.62.25,0,.38-.06.39-.1L192,0Z"/></g></g></svg>