<svg xmlns="http://www.w3.org/2000/svg" viewBox="0 0 275 80"><defs><style>.cls-1{fill:#025096;}.cls-2{fill:#fff;}.cls-3{fill:#253b80;}.cls-4{fill:#029aeb;}.cls-5{fill:#017de5;}.cls-6{fill:#016edb;}</style></defs><title>Banner_Paypal</title><g id="Capa_2" data-name="Capa 2"><g id="Capa_2-2" data-name="Capa 2"><rect class="cls-1" width="275" height="80" rx="5"/><path class="cls-2" d="M201.22,58.66h-4a.56.56,0,0,0-.55.47L195,69.47a.34.34,0,0,0,.33.39h1.93a.56.56,0,0,0,.55-.47l.44-2.79a.56.56,0,0,1,.55-.48h1.28c2.65,0,4.19-1.28,4.59-3.83a3.11,3.11,0,0,0-.52-2.6A3.75,3.75,0,0,0,201.22,58.66Zm.47,3.78c-.22,1.44-1.33,1.44-2.39,1.44h-.61l.42-2.7a.34.34,0,0,1,.34-.28h.27c.73,0,1.42,0,1.77.41A1.33,1.33,0,0,1,201.69,62.44Z"/><path class="cls-2" d="M213.27,62.39h-1.93a.34.34,0,0,0-.33.28l-.08.54-.14-.19a2.74,2.74,0,0,0-2.28-.81,4.44,4.44,0,0,0-4.31,3.88,3.68,3.68,0,0,0,.72,3,3,3,0,0,0,2.43,1A3.68,3.68,0,0,0,210,68.93l-.08.54a.34.34,0,0,0,.33.39H212a.56.56,0,0,0,.55-.48l1.05-6.6A.34.34,0,0,0,213.27,62.39Zm-2.69,3.76A2.14,2.14,0,0,1,208.41,68a1.49,1.49,0,0,1-1.6-1.88A2.15,2.15,0,0,1,209,64.26a1.65,1.65,0,0,1,1.29.52A1.67,1.67,0,0,1,210.58,66.15Z"/><path class="cls-2" d="M223.56,62.39h-1.94a.56.56,0,0,0-.47.25l-2.67,3.94-1.14-3.79a.56.56,0,0,0-.54-.4h-1.9a.34.34,0,0,0-.32.44l2.14,6.27-2,2.84a.33.33,0,0,0,.27.53h1.94a.57.57,0,0,0,.46-.24l6.45-9.31A.33.33,0,0,0,223.56,62.39Z"/><path class="cls-2" d="M230,58.66h-4a.57.57,0,0,0-.56.47l-1.63,10.34a.34.34,0,0,0,.33.39h2.07a.39.39,0,0,0,.39-.33L227,66.6a.56.56,0,0,1,.56-.48h1.27q4,0,4.59-3.83a3.07,3.07,0,0,0-.52-2.6A3.73,3.73,0,0,0,230,58.66Zm.46,3.78c-.22,1.44-1.32,1.44-2.39,1.44h-.61l.43-2.7a.33.33,0,0,1,.33-.28h.28c.73,0,1.41,0,1.77.41A1.37,1.37,0,0,1,230.44,62.44Z"/><path class="cls-2" d="M242,62.39H240.1a.33.33,0,0,0-.33.28l-.09.54-.13-.19a2.74,2.74,0,0,0-2.28-.81A4.43,4.43,0,0,0,233,66.09a3.61,3.61,0,0,0,.72,3,3,3,0,0,0,2.43,1,3.68,3.68,0,0,0,2.67-1.11l-.09.54a.34.34,0,0,0,.34.39h1.73a.57.57,0,0,0,.56-.48l1-6.6A.34.34,0,0,0,242,62.39Zm-2.69,3.76A2.16,2.16,0,0,1,237.16,68a1.64,1.64,0,0,1-1.3-.52,1.67,1.67,0,0,1-.3-1.36,2.15,2.15,0,0,1,2.16-1.85,1.64,1.64,0,0,1,1.29.52A1.67,1.67,0,0,1,239.34,66.15Z"/><path class="cls-2" d="M244.3,58.94l-1.65,10.53a.34.34,0,0,0,.33.39h1.66a.57.57,0,0,0,.56-.47l1.63-10.34a.34.34,0,0,0-.33-.39h-1.87A.34.34,0,0,0,244.3,58.94Z"/><path class="cls-3" d="M212.38,52.38l.81-5.14-1.8,0h-8.61l6-37.91a.54.54,0,0,1,.17-.3.52.52,0,0,1,.32-.11h14.5c4.82,0,8.14,1,9.88,3a6.75,6.75,0,0,1,1.58,3,10.7,10.7,0,0,1,0,4.09l0,.12v1l.82.47a5.67,5.67,0,0,1,1.64,1.25,5.8,5.8,0,0,1,1.34,3,12.64,12.64,0,0,1-.19,4.35A15.35,15.35,0,0,1,237,34.06a10.13,10.13,0,0,1-2.83,3.09,11.22,11.22,0,0,1-3.8,1.72,19.19,19.19,0,0,1-4.75.55h-1.13a3.41,3.41,0,0,0-2.2.81,3.38,3.38,0,0,0-1.15,2.05l-.09.47-1.43,9-.06.33a.34.34,0,0,1-.09.2.27.27,0,0,1-.15.05Z"/><path class="cls-4" d="M236.79,19.15h0l-.15.85c-1.92,9.82-8.46,13.22-16.82,13.22h-4.26a2.06,2.06,0,0,0-2,1.75h0l-2.18,13.82-.61,3.91A1.08,1.08,0,0,0,211.8,54h7.55a1.82,1.82,0,0,0,1.79-1.53l.08-.38,1.42-9,.09-.5A1.82,1.82,0,0,1,224.52,41h1.13c7.32,0,13-3,14.71-11.56.7-3.59.34-6.59-1.51-8.7A7.31,7.31,0,0,0,236.79,19.15Z"/><path class="cls-5" d="M234.78,18.35l-.9-.23q-.47-.11-1-.18a23,23,0,0,0-3.75-.27H217.8a1.85,1.85,0,0,0-.78.17,1.81,1.81,0,0,0-1,1.36l-2.42,15.32-.07.45a2.06,2.06,0,0,1,2-1.75h4.26c8.36,0,14.9-3.4,16.82-13.22l.15-.85a9.36,9.36,0,0,0-1.58-.66Z"/><path class="cls-6" d="M216,19.2a1.81,1.81,0,0,1,1-1.36,1.85,1.85,0,0,1,.78-.17h11.37a24.21,24.21,0,0,1,3.75.27q.5.07,1,.18l.9.23.43.14a9.36,9.36,0,0,1,1.58.66c.57-3.63,0-6.1-2-8.34-2.16-2.46-6.07-3.52-11.07-3.52h-14.5a2.08,2.08,0,0,0-2.05,1.76l-6,38.29a1.25,1.25,0,0,0,1.23,1.45h9l2.25-14.27Z"/></g></g></svg>