<svg xmlns="http://www.w3.org/2000/svg" viewBox="0 0 275 80"><defs><style>.cls-1{fill:#37c771;}.cls-2{fill:#2eb964;}.cls-3{fill:#8fe8b0;}.cls-4{opacity:0.52;}.cls-5{opacity:0.75;}.cls-6{opacity:0.8;}</style></defs><title>Banner_FondosMutuos</title><g id="Capa_2" data-name="Capa 2"><g id="Capa_2-2" data-name="Capa 2"><rect class="cls-1" width="275" height="80" rx="5"/><path class="cls-2" d="M163.54,52.82a10.51,10.51,0,1,0-14,4.51l0,0A10.4,10.4,0,0,0,163.54,52.82Z"/><path class="cls-3" d="M162.36,52.2a9.18,9.18,0,1,1-4.27-12.09A9.07,9.07,0,0,1,162.36,52.2Zm-.68-.33a8.41,8.41,0,1,0-11.19,3.65A8.3,8.3,0,0,0,161.68,51.87Z"/><path class="cls-3" d="M149.75,48.19a3.61,3.61,0,0,0,1.53,1.2,3.24,3.24,0,0,0,2,.41,1.8,1.8,0,0,0,1.29-1,1.54,1.54,0,0,0,0-1.43A4.26,4.26,0,0,0,153.48,46l-.21-.16-.19-.16-.18-.14-.15-.15-.12-.13a.38.38,0,0,1-.09-.15.57.57,0,0,1,0-.14.38.38,0,0,1,0-.15.37.37,0,0,1,.07-.14.65.65,0,0,1,.51-.38,1.56,1.56,0,0,1,.85.19,2.24,2.24,0,0,1,.79.64,2.51,2.51,0,0,1,.44.86.28.28,0,0,0,.18,0,1.12,1.12,0,0,0,.39-.13.67.67,0,0,0,.31-.29,1,1,0,0,0-.21-1,3.52,3.52,0,0,0-1.41-1.09,3,3,0,0,0-2-.36,1.78,1.78,0,0,0-1.27,1,2,2,0,0,0-.19.82,1.41,1.41,0,0,0,.21.74,2.9,2.9,0,0,0,.44.6,8.11,8.11,0,0,0,.62.55l.15.12.32.26a2.73,2.73,0,0,1,.25.23,1.16,1.16,0,0,1,.2.25.54.54,0,0,1,.06.25.43.43,0,0,1-.06.27.66.66,0,0,1-.53.39,1.65,1.65,0,0,1-.9-.22,2.51,2.51,0,0,1-.89-.72,2.38,2.38,0,0,1-.49-.93.34.34,0,0,0-.18,0,1,1,0,0,0-.37.14.61.61,0,0,0-.29.28A1.12,1.12,0,0,0,149.75,48.19Z"/><path class="cls-3" d="M153.74,52.79c.18.09.28.12.31.09l5.56-5.74a1.46,1.46,0,0,0,.26-.34c.17-.34,0-.62-.42-.84-.19-.09-.29-.12-.31-.08l-5.58,5.73a1.7,1.7,0,0,0-.26.34C153.15,52.29,153.29,52.57,153.74,52.79Z"/><g class="cls-4"><path class="cls-2" d="M219,8.19a6.83,6.83,0,1,0-2.65,9.18h0A6.76,6.76,0,0,0,219,8.19Z"/><path class="cls-3" d="M218.22,8.61a6,6,0,0,1-10.36,5.92,6,6,0,0,1,10.36-5.92Zm-.43.24a5.47,5.47,0,1,0-2.1,7.36A5.43,5.43,0,0,0,217.79,8.85Z"/><path class="cls-3" d="M211.47,14a2.48,2.48,0,0,0,1.21-.39,2.13,2.13,0,0,0,.95-1,1.18,1.18,0,0,0-.08-1.08,1,1,0,0,0-.76-.54,2.74,2.74,0,0,0-1.14.15l-.17,0-.15.05-.14,0a.35.35,0,0,1-.14,0l-.11,0h-.11l-.09,0-.08,0a.41.41,0,0,1,0-.09.42.42,0,0,1,0-.42,1.1,1.1,0,0,1,.41-.39,1.59,1.59,0,0,1,.63-.19,1.46,1.46,0,0,1,.62.08.26.26,0,0,0,.07-.1.77.77,0,0,0,.07-.26.42.42,0,0,0,0-.27.67.67,0,0,0-.63-.26,2.39,2.39,0,0,0-1.1.36,2,2,0,0,0-.9.93,1.13,1.13,0,0,0,.08,1,1.09,1.09,0,0,0,.37.4.88.88,0,0,0,.47.16,2.05,2.05,0,0,0,.49,0,3.18,3.18,0,0,0,.51-.13l.13,0L212,12l.22-.05a.5.5,0,0,1,.21,0,.47.47,0,0,1,.15.06.33.33,0,0,1,.13.13.44.44,0,0,1,0,.43,1.13,1.13,0,0,1-.44.4,1.68,1.68,0,0,1-.72.22,1.51,1.51,0,0,1-.67-.08.18.18,0,0,0-.07.1.72.72,0,0,0-.07.25.47.47,0,0,0,0,.26A.74.74,0,0,0,211.47,14Z"/><path class="cls-3" d="M215.4,13.46c.11-.06.17-.1.16-.12l-1.07-5.09A1.14,1.14,0,0,0,214.4,8c-.12-.22-.32-.24-.6-.08-.12.07-.17.11-.16.13l1.06,5.09a1.22,1.22,0,0,0,.09.27C214.92,13.6,215.12,13.63,215.4,13.46Z"/></g><g class="cls-5"><path class="cls-2" d="M263.85,10.8a5.49,5.49,0,1,0-2.13,7.37h0A5.42,5.42,0,0,0,263.85,10.8Z"/><path class="cls-3" d="M263.24,11.14a4.79,4.79,0,0,1-8.32,4.75,4.79,4.79,0,0,1,8.32-4.75Zm-.34.19a4.39,4.39,0,1,0-1.69,5.91A4.35,4.35,0,0,0,262.9,11.33Z"/><path class="cls-3" d="M257.82,15.43a2,2,0,0,0,1-.32,1.72,1.72,0,0,0,.77-.76,1,1,0,0,0-.07-.87.83.83,0,0,0-.61-.43,2.41,2.41,0,0,0-.92.12l-.13,0-.13,0-.11,0-.11,0h-.18s-.05,0-.07,0-.05,0-.06,0l-.05-.07a.37.37,0,0,1,0-.34.82.82,0,0,1,.33-.31,1.16,1.16,0,0,1,.51-.15,1.06,1.06,0,0,1,.5.06.16.16,0,0,0,.05-.08.65.65,0,0,0,.06-.21.35.35,0,0,0,0-.22c-.08-.14-.24-.2-.5-.2a1.84,1.84,0,0,0-.88.29,1.52,1.52,0,0,0-.72.74,1,1,0,0,0,.35,1.16.71.71,0,0,0,.38.12,1.7,1.7,0,0,0,.39,0l.42-.11.1,0,.2-.06.18,0a.44.44,0,0,1,.16,0l.13.05a.32.32,0,0,1,.1.1.36.36,0,0,1,0,.35.86.86,0,0,1-.36.32,1.41,1.41,0,0,1-.57.18,1.24,1.24,0,0,1-.54-.06.14.14,0,0,0-.06.08.46.46,0,0,0-.05.2.28.28,0,0,0,0,.2A.58.58,0,0,0,257.82,15.43Z"/><path class="cls-3" d="M261,15c.09,0,.13-.09.13-.11l-.87-4.08a.86.86,0,0,0-.07-.21q-.15-.25-.48-.06c-.1.05-.14.09-.13.1l.85,4.09a.66.66,0,0,0,.08.21C260.59,15.15,260.75,15.17,261,15Z"/></g><g class="cls-6"><path class="cls-2" d="M256.25,56.81a17.51,17.51,0,0,0-4.93,22.87c.06.11.14.21.21.32H270a5,5,0,0,0,5-5V55.41A17.66,17.66,0,0,0,256.25,56.81Z"/><path class="cls-3" d="M254.74,78.48A14.12,14.12,0,0,1,275,59.54V58a15.41,15.41,0,0,0-16.91.19,15.17,15.17,0,0,0-4.45,21c.2.3.41.57.62.84H256A13.91,13.91,0,0,1,254.74,78.48Z"/><path class="cls-3" d="M262.81,77a6.1,6.1,0,0,0,3-1.21,5.44,5.44,0,0,0,2.29-2.61,3,3,0,0,0-.42-2.75,2.55,2.55,0,0,0-2-1.24,6.92,6.92,0,0,0-2.9.57l-.41.17-.4.15-.35.13a1.33,1.33,0,0,1-.34.1l-.29.06a.67.67,0,0,1-.28,0l-.24-.07a.57.57,0,0,1-.21-.13,1.38,1.38,0,0,1-.26-1.29,2.45,2.45,0,0,1,1-1.06,3.83,3.83,0,0,1,1.58-.61,4.15,4.15,0,0,1,1.61.08.45.45,0,0,0,.16-.25,2.29,2.29,0,0,0,.14-.68,1.14,1.14,0,0,0-.17-.7,1.7,1.7,0,0,0-1.65-.54,5.83,5.83,0,0,0-2.76,1.12,5,5,0,0,0-2.14,2.53,2.9,2.9,0,0,0,.37,2.66,3.05,3.05,0,0,0,1,1,2.32,2.32,0,0,0,1.24.32,5.28,5.28,0,0,0,1.25-.15,9.94,9.94,0,0,0,1.3-.44l.31-.11.64-.24a3.86,3.86,0,0,1,.55-.17,1.45,1.45,0,0,1,.54-.08,1,1,0,0,1,.4.12,1,1,0,0,1,.35.31,1.08,1.08,0,0,1,.1,1.1,2.6,2.6,0,0,1-1.06,1.12,4.46,4.46,0,0,1-1.79.69,4.13,4.13,0,0,1-1.75-.08.49.49,0,0,0-.17.26,1.82,1.82,0,0,0-.12.65,1.13,1.13,0,0,0,.17.65A1.84,1.84,0,0,0,262.81,77Z"/><path class="cls-3" d="M272.83,75.1c.27-.18.4-.3.38-.36l-3.66-12.87a2.7,2.7,0,0,0-.27-.66c-.35-.52-.88-.55-1.57-.09-.29.2-.42.32-.38.37L271,74.37a2.57,2.57,0,0,0,.28.66C271.6,75.54,272.12,75.56,272.83,75.1Z"/></g><path class="cls-3" d="M160.81,69.32a1.6,1.6,0,0,1-1.13-2.73l30.37-30.36a3.86,3.86,0,0,1,5.33,0l17.4,17.41a.57.57,0,0,0,.8,0l25.7-25.7a1.6,1.6,0,0,1,2.26,2.26l-25.69,25.7a3.77,3.77,0,0,1-5.33,0l-17.41-17.4c-.29-.3-.51-.29-.8,0L161.94,68.85A1.6,1.6,0,0,1,160.81,69.32Z"/><path class="cls-3" d="M247.93,33.71h0a2,2,0,0,1-2.13-1.83l-.58-7.71a.79.79,0,0,0-.85-.73l-7.25.55A2,2,0,0,1,235,22.16h0A2,2,0,0,1,236.82,20L248,19.18a.8.8,0,0,1,.85.73l.88,11.67A2,2,0,0,1,247.93,33.71Z"/><path class="cls-3" d="M234.68,51.88a1.87,1.87,0,0,0-1.87,1.86V80h3.73V53.74A1.86,1.86,0,0,0,234.68,51.88Z"/><path class="cls-3" d="M214.1,73.43h0a1.87,1.87,0,0,0-1.87,1.87V80H216V75.3A1.86,1.86,0,0,0,214.1,73.43Z"/><path class="cls-3" d="M193.91,51.88A1.87,1.87,0,0,0,192,53.74V80h3.73V53.74A1.86,1.86,0,0,0,193.91,51.88Z"/><path class="cls-3" d="M172.15,73.43a1.86,1.86,0,0,0-1.87,1.87V80H174V75.3A1.86,1.86,0,0,0,172.15,73.43Z"/></g></g></svg>