<svg xmlns="http://www.w3.org/2000/svg" viewBox="0 0 275 80"><defs><style>.cls-1{fill:#3198dd;}.cls-2{fill:#41b3f2;}.cls-3{fill:#0088d3;}</style></defs><title>Banner_PreÌstamo</title><g id="Capa_2" data-name="Capa 2"><g id="elementos_banner"><rect class="cls-1" width="275" height="80" rx="5"/><path class="cls-2" d="M253.62,66.7c1.08,4.34,4.33,3.8,9.66,2.53l.46-.09c5.51-1.35,8.4-2.26,7.31-6.68-.9-3.71-5.51-9.22-9.93-11.84l-4.07,1c-2.35,3.16-4.16,9.66-3.7,13.64C253.44,65.71,253.53,66.16,253.62,66.7Z"/><path class="cls-2" d="M253.44,46.92V47a.33.33,0,0,0,.09.27h0c.36,1.35,1.17,2.08,3.07,3.34h.09L261,49.54h.09c.81-1.09,1.71-3.25,1.44-4.61l-.09-.27c-.18-.9-1.44-1.27-2.44-1.08l-5.33,1.26a1.7,1.7,0,0,0-1.26,2.08Z"/><path class="cls-3" d="M259.4,62.46c.72,0,1.36-.09,1.45.45s-.19.81-.91,1a2.13,2.13,0,0,1-1.9-.45,1,1,0,0,0-.36.81c.09.55,1,1,2.53.64s2.26-1.27,1.9-2.44-1.26-1.36-2.35-1.36c-.72,0-1.26.09-1.44-.45s.18-.81.81-1a2.25,2.25,0,0,1,1.72.36,1,1,0,0,0,.36-.81c-.09-.55-.91-.91-2.35-.64A2,2,0,0,0,257.05,61C257.32,62.19,258.41,62.46,259.4,62.46Z"/><path class="cls-3" d="M263.92,66c.09,0,.18-.09.27-.09l.45-7.59v-.45c-.09-.45-.54-.45-.81-.36l-.27.09-.46,7.59v.45C263.19,66.07,263.65,66.07,263.92,66Z"/><path class="cls-3" d="M256.15,9.72a7.75,7.75,0,1,0,9.69,5.12h0A7.75,7.75,0,0,0,256.15,9.72Z"/><path class="cls-2" d="M256.36,10.42a7,7,0,1,0,8.78,4.64,7,7,0,0,0-8.78-4.64Z"/><path class="cls-2" d="M255.8,8.74a8.79,8.79,0,0,0,5.26,16.77,8.67,8.67,0,0,0,5.76-11,8.71,8.71,0,0,0-11-5.82Zm4.91,15.65a7.68,7.68,0,1,1,5.06-9.62h0a7.78,7.78,0,0,1-5.06,9.62Z"/><path class="cls-3" d="M257.13,16c-.77-.07-1.33-.07-1.4-.56s.28-.78.91-.85a2.05,2.05,0,0,1,1.69.57.93.93,0,0,0,.42-.85c-.07-.56-.84-1-2.32-.84s-2.24,1.05-2.1,2.18,1.19,1.54,2.17,1.61c.7.07,1.34.07,1.41.63s-.28.77-1,.92a2.33,2.33,0,0,1-1.89-.64.88.88,0,0,0-.42.78c.07.56.84,1.12,2.45.91s2.39-1,2.18-2.25S258.26,16.18,257.13,16Z"/><path class="cls-3" d="M261.63,12.88a.72.72,0,0,0-.28.07l-1.27,7.58V21c.07.49.49.49.77.42a.46.46,0,0,0,.29-.07l1.26-7.58V13.3C262.33,12.88,261.91,12.88,261.63,12.88Z"/><path class="cls-2" d="M190.79,32.76v.13a.22.22,0,0,0,.06.18h0c.25.94.81,1.43,2.12,2.31H193l3-.75h.06a5,5,0,0,0,1-3.17l-.06-.19c-.13-.62-1-.87-1.69-.75l-3.67.87A1.19,1.19,0,0,0,190.79,32.76Z"/><path class="cls-2" d="M196.08,35.31l-2.8.69a16.11,16.11,0,0,0-2.55,9.4c.06.31.12.68.19,1,.74,3,3,2.61,6.66,1.74l.31-.06c3.79-.93,5.78-1.55,5-4.6C202.31,40.85,199.13,37.12,196.08,35.31Z"/><path class="cls-3" d="M195.15,42.59c-.5,0-.87.07-1-.31s.13-.56.56-.68a1.53,1.53,0,0,1,1.18.25.68.68,0,0,0,.25-.56c-.06-.38-.62-.62-1.61-.44a1.35,1.35,0,0,0-1.25,1.68c.19.81.93.94,1.62.94.5,0,.93-.07,1,.31s-.12.56-.62.68a1.43,1.43,0,0,1-1.3-.31.67.67,0,0,0-.25.56c.06.37.68.75,1.74.44s1.56-.87,1.31-1.68S196,42.53,195.15,42.59Z"/><path class="cls-3" d="M198,40a.23.23,0,0,0-.19.07l-.31,5.22v.25a.4.4,0,0,0,.56.25c.07,0,.13-.06.19-.06l.31-5.23v-.25C198.45,40,198.2,40,198,40Z"/><path class="cls-3" d="M229.52,43.35c-8,3.73-18,14.55-21.37,22.88-.37,1.07-.73,2.14-1.05,3.1-1.38,5.39.17,8.47,3.81,10.67h34.4c.1-.32.2-.66.29-1,2-8.19-1.34-23.68-7.23-33.42Z"/><path class="cls-3" d="M227.29,30.48l-.14.31a1.33,1.33,0,0,0-.18.66h0c-.8,3.08.17,5.26,2.63,9.84l.1.05,9.51,2.39.1.05c2.82-1.3,6.78-4.54,7.53-7.52l.18-.66c.49-1.87-1.59-4.06-3.52-4.7l-11.83-3a3.42,3.42,0,0,0-4.38,2.55Z"/><path class="cls-2" d="M224.81,64.88c-1.48-.8-2.65-1.22-2.28-2.28s1.26-1.4,2.68-1a5.18,5.18,0,0,1,3,2.5,2.33,2.33,0,0,0,1.56-1.25c.27-1.11-.9-2.88-4-3.68s-5.46.33-6.08,2.76c-.76,2.73,1.19,4.12,3.08,5.11,1.38.76,2.65,1.22,2.33,2.43s-1.25,1.4-2.77,1a5.44,5.44,0,0,1-3.41-2.8,2,2,0,0,0-1.56,1.26c-.31,1.21.8,3.08,4.24,3.92s5.66-.24,6.38-2.87S227,66,224.81,64.88Z"/><path class="cls-2" d="M236.61,62c-.31-.14-.56-.13-.61,0l-8.85,14.44-.37.82c-.22,1,.59,1.38,1.15,1.51a.79.79,0,0,0,.6,0l8.86-14.44.37-.81C238,62.54,237.16,62.16,236.61,62Z"/><path class="cls-3" d="M181,64.66c-3.51,1.35-8.14,5.68-9.85,9.17a6.61,6.61,0,0,0-.51,1.27c-.82,2.4-.09,3.8,1.66,4.9h14.64c.93-3.55,0-9.91-2.17-14Z"/><path class="cls-3" d="M181.11,63.76l4,1.38.09,0c1.25-.53,3.05-1.75,3.44-3l.07-.26c.28-.77-.57-1.82-1.42-2.13l-4.91-1.6a1.6,1.6,0,0,0-2,.89h0l0,.09-.06.26h0c-.42,1.29-.12,2.3.78,4.3Z"/><path class="cls-2" d="M178.34,73.68c-.66-.35-1.08-.55-.94-1.07s.59-.51,1.12-.37a2.34,2.34,0,0,1,1.2,1.14.8.8,0,0,0,.68-.49c.11-.43-.26-1.18-1.62-1.71s-2.32,0-2.68,1,.4,1.77,1.21,2.26c.57.33,1.14.66.92,1.16s-.62.59-1.21.35a2.3,2.3,0,0,1-1.36-1.27,1,1,0,0,0-.68.48c-.13.52.22,1.36,1.69,1.82s2.41,0,2.76-1S179.21,74.27,178.34,73.68Z"/><path class="cls-2" d="M178.84,79.12c-.11.43.21.61.48.68l.26.06,4.19-5.93a.55.55,0,0,0,.18-.33c.11-.44-.22-.61-.48-.68l-.27-.07L179,78.7C178.92,78.77,178.88,78.94,178.84,79.12Z"/><path class="cls-2" d="M212.94,4.6a10.74,10.74,0,1,0,9.19,12.09h0A10.72,10.72,0,0,0,212.94,4.6Z"/><path class="cls-3" d="M212.8,5.6a9.72,9.72,0,1,0,8.33,10.94A9.64,9.64,0,0,0,212.8,5.6Z"/><path class="cls-3" d="M213.07,3.16a12.18,12.18,0,1,0-3.16,24.16A12,12,0,0,0,223.53,16.9,12.06,12.06,0,0,0,213.07,3.16ZM210.13,25.7a10.64,10.64,0,1,1,12-9.14h0a10.76,10.76,0,0,1-12,9.14Z"/><path class="cls-2" d="M209.52,14.61c-1-.14-1.77-.07-1.91-.82s.41-1.09,1.3-1.16a3.18,3.18,0,0,1,2.31.75,1.22,1.22,0,0,0,.61-1.09c-.07-.75-1.16-1.43-3.13-1.15s-3.06,1.42-2.86,3,1.64,2,3,2.18c.95.06,1.83.13,1.9.88s-.41,1.09-1.36,1.22a3.48,3.48,0,0,1-2.58-.81,1.29,1.29,0,0,0-.62,1.09c.07.75,1.23,1.56,3.41,1.29s3.19-1.43,3-3.13S211,14.81,209.52,14.61Z"/><path class="cls-2" d="M215.64,10.25c-.2,0-.41.07-.34.14l-1.77,10.34v.54c.07.61.61.68,1,.61a.94.94,0,0,0,.41-.13l1.77-10.34v-.55C216.59,10.25,216.05,10.25,215.64,10.25Z"/></g></g></svg>