<svg xmlns="http://www.w3.org/2000/svg" viewBox="0 0 750 750"><defs><style>.cls-1{fill:#4a8eda;}.cls-2{fill:#222a63;}.cls-3{fill:#fff;}.cls-4{fill:#3c4b9b;}.cls-5{fill:#38c770;}.cls-6{fill:#90e8b0;}.cls-7{fill:#e5e5e5;}</style></defs><title>Chat_ilustración</title><g id="Referentes_Manual"><path class="cls-1" d="M13.1,372.64c0,201.58,163.41,365,365,365s365-163.42,365-365-163.41-365-365-365-365,163.42-365,365"/><path class="cls-2" d="M90.58,597.51c66.81,85.31,170.76,140.13,287.52,140.13s220.71-54.82,287.53-140.13Z"/><polygon class="cls-3" points="174.77 491.07 160.68 511.49 146.58 491.07 160.68 470.64 174.77 491.07"/><polygon class="cls-3" points="376.72 122.46 362.14 143.58 347.57 122.46 362.14 101.34 376.72 122.46"/><polygon class="cls-3" points="595.08 313.1 579.23 336.06 563.39 313.1 579.23 290.14 595.08 313.1"/><polygon class="cls-3" points="348.81 675.84 335.14 695.67 321.46 675.84 335.14 656.02 348.81 675.84"/><path class="cls-3" d="M212.73,636.76l-8.08-8.08,7.62-7.62a1.51,1.51,0,0,0-2.14-2.14l-7.62,7.62-7.9-7.9a1.51,1.51,0,0,0-2.14,2.14l7.9,7.9L192,637a1.5,1.5,0,0,0,0,2.14,1.51,1.51,0,0,0,1.07.44,1.55,1.55,0,0,0,1.07-.44l8.36-8.36,8.08,8.08a1.51,1.51,0,0,0,2.14-2.14Z"/><path class="cls-3" d="M584.75,140.67l-8.08-8.08,7.62-7.62a1.51,1.51,0,1,0-2.14-2.14l-7.62,7.62-7.9-7.9a1.51,1.51,0,1,0-2.14,2.14l7.9,7.9L564,141a1.5,1.5,0,0,0,0,2.14,1.51,1.51,0,0,0,1.07.44,1.55,1.55,0,0,0,1.07-.44l8.36-8.36,8.08,8.08a1.51,1.51,0,1,0,2.14-2.14Z"/><path class="cls-4" d="M497.23,607.85l-172,20.09a34.64,34.64,0,0,1-38.41-30.39l-40.2-344.09A34.65,34.65,0,0,1,277,215L449,195a34.62,34.62,0,0,1,38.41,30.38l40.19,344.1a34.63,34.63,0,0,1-30.38,38.42"/><rect class="cls-3" x="281.19" y="238.15" width="207.83" height="312" transform="translate(-43.13 47.34) rotate(-6.66)"/><path class="cls-3" d="M424.87,585.34a17.32,17.32,0,1,1-19.2-15.19,17.32,17.32,0,0,1,19.2,15.19"/><rect class="cls-5" x="265.89" y="239.04" width="207.83" height="48.31" transform="translate(-28.04 44.68) rotate(-6.66)"/><rect class="cls-3" x="308.25" y="257.82" width="123.09" height="10.6" rx="5.3" transform="translate(-28.03 44.68) rotate(-6.66)"/><path class="cls-3" d="M96.59,310.51H300.1A13.45,13.45,0,0,1,313.55,324V456.22a2.88,2.88,0,0,1-5.13,1.8l-23.35-17.56H96.59A13.46,13.46,0,0,1,83.14,427V324A13.45,13.45,0,0,1,96.59,310.51Z"/><path class="cls-6" d="M310.65,460.86a4.56,4.56,0,0,1-3.44-1.57l-22.73-17.08H96.59A15.23,15.23,0,0,1,81.39,427V324a15.22,15.22,0,0,1,15.2-15.2H300.1A15.22,15.22,0,0,1,315.3,324V456.22a4.56,4.56,0,0,1-3.1,4.37A4.69,4.69,0,0,1,310.65,460.86ZM96.59,312.26A11.72,11.72,0,0,0,84.89,324V427a11.72,11.72,0,0,0,11.7,11.71H285.65l24,18,.14.18a1.09,1.09,0,0,0,1.26.36,1.08,1.08,0,0,0,.75-1.07V324a11.72,11.72,0,0,0-11.7-11.7Z"/><rect class="cls-7" x="103.89" y="335.69" width="191.68" height="7.52" rx="3.76"/><rect class="cls-7" x="103.89" y="364.2" width="130.91" height="7.52" rx="3.76"/><rect class="cls-7" x="103.89" y="395.06" width="130.91" height="7.52" rx="3.76"/><path class="cls-3" d="M426.91,405.9h218.7A11.08,11.08,0,0,1,656.69,417v83.73a11.08,11.08,0,0,1-11.08,11.08h-213l-12.31,12.3a2.59,2.59,0,0,1-4.42-1.83V417A11.08,11.08,0,0,1,426.91,405.9Z"/><path class="cls-6" d="M418.42,526.61a4.22,4.22,0,0,1-1.66-.34,4.32,4.32,0,0,1-2.68-4V417a12.84,12.84,0,0,1,12.83-12.83h218.7A12.84,12.84,0,0,1,658.44,417v83.73a12.84,12.84,0,0,1-12.83,12.83H433.28l-11.79,11.79A4.35,4.35,0,0,1,418.42,526.61Zm8.49-119a9.34,9.34,0,0,0-9.33,9.33V522.26a.85.85,0,0,0,1.44.6L431.83,510H645.61a9.33,9.33,0,0,0,9.33-9.33V417a9.34,9.34,0,0,0-9.33-9.33Z"/><path class="cls-3" d="M517.84,164.74h-104a7.11,7.11,0,0,0-7.11,7.12V220.2a1.06,1.06,0,0,0,1.7.85l14.05-10.63h95.39a7.11,7.11,0,0,0,7.12-7.11V171.86A7.12,7.12,0,0,0,517.84,164.74Z"/><path class="cls-6" d="M407.76,223A2.83,2.83,0,0,1,405,220.2V171.86a8.88,8.88,0,0,1,8.86-8.87h104a8.88,8.88,0,0,1,8.87,8.87v31.45a8.87,8.87,0,0,1-8.87,8.86H423l-13.57,10.28A2.87,2.87,0,0,1,407.76,223Zm6.05-56.53a5.38,5.38,0,0,0-5.36,5.37v47l13.41-10.15h96a5.37,5.37,0,0,0,5.37-5.36V171.86a5.38,5.38,0,0,0-5.37-5.37Z"/><rect class="cls-7" x="452.92" y="441.11" width="170.35" height="7.71" rx="3.86"/><rect class="cls-7" x="452.92" y="463.43" width="170.35" height="7.71" rx="3.86"/><rect class="cls-7" x="420.25" y="185.45" width="92.23" height="7.52" rx="3.76"/></g></svg>